SplineFontDB: 3.2
FontName: NotoSansOriya-Regular
FullName: Noto Sans Oriya Regular
FamilyName: Noto Sans Oriya
Weight: Book
Copyright: Copyright 2019 Google LLC. All Rights Reserved.
Version: 2.000
ItalicAngle: 0
UnderlinePosition: -125
UnderlineWidth: 50
Ascent: 800
Descent: 200
InvalidEm: 0
sfntRevision: 0x00020000
LayerCount: 2
Layer: 0 1 "+BBcEMAQ0BD0EOAQ5 +BD8EOwQwBD0A" 1
Layer: 1 1 "+BB8ENQRABDUENAQ9BDgEOQAA +BD8EOwQwBD0A" 0
XUID: [1021 59 1751208496 29973]
StyleMap: 0x0040
FSType: 0
OS2Version: 4
OS2_WeightWidthSlopeOnly: 0
OS2_UseTypoMetrics: 0
CreationTime: 1573797574
ModificationTime: 1631618863
PfmFamily: 81
TTFWeight: 400
TTFWidth: 5
LineGap: 0
VLineGap: 0
Panose: 0 0 0 0 0 0 0 0 0 0
OS2TypoAscent: 1069
OS2TypoAOffset: 0
OS2TypoDescent: -293
OS2TypoDOffset: 0
OS2TypoLinegap: 0
OS2WinAscent: 1069
OS2WinAOffset: 0
OS2WinDescent: 293
OS2WinDOffset: 0
HheadAscent: 1069
HheadAOffset: 0
HheadDescent: -293
HheadDOffset: 0
OS2SubXSize: 650
OS2SubYSize: 600
OS2SubXOff: 0
OS2SubYOff: 75
OS2SupXSize: 650
OS2SupYSize: 600
OS2SupXOff: 0
OS2SupYOff: 350
OS2StrikeYSize: 50
OS2StrikeYPos: 395
OS2CapHeight: 714
OS2XHeight: 658
OS2Vendor: 'GOOG'
OS2CodePages: 00000001.00000000
OS2UnicodeRanges: 00080000.00000000.00000000.00000000
Lookup: 1 0 0 "'aalt' +BBIEQQQ1 +BDAEOwRMBEIENQRABD0EMARCBDgEMgQ9BEsENQAA +BDIEMARABDgEMAQ9BEIESwAA in Oriya2 lookup 0" { "'aalt' +BBIEQQQ1 +BDAEOwRMBEIENQRABD0EMARCBDgEMgQ9BEsENQAA +BDIEMARABDgEMAQ9BEIESwAA in Oriya2 lookup 0 subtable"  } ['aalt' ('DFLT' <'dflt' > 'ory2' <'dflt' > ) ]
Lookup: 3 0 0 "'aalt' +BBIEQQQ1 +BDAEOwRMBEIENQRABD0EMARCBDgEMgQ9BEsENQAA +BDIEMARABDgEMAQ9BEIESwAA in Oriya2 lookup 1" { "'aalt' +BBIEQQQ1 +BDAEOwRMBEIENQRABD0EMARCBDgEMgQ9BEsENQAA +BDIEMARABDgEMAQ9BEIESwAA in Oriya2 lookup 1 subtable"  } ['aalt' ('DFLT' <'dflt' > 'ory2' <'dflt' > ) ]
Lookup: 4 0 0 "'akhn' Akhand in Oriya2 lookup 2" { "'akhn' Akhand in Oriya2 lookup 2 subtable"  } ['akhn' ('ory2' <'dflt' > ) ]

StartChar: .notdef
Encoding: 65536 -1 0
Width: 1229
Flags: W
LayerCount: 2
Fore
SplineSet
819 714 m 1,0,-1
 819 0 l 1,1,-1
 408 0 l 1,2,-1
 408 714 l 1,3,-1
 819 714 l 1,0,-1
768 51 m 1,4,-1
 768 663 l 1,5,-1
 459 663 l 1,6,-1
 459 51 l 1,7,-1
 768 51 l 1,4,-1
EndSplineSet
EndChar

StartChar: uni0B01
Encoding: 2817 2817 5
Width: 0
GlyphClass: 4
Flags: W
AnchorPoint: "+BBEENQQ3BEsEPARPBD0EPQQ+BDUA--5" 400 658 mark 0
AnchorPoint: "+BBEENQQ3BEsEPARPBD0EPQQ+BDUA--0" 400 658 mark 0
LayerCount: 2
Fore
SplineSet
399 695 m 0,0,1
 319 695 319 695 268 744.5 c 128,-1,2
 217 794 217 794 207 888 c 1,3,-1
 270 895 l 1,4,5
 276 823 276 823 310 785.5 c 128,-1,6
 344 748 344 748 399 748 c 256,7,8
 454 748 454 748 488.5 785.5 c 128,-1,9
 523 823 523 823 530 895 c 1,10,-1
 593 888 l 1,11,12
 583 794 583 794 531.5 744.5 c 128,-1,13
 480 695 480 695 399 695 c 0,0,1
399 813 m 256,14,15
 381 813 381 813 370 824 c 128,-1,16
 359 835 359 835 359 854 c 256,17,18
 359 873 359 873 370.5 883.5 c 128,-1,19
 382 894 382 894 399 894 c 0,20,21
 417 894 417 894 428 883.5 c 128,-1,22
 439 873 439 873 439 854 c 256,23,24
 439 835 439 835 428 824 c 128,-1,25
 417 813 417 813 399 813 c 256,14,15
EndSplineSet
EndChar

StartChar: uni0B02
Encoding: 2818 2818 6
Width: 304
Flags: W
LayerCount: 2
Fore
SplineSet
152 405 m 0,0,1
 93 405 93 405 54.5 440.5 c 128,-1,2
 16 476 16 476 16 536 c 0,3,4
 16 593 16 593 54 629.5 c 128,-1,5
 92 666 92 666 152 666 c 0,6,7
 211 666 211 666 249.5 629.5 c 128,-1,8
 288 593 288 593 288 534 c 0,9,10
 288 477 288 477 250 441 c 128,-1,11
 212 405 212 405 152 405 c 0,0,1
152 611 m 0,12,13
 117 611 117 611 96.5 589 c 128,-1,14
 76 567 76 567 76 535 c 0,15,16
 76 501 76 501 97.5 481 c 128,-1,17
 119 461 119 461 152 461 c 256,18,19
 185 461 185 461 206.5 481.5 c 128,-1,20
 228 502 228 502 228 535 c 0,21,22
 228 569 228 569 206.5 590 c 128,-1,23
 185 611 185 611 152 611 c 0,12,13
EndSplineSet
EndChar

StartChar: uni0B03
Encoding: 2819 2819 7
Width: 451
Flags: W
LayerCount: 2
Fore
SplineSet
227 666 m 0,0,1
 313 666 313 666 363 622.5 c 128,-1,2
 413 579 413 579 413 509 c 0,3,4
 413 465 413 465 394.5 432.5 c 128,-1,5
 376 400 376 400 346 375 c 128,-1,6
 316 350 316 350 282 328 c 1,7,8
 316 306 316 306 346.5 281 c 128,-1,9
 377 256 377 256 396 223.5 c 128,-1,10
 415 191 415 191 415 147 c 0,11,12
 415 78 415 78 364.5 34.5 c 128,-1,13
 314 -9 314 -9 225 -9 c 0,14,15
 138 -9 138 -9 87 34 c 128,-1,16
 36 77 36 77 36 146 c 0,17,18
 36 190 36 190 55.5 222.5 c 128,-1,19
 75 255 75 255 106 280.5 c 128,-1,20
 137 306 137 306 172 328 c 1,21,22
 137 350 137 350 106.5 375 c 128,-1,23
 76 400 76 400 57 432 c 128,-1,24
 38 464 38 464 38 508 c 0,25,26
 38 576 38 576 88 621 c 128,-1,27
 138 666 138 666 227 666 c 0,0,1
225 600 m 256,28,29
 171 600 171 600 144.5 573 c 128,-1,30
 118 546 118 546 118 505 c 0,31,32
 118 457 118 457 150.5 424 c 128,-1,33
 183 391 183 391 227 363 c 1,34,35
 271 391 271 391 302.5 423.5 c 128,-1,36
 334 456 334 456 334 504 c 0,37,38
 334 547 334 547 306.5 573.5 c 128,-1,39
 279 600 279 600 225 600 c 256,28,29
116 155 m 256,40,41
 116 108 116 108 148.5 82.5 c 128,-1,42
 181 57 181 57 227 57 c 256,43,44
 273 57 273 57 304.5 82.5 c 128,-1,45
 336 108 336 108 336 154 c 0,46,47
 336 201 336 201 303.5 233.5 c 128,-1,48
 271 266 271 266 227 294 c 1,49,50
 182 266 182 266 149 234 c 128,-1,51
 116 202 116 202 116 155 c 256,40,41
EndSplineSet
EndChar

StartChar: uni0B05
Encoding: 2821 2821 8
Width: 693
GlyphClass: 2
Flags: W
AnchorPoint: "+BBEENQQ3BEsEPARPBD0EPQQ+BDUA--0" 593 658 basechar 0
LayerCount: 2
Fore
SplineSet
264 -8 m 0,0,1
 157 -8 157 -8 96.5 41.5 c 128,-1,2
 36 91 36 91 36 177 c 0,3,4
 36 227 36 227 55 259.5 c 128,-1,5
 74 292 74 292 104 312.5 c 128,-1,6
 134 333 134 333 168.5 346 c 128,-1,7
 203 359 203 359 235 369 c 2,8,-1
 258 376 l 2,9,10
 290 386 290 386 322.5 401 c 128,-1,11
 355 416 355 416 377 444.5 c 128,-1,12
 399 473 399 473 399 524 c 0,13,14
 399 560 399 560 383.5 579.5 c 128,-1,15
 368 599 368 599 341 599 c 256,16,17
 314 599 314 599 299.5 580.5 c 128,-1,18
 285 562 285 562 285 529 c 2,19,-1
 285 463 l 1,20,-1
 215 463 l 1,21,-1
 215 530 l 2,22,23
 215 562 215 562 200.5 580.5 c 128,-1,24
 186 599 186 599 158 599 c 0,25,26
 131 599 131 599 116 581.5 c 128,-1,27
 101 564 101 564 101 533 c 0,28,29
 101 519 101 519 105 501.5 c 128,-1,30
 109 484 109 484 118 464 c 1,31,-1
 50 446 l 1,32,33
 38 471 38 471 32.5 496 c 128,-1,34
 27 521 27 521 27 544 c 0,35,36
 27 599 27 599 58.5 632.5 c 128,-1,37
 90 666 90 666 145 666 c 0,38,39
 183 666 183 666 209.5 650 c 128,-1,40
 236 634 236 634 250 606 c 1,41,42
 280 666 280 666 351 666 c 0,43,44
 406 666 406 666 439.5 628 c 128,-1,45
 473 590 473 590 473 521 c 0,46,47
 473 466 473 466 454 430 c 128,-1,48
 435 394 435 394 405.5 371.5 c 128,-1,49
 376 349 376 349 344.5 336 c 128,-1,50
 313 323 313 323 288 315 c 2,51,-1
 268 309 l 2,52,53
 217 292 217 292 183 276.5 c 128,-1,54
 149 261 149 261 132.5 239 c 128,-1,55
 116 217 116 217 116 181 c 0,56,57
 116 128 116 128 155 96.5 c 128,-1,58
 194 65 194 65 263 65 c 0,59,60
 335 65 335 65 413.5 99 c 128,-1,61
 492 133 492 133 554 204 c 1,62,-1
 554 658 l 1,63,-1
 632 658 l 1,64,-1
 632 0 l 1,65,-1
 554 0 l 1,66,-1
 557 109 l 1,67,68
 499 52 499 52 421.5 22 c 128,-1,69
 344 -8 344 -8 264 -8 c 0,0,1
EndSplineSet
EndChar

StartChar: uni0B07
Encoding: 2823 2823 10
Width: 796
GlyphClass: 2
Flags: W
AnchorPoint: "+BBEENQQ3BEsEPARPBD0EPQQ+BDUA--0" 661 658 basechar 0
LayerCount: 2
Fore
SplineSet
234 -8 m 0,0,1
 177 -8 177 -8 143 36.5 c 128,-1,2
 109 81 109 81 109 162 c 0,3,4
 109 197 109 197 116 226 c 1,5,6
 72 265 72 265 52 310.5 c 128,-1,7
 32 356 32 356 32 405 c 0,8,9
 32 469 32 469 61 518 c 128,-1,10
 90 567 90 567 139.5 599.5 c 128,-1,11
 189 632 189 632 251 649 c 128,-1,12
 313 666 313 666 379 666 c 0,13,14
 448 666 448 666 515.5 647 c 128,-1,15
 583 628 583 628 637 589.5 c 128,-1,16
 691 551 691 551 723.5 494 c 128,-1,17
 756 437 756 437 756 360 c 0,18,19
 756 308 756 308 738.5 257.5 c 128,-1,20
 721 207 721 207 683 160 c 1,21,-1
 778 39 l 1,22,-1
 714 -9 l 1,23,-1
 595 154 l 1,24,25
 639 196 639 196 658 243.5 c 128,-1,26
 677 291 677 291 677 342 c 0,27,28
 677 406 677 406 651 453.5 c 128,-1,29
 625 501 625 501 581 532 c 128,-1,30
 537 563 537 563 483.5 578 c 128,-1,31
 430 593 430 593 375 593 c 0,32,33
 307 593 307 593 246 570.5 c 128,-1,34
 185 548 185 548 146.5 503.5 c 128,-1,35
 108 459 108 459 108 394 c 0,36,37
 108 337 108 337 143 291 c 1,38,39
 177 335 177 335 234 335 c 0,40,41
 303 335 303 335 332 268 c 1,42,43
 363 335 363 335 433 335 c 0,44,45
 490 335 490 335 522 290 c 128,-1,46
 554 245 554 245 554 163 c 0,47,48
 554 82 554 82 522 37 c 128,-1,49
 490 -8 490 -8 433 -8 c 0,50,51
 364 -8 364 -8 332 60 c 1,52,53
 302 -8 302 -8 234 -8 c 0,0,1
235 56 m 0,54,55
 299 56 299 56 299 164 c 0,56,57
 299 271 299 271 235 271 c 0,58,59
 205 271 205 271 188 243.5 c 128,-1,60
 171 216 171 216 171 164 c 0,61,62
 171 111 171 111 188 83.5 c 128,-1,63
 205 56 205 56 235 56 c 0,54,55
430 56 m 0,64,65
 493 56 493 56 493 164 c 0,66,67
 493 216 493 216 477 243.5 c 128,-1,68
 461 271 461 271 430 271 c 0,69,70
 365 271 365 271 365 164 c 0,71,72
 365 111 365 111 382 83.5 c 128,-1,73
 399 56 399 56 430 56 c 0,64,65
EndSplineSet
EndChar

StartChar: uni0B08
Encoding: 2824 2824 11
Width: 796
GlyphClass: 2
Flags: W
AnchorPoint: "+BBEENQQ3BEsEPARPBD0EPQQ+BDUA--0" 665 658 basechar 0
LayerCount: 2
Fore
SplineSet
234 -8 m 0,0,1
 177 -8 177 -8 143 36.5 c 128,-1,2
 109 81 109 81 109 160 c 0,3,4
 109 179 109 179 111 196 c 1,5,6
 71 224 71 224 51.5 261.5 c 128,-1,7
 32 299 32 299 32 340 c 0,8,9
 32 407 32 407 76.5 451 c 128,-1,10
 121 495 121 495 186 509 c 1,11,12
 209 563 209 563 249.5 598 c 128,-1,13
 290 633 290 633 341.5 649.5 c 128,-1,14
 393 666 393 666 449 666 c 0,15,16
 532 666 532 666 603 630.5 c 128,-1,17
 674 595 674 595 717 528.5 c 128,-1,18
 760 462 760 462 760 368 c 0,19,20
 760 312 760 312 741.5 259 c 128,-1,21
 723 206 723 206 683 159 c 1,22,-1
 778 38 l 1,23,-1
 714 -8 l 1,24,-1
 595 154 l 1,25,26
 639 196 639 196 660 246 c 128,-1,27
 681 296 681 296 681 354 c 0,28,29
 681 428 681 428 648 482.5 c 128,-1,30
 615 537 615 537 560 567 c 128,-1,31
 505 597 505 597 439 596 c 0,32,33
 387 597 387 597 342.5 576 c 128,-1,34
 298 555 298 555 271 513 c 1,35,36
 313 509 313 509 353.5 491.5 c 128,-1,37
 394 474 394 474 424 443 c 1,38,-1
 381 390 l 1,39,40
 355 419 355 419 319 432 c 128,-1,41
 283 445 283 445 247 445 c 0,42,43
 210 445 210 445 178 431.5 c 128,-1,44
 146 418 146 418 126.5 392.5 c 128,-1,45
 107 367 107 367 107 332 c 0,46,47
 107 294 107 294 129 263 c 1,48,49
 161 331 161 331 234 331 c 0,50,51
 302 331 302 331 332 265 c 1,52,53
 363 331 363 331 433 331 c 0,54,55
 490 331 490 331 522 286.5 c 128,-1,56
 554 242 554 242 554 162 c 256,57,58
 554 82 554 82 522 37 c 128,-1,59
 490 -8 490 -8 433 -8 c 0,60,61
 364 -8 364 -8 332 59 c 1,62,63
 318 27 318 27 293 9.5 c 128,-1,64
 268 -8 268 -8 234 -8 c 0,0,1
235 54 m 0,65,66
 299 54 299 54 299 163 c 0,67,68
 299 270 299 270 235 270 c 0,69,70
 205 270 205 270 188 242 c 128,-1,71
 171 214 171 214 171 163 c 0,72,73
 171 110 171 110 188 82 c 128,-1,74
 205 54 205 54 235 54 c 0,65,66
430 54 m 0,75,76
 493 54 493 54 493 163 c 0,77,78
 493 214 493 214 477 242 c 128,-1,79
 461 270 461 270 430 270 c 0,80,81
 365 270 365 270 365 163 c 0,82,83
 365 109 365 109 382 81.5 c 128,-1,84
 399 54 399 54 430 54 c 0,75,76
EndSplineSet
EndChar

StartChar: uni0B09
Encoding: 2825 2825 12
Width: 779
GlyphClass: 2
Flags: W
AnchorPoint: "+BBEENQQ3BEsEPARPBD0EPQQ+BDUA--0" 655 658 basechar 0
LayerCount: 2
Fore
SplineSet
338 -8 m 0,0,1
 287 -8 287 -8 239.5 11.5 c 128,-1,2
 192 31 192 31 161.5 70 c 128,-1,3
 131 109 131 109 131 169 c 0,4,5
 131 189 131 189 136 209 c 1,6,7
 82 251 82 251 57 300.5 c 128,-1,8
 32 350 32 350 32 404 c 0,9,10
 32 469 32 469 61 518 c 128,-1,11
 90 567 90 567 139.5 599.5 c 128,-1,12
 189 632 189 632 251 649 c 128,-1,13
 313 666 313 666 379 666 c 0,14,15
 457 666 457 666 524.5 643.5 c 128,-1,16
 592 621 592 621 642.5 580 c 128,-1,17
 693 539 693 539 721.5 483.5 c 128,-1,18
 750 428 750 428 750 362 c 0,19,20
 750 312 750 312 729.5 259 c 128,-1,21
 709 206 709 206 667 159 c 1,22,-1
 761 39 l 1,23,-1
 697 -9 l 1,24,-1
 578 154 l 1,25,26
 627 198 627 198 649 248 c 128,-1,27
 671 298 671 298 671 347 c 0,28,29
 671 420 671 420 631 475 c 128,-1,30
 591 530 591 530 523.5 561.5 c 128,-1,31
 456 593 456 593 375 593 c 0,32,33
 324 593 324 593 276.5 580 c 128,-1,34
 229 567 229 567 191 542 c 128,-1,35
 153 517 153 517 130.5 479.5 c 128,-1,36
 108 442 108 442 108 393 c 0,37,38
 108 325 108 325 159 273 c 1,39,40
 177 305 177 305 207.5 336.5 c 128,-1,41
 238 368 238 368 283 398 c 1,42,-1
 316 354 l 1,43,44
 258 309 258 309 234.5 263 c 128,-1,45
 211 217 211 217 211 179 c 0,46,47
 211 139 211 139 231 113 c 128,-1,48
 251 87 251 87 281.5 74 c 128,-1,49
 312 61 312 61 345 61 c 0,50,51
 376 61 376 61 403 71.5 c 128,-1,52
 430 82 430 82 447.5 104 c 128,-1,53
 465 126 465 126 465 158 c 0,54,55
 465 183 465 183 453.5 205.5 c 128,-1,56
 442 228 442 228 417 247 c 1,57,-1
 358 186 l 1,58,-1
 317 227 l 1,59,-1
 469 386 l 1,60,-1
 510 345 l 1,61,-1
 462 294 l 1,62,63
 502 266 502 266 519.5 230.5 c 128,-1,64
 537 195 537 195 537 157 c 0,65,66
 537 102 537 102 508.5 65.5 c 128,-1,67
 480 29 480 29 434 10.5 c 128,-1,68
 388 -8 388 -8 338 -8 c 0,0,1
EndSplineSet
EndChar

StartChar: uni0B0A
Encoding: 2826 2826 13
Width: 849
GlyphClass: 2
Flags: W
AnchorPoint: "+BBEENQQ3BEsEPARPBD0EPQQ+BDUA--0" 627 658 basechar 0
LayerCount: 2
Fore
SplineSet
338 -8 m 0,0,1
 284 -8 284 -8 237 12.5 c 128,-1,2
 190 33 190 33 160.5 72.5 c 128,-1,3
 131 112 131 112 131 169 c 0,4,5
 131 189 131 189 136 209 c 1,6,7
 32 290 32 290 32 406 c 0,8,9
 32 467 32 467 60 515.5 c 128,-1,10
 88 564 88 564 136 597.5 c 128,-1,11
 184 631 184 631 247 648.5 c 128,-1,12
 310 666 310 666 379 666 c 0,13,14
 449 666 449 666 511 649 c 128,-1,15
 573 632 573 632 620.5 599.5 c 128,-1,16
 668 567 668 567 695.5 521 c 128,-1,17
 723 475 723 475 723 418 c 0,18,19
 723 380 723 380 710 344 c 1,20,21
 758 335 758 335 787.5 308 c 128,-1,22
 817 281 817 281 817 240 c 0,23,24
 817 192 817 192 777 162 c 128,-1,25
 737 132 737 132 672 125 c 1,26,-1
 762 13 l 1,27,-1
 700 -35 l 1,28,-1
 578 132 l 1,29,-1
 606 167 l 1,30,31
 663 167 663 167 699.5 183.5 c 128,-1,32
 736 200 736 200 736 235 c 0,33,34
 736 268 736 268 703.5 285 c 128,-1,35
 671 302 671 302 619 302 c 1,36,37
 644 355 644 355 644 402 c 0,38,39
 644 464 644 464 605.5 506.5 c 128,-1,40
 567 549 567 549 506 571 c 128,-1,41
 445 593 445 593 377 593 c 0,42,43
 307 593 307 593 245.5 570 c 128,-1,44
 184 547 184 547 146 502.5 c 128,-1,45
 108 458 108 458 108 393 c 0,46,47
 108 324 108 324 159 272 c 1,48,49
 177 305 177 305 207.5 336.5 c 128,-1,50
 238 368 238 368 283 398 c 1,51,-1
 316 354 l 1,52,53
 258 309 258 309 234.5 263 c 128,-1,54
 211 217 211 217 211 179 c 0,55,56
 211 123 211 123 250 92 c 128,-1,57
 289 61 289 61 342 61 c 0,58,59
 389 61 389 61 425.5 85.5 c 128,-1,60
 462 110 462 110 462 158 c 0,61,62
 462 182 462 182 451 204.5 c 128,-1,63
 440 227 440 227 416 246 c 1,64,-1
 358 186 l 1,65,-1
 317 227 l 1,66,-1
 469 386 l 1,67,-1
 510 345 l 1,68,-1
 461 293 l 1,69,70
 500 265 500 265 517 230 c 128,-1,71
 534 195 534 195 534 157 c 0,72,73
 534 102 534 102 506 65.5 c 128,-1,74
 478 29 478 29 433 10.5 c 128,-1,75
 388 -8 388 -8 338 -8 c 0,0,1
EndSplineSet
EndChar

StartChar: uni0B0B
Encoding: 2827 2827 14
Width: 809
GlyphClass: 2
Flags: W
AnchorPoint: "+BBEENQQ3BEsEPARPBD0EPQQ+BDUA--0" 587 658 basechar 0
LayerCount: 2
Fore
SplineSet
313 -8 m 0,0,1
 256 -8 256 -8 214 15.5 c 128,-1,2
 172 39 172 39 149 80 c 128,-1,3
 126 121 126 121 126 174 c 0,4,5
 126 195 126 195 129 214 c 1,6,7
 80 254 80 254 56 303 c 128,-1,8
 32 352 32 352 32 404 c 0,9,10
 32 470 32 470 60.5 519 c 128,-1,11
 89 568 89 568 136.5 601 c 128,-1,12
 184 634 184 634 243 650 c 128,-1,13
 302 666 302 666 363 666 c 0,14,15
 423 666 423 666 480.5 650.5 c 128,-1,16
 538 635 538 635 583.5 604.5 c 128,-1,17
 629 574 629 574 656 528.5 c 128,-1,18
 683 483 683 483 683 423 c 0,19,20
 683 382 683 382 667 344 c 1,21,22
 716 336 716 336 746.5 309 c 128,-1,23
 777 282 777 282 777 240 c 0,24,25
 777 192 777 192 737 162 c 128,-1,26
 697 132 697 132 631 125 c 1,27,-1
 722 13 l 1,28,-1
 659 -35 l 1,29,-1
 538 132 l 1,30,-1
 565 167 l 1,31,32
 622 167 622 167 659 183.5 c 128,-1,33
 696 200 696 200 696 235 c 0,34,35
 696 268 696 268 663 285 c 128,-1,36
 630 302 630 302 579 302 c 1,37,38
 591 329 591 329 597 354.5 c 128,-1,39
 603 380 603 380 603 402 c 0,40,41
 603 465 603 465 569 507.5 c 128,-1,42
 535 550 535 550 480 571.5 c 128,-1,43
 425 593 425 593 361 593 c 0,44,45
 296 593 296 593 238.5 570.5 c 128,-1,46
 181 548 181 548 144.5 504 c 128,-1,47
 108 460 108 460 108 395 c 0,48,49
 108 328 108 328 155 277 c 1,50,51
 179 313 179 313 219.5 334 c 128,-1,52
 260 355 260 355 313 355 c 0,53,54
 368 355 368 355 409.5 331.5 c 128,-1,55
 451 308 451 308 474 267 c 128,-1,56
 497 226 497 226 497 174 c 0,57,58
 497 121 497 121 474 80 c 128,-1,59
 451 39 451 39 409.5 15.5 c 128,-1,60
 368 -8 368 -8 313 -8 c 0,0,1
312 57 m 256,61,62
 365 57 365 57 394 89.5 c 128,-1,63
 423 122 423 122 423 174 c 0,64,65
 423 225 423 225 394 257 c 128,-1,66
 365 289 365 289 312 289 c 256,67,68
 259 289 259 289 229.5 257 c 128,-1,69
 200 225 200 225 200 174 c 256,70,71
 200 123 200 123 229.5 90 c 128,-1,72
 259 57 259 57 312 57 c 256,61,62
EndSplineSet
EndChar

StartChar: uni0B0C
Encoding: 2828 2828 15
Width: 594
GlyphClass: 2
Flags: W
AnchorPoint: "+BBEENQQ3BEsEPARPBD0EPQQ+BDUA--0" 280 658 basechar 0
LayerCount: 2
Fore
SplineSet
107 185 m 0,0,1
 107 126 107 126 154.5 91.5 c 128,-1,2
 202 57 202 57 295 54 c 1,3,4
 279 78 279 78 272.5 102.5 c 128,-1,5
 266 127 266 127 266 150 c 0,6,7
 266 210 266 210 307.5 248.5 c 128,-1,8
 349 287 349 287 419 287 c 0,9,10
 483 287 483 287 522.5 254 c 128,-1,11
 562 221 562 221 562 158 c 0,12,13
 562 80 562 80 496 36 c 128,-1,14
 430 -8 430 -8 306 -8 c 0,15,16
 170 -8 170 -8 103 44.5 c 128,-1,17
 36 97 36 97 36 186 c 0,18,19
 36 233 36 233 53 263.5 c 128,-1,20
 70 294 70 294 97 313 c 128,-1,21
 124 332 124 332 155 344 c 128,-1,22
 186 356 186 356 216 365 c 2,23,-1
 271 382 l 2,24,25
 298 391 298 391 323.5 402 c 128,-1,26
 349 413 349 413 366.5 434.5 c 128,-1,27
 384 456 384 456 384 497 c 0,28,29
 384 546 384 546 356 573 c 128,-1,30
 328 600 328 600 278 600 c 0,31,32
 226 600 226 600 196.5 572.5 c 128,-1,33
 167 545 167 545 167 498 c 0,34,35
 167 483 167 483 170.5 466 c 128,-1,36
 174 449 174 449 184 430 c 1,37,-1
 108 408 l 1,38,39
 99 429 99 429 93 453 c 128,-1,40
 87 477 87 477 87 502 c 0,41,42
 87 578 87 578 138.5 622 c 128,-1,43
 190 666 190 666 280 666 c 0,44,45
 367 666 367 666 415 622.5 c 128,-1,46
 463 579 463 579 463 501 c 0,47,48
 463 454 463 454 447.5 423.5 c 128,-1,49
 432 393 432 393 408.5 374.5 c 128,-1,50
 385 356 385 356 359.5 345.5 c 128,-1,51
 334 335 334 335 313 329 c 2,52,-1
 257 311 l 2,53,54
 214 298 214 298 180 283.5 c 128,-1,55
 146 269 146 269 126.5 246.5 c 128,-1,56
 107 224 107 224 107 185 c 0,0,1
329 145 m 0,57,58
 329 125 329 125 337 102.5 c 128,-1,59
 345 80 345 80 362 56 c 1,60,61
 425 64 425 64 460 89.5 c 128,-1,62
 495 115 495 115 495 157 c 0,63,64
 495 191 495 191 474 210.5 c 128,-1,65
 453 230 453 230 417 230 c 0,66,67
 377 230 377 230 353 206.5 c 128,-1,68
 329 183 329 183 329 145 c 0,57,58
EndSplineSet
EndChar

StartChar: uni0B0F
Encoding: 2831 2831 16
Width: 688
GlyphClass: 2
Flags: W
AnchorPoint: "+BBEENQQ3BEsEPARPBD0EPQQ+BDUA--0" 588 658 basechar 0
LayerCount: 2
Fore
SplineSet
627 658 m 1,0,-1
 627 0 l 1,1,-1
 537 0 l 1,2,3
 387 99 387 99 251.5 210.5 c 128,-1,4
 116 322 116 322 -5 440 c 1,5,-1
 51 498 l 1,6,7
 167 382 167 382 292.5 275.5 c 128,-1,8
 418 169 418 169 549 79 c 1,9,-1
 549 584 l 1,10,11
 481 580 481 580 432 544 c 128,-1,12
 383 508 383 508 366 455 c 1,13,14
 392 453 392 453 406.5 436 c 128,-1,15
 421 419 421 419 421 398 c 0,16,17
 421 373 421 373 404.5 357.5 c 128,-1,18
 388 342 388 342 362 342 c 0,19,20
 332 342 332 342 314.5 365 c 128,-1,21
 297 388 297 388 297 423 c 256,22,23
 297 458 297 458 314.5 498.5 c 128,-1,24
 332 539 332 539 367.5 575.5 c 128,-1,25
 403 612 403 612 456.5 635 c 128,-1,26
 510 658 510 658 582 658 c 2,27,-1
 627 658 l 1,0,-1
EndSplineSet
EndChar

StartChar: uni0B10
Encoding: 2832 2832 17
Width: 889
Flags: W
LayerCount: 2
Fore
SplineSet
687 307 m 0,0,1
 654 307 654 307 627 318 c 1,2,-1
 627 0 l 1,3,-1
 537 0 l 1,4,5
 387 99 387 99 251.5 210.5 c 128,-1,6
 116 322 116 322 -5 440 c 1,7,-1
 51 498 l 1,8,9
 167 382 167 382 292.5 275.5 c 128,-1,10
 418 169 418 169 549 79 c 1,11,-1
 549 592 l 1,12,13
 476 587 476 587 428 548.5 c 128,-1,14
 380 510 380 510 365 455 c 1,15,16
 391 453 391 453 406 436.5 c 128,-1,17
 421 420 421 420 421 398 c 0,18,19
 421 373 421 373 404.5 357.5 c 128,-1,20
 388 342 388 342 362 342 c 0,21,22
 332 342 332 342 314.5 365 c 128,-1,23
 297 388 297 388 297 423 c 256,24,25
 297 458 297 458 314.5 498.5 c 128,-1,26
 332 539 332 539 367.5 575.5 c 128,-1,27
 403 612 403 612 456.5 635 c 128,-1,28
 510 658 510 658 582 658 c 2,29,-1
 627 658 l 1,30,-1
 627 388 l 1,31,32
 654 377 654 377 688 377 c 256,33,34
 722 377 722 377 749 389 c 1,35,-1
 749 694 l 1,36,37
 781 706 781 706 798 726 c 128,-1,38
 815 746 815 746 815 769 c 0,39,40
 815 796 815 796 794.5 811 c 128,-1,41
 774 826 774 826 739 826 c 0,42,43
 705 826 705 826 660.5 811.5 c 128,-1,44
 616 797 616 797 567.5 782 c 128,-1,45
 519 767 519 767 470 767 c 0,46,47
 430 767 430 767 389.5 785 c 128,-1,48
 349 803 349 803 326 853 c 1,49,-1
 391 894 l 1,50,51
 408 865 408 865 431.5 853 c 128,-1,52
 455 841 455 841 481 841 c 0,53,54
 508 841 508 841 541 849.5 c 128,-1,55
 574 858 574 858 611 870 c 128,-1,56
 648 882 648 882 685.5 890.5 c 128,-1,57
 723 899 723 899 759 899 c 0,58,59
 821 899 821 899 858 867 c 128,-1,60
 895 835 895 835 895 785 c 0,61,62
 895 719 895 719 827 679 c 1,63,-1
 827 0 l 1,64,-1
 749 0 l 1,65,-1
 749 318 l 1,66,67
 722 307 722 307 687 307 c 0,0,1
EndSplineSet
EndChar

StartChar: uni0B13
Encoding: 2835 2835 18
Width: 700
GlyphClass: 2
Flags: W
AnchorPoint: "+BBEENQQ3BEsEPARPBD0EPQQ+BDUA--0" 556 658 basechar 0
LayerCount: 2
Fore
SplineSet
400 -8 m 0,0,1
 289 -8 289 -8 206 35.5 c 128,-1,2
 123 79 123 79 77.5 159 c 128,-1,3
 32 239 32 239 32 349 c 0,4,5
 32 468 32 468 84 570.5 c 128,-1,6
 136 673 136 673 224 738 c 1,7,-1
 278 686 l 1,8,9
 232 652 232 652 194 599.5 c 128,-1,10
 156 547 156 547 134 482.5 c 128,-1,11
 112 418 112 418 112 350 c 0,12,13
 112 267 112 267 146.5 203 c 128,-1,14
 181 139 181 139 245.5 102 c 128,-1,15
 310 65 310 65 398 65 c 0,16,17
 485 65 485 65 534.5 100 c 128,-1,18
 584 135 584 135 584 187 c 0,19,20
 584 234 584 234 550 262 c 128,-1,21
 516 290 516 290 456 290 c 0,22,23
 432 290 432 290 404.5 284.5 c 128,-1,24
 377 279 377 279 353 269 c 1,25,-1
 324 333 l 1,26,-1
 418 364 l 2,27,28
 451 374 451 374 487 389.5 c 128,-1,29
 523 405 523 405 547.5 432 c 128,-1,30
 572 459 572 459 572 502 c 0,31,32
 572 546 572 546 544 571.5 c 128,-1,33
 516 597 516 597 469 597 c 0,34,35
 421 597 421 597 392 569.5 c 128,-1,36
 363 542 363 542 363 498 c 0,37,38
 363 481 363 481 367 466 c 128,-1,39
 371 451 371 451 378 436 c 1,40,-1
 306 413 l 1,41,42
 283 462 283 462 283 507 c 0,43,44
 283 581 283 581 334.5 623.5 c 128,-1,45
 386 666 386 666 470 666 c 0,46,47
 557 666 557 666 604.5 622 c 128,-1,48
 652 578 652 578 652 510 c 0,49,50
 652 465 652 465 633 432.5 c 128,-1,51
 614 400 614 400 585 378 c 128,-1,52
 556 356 556 356 524 342 c 1,53,54
 593 329 593 329 628 287.5 c 128,-1,55
 663 246 663 246 663 184 c 0,56,57
 663 100 663 100 594.5 46 c 128,-1,58
 526 -8 526 -8 400 -8 c 0,0,1
EndSplineSet
EndChar

StartChar: uni0B14
Encoding: 2836 2836 19
Width: 908
Flags: W
LayerCount: 2
Fore
SplineSet
400 -8 m 0,0,1
 289 -8 289 -8 206 35.5 c 128,-1,2
 123 79 123 79 77.5 159 c 128,-1,3
 32 239 32 239 32 349 c 0,4,5
 32 468 32 468 84 570.5 c 128,-1,6
 136 673 136 673 224 738 c 1,7,-1
 278 686 l 1,8,9
 232 652 232 652 194 599.5 c 128,-1,10
 156 547 156 547 134 482.5 c 128,-1,11
 112 418 112 418 112 350 c 0,12,13
 112 267 112 267 146.5 203 c 128,-1,14
 181 139 181 139 245.5 102 c 128,-1,15
 310 65 310 65 398 65 c 0,16,17
 485 65 485 65 534.5 100 c 128,-1,18
 584 135 584 135 584 187 c 0,19,20
 584 234 584 234 550 262 c 128,-1,21
 516 290 516 290 456 290 c 0,22,23
 432 290 432 290 404.5 284.5 c 128,-1,24
 377 279 377 279 353 269 c 1,25,-1
 324 333 l 1,26,-1
 418 364 l 2,27,28
 451 374 451 374 487 389.5 c 128,-1,29
 523 405 523 405 547.5 432 c 128,-1,30
 572 459 572 459 572 502 c 0,31,32
 572 546 572 546 544 571.5 c 128,-1,33
 516 597 516 597 469 597 c 0,34,35
 421 597 421 597 392 569.5 c 128,-1,36
 363 542 363 542 363 498 c 0,37,38
 363 481 363 481 367 466 c 128,-1,39
 371 451 371 451 378 436 c 1,40,-1
 306 413 l 1,41,42
 283 462 283 462 283 507 c 0,43,44
 283 581 283 581 334.5 623.5 c 128,-1,45
 386 666 386 666 470 666 c 0,46,47
 557 666 557 666 604.5 622 c 128,-1,48
 652 578 652 578 652 510 c 0,49,50
 652 465 652 465 633 432.5 c 128,-1,51
 614 400 614 400 585 378 c 128,-1,52
 556 356 556 356 524 342 c 1,53,54
 580 331 580 331 614 301 c 1,55,56
 630 294 630 294 648.5 289.5 c 128,-1,57
 667 285 667 285 689 285 c 0,58,59
 715 285 715 285 734 289 c 128,-1,60
 753 293 753 293 769 301 c 1,61,-1
 769 694 l 1,62,63
 801 706 801 706 818 726 c 128,-1,64
 835 746 835 746 835 769 c 0,65,66
 835 796 835 796 814.5 811 c 128,-1,67
 794 826 794 826 759 826 c 256,68,69
 724 826 724 826 680 811.5 c 128,-1,70
 636 797 636 797 587 782 c 128,-1,71
 538 767 538 767 489 767 c 0,72,73
 449 767 449 767 408.5 785 c 128,-1,74
 368 803 368 803 345 853 c 1,75,-1
 411 894 l 1,76,77
 428 865 428 865 451 853 c 128,-1,78
 474 841 474 841 501 841 c 0,79,80
 527 841 527 841 560 849.5 c 128,-1,81
 593 858 593 858 630 870 c 128,-1,82
 667 882 667 882 705 890.5 c 128,-1,83
 743 899 743 899 778 899 c 0,84,85
 841 899 841 899 877.5 867 c 128,-1,86
 914 835 914 835 914 785 c 0,87,88
 914 719 914 719 847 679 c 1,89,-1
 847 0 l 1,90,-1
 769 0 l 1,91,-1
 769 230 l 1,92,93
 754 223 754 223 735.5 219 c 128,-1,94
 717 215 717 215 689 215 c 0,95,96
 674 215 674 215 660 218 c 1,97,98
 663 202 663 202 663 184 c 0,99,100
 663 100 663 100 594.5 46 c 128,-1,101
 526 -8 526 -8 400 -8 c 0,0,1
EndSplineSet
EndChar

StartChar: uni0B15
Encoding: 2837 2837 20
Width: 752
GlyphClass: 2
Flags: W
AnchorPoint: "+BBEENQQ3BEsEPARPBD0EPQQ+BDUA--4" 574 0 basechar 0
AnchorPoint: "+BBEENQQ3BEsEPARPBD0EPQQ+BDUA--3" 496 0 basechar 0
AnchorPoint: "+BBEENQQ3BEsEPARPBD0EPQQ+BDUA--1" 367 658 basechar 0
AnchorPoint: "+BBEENQQ3BEsEPARPBD0EPQQ+BDUA--0" 624 658 basechar 0
LayerCount: 2
Fore
SplineSet
244 74 m 0,0,1
 184 74 184 74 149 113 c 128,-1,2
 114 152 114 152 114 213 c 0,3,4
 114 223 114 223 115 231 c 1,5,6
 73 272 73 272 52.5 316.5 c 128,-1,7
 32 361 32 361 32 411 c 0,8,9
 32 488 32 488 77 545.5 c 128,-1,10
 122 603 122 603 198 634.5 c 128,-1,11
 274 666 274 666 367 666 c 0,12,13
 434 666 434 666 497 649 c 128,-1,14
 560 632 560 632 610.5 598 c 128,-1,15
 661 564 661 564 690.5 513 c 128,-1,16
 720 462 720 462 720 395 c 0,17,18
 720 353 720 353 707.5 316.5 c 128,-1,19
 695 280 695 280 671 250 c 1,20,-1
 600 281 l 1,21,22
 619 304 619 304 629.5 333 c 128,-1,23
 640 362 640 362 640 395 c 0,24,25
 640 445 640 445 617 482 c 128,-1,26
 594 519 594 519 555 543.5 c 128,-1,27
 516 568 516 568 467 580.5 c 128,-1,28
 418 593 418 593 367 593 c 0,29,30
 294 593 294 593 235.5 570 c 128,-1,31
 177 547 177 547 142.5 504 c 128,-1,32
 108 461 108 461 108 403 c 0,33,34
 108 349 108 349 140 302 c 1,35,36
 157 327 157 327 184 341 c 128,-1,37
 211 355 211 355 245 355 c 0,38,39
 281 355 281 355 308 340 c 128,-1,40
 335 325 335 325 352 299 c 1,41,42
 380 355 380 355 452 355 c 0,43,44
 515 355 515 355 544.5 320 c 128,-1,45
 574 285 574 285 574 222 c 2,46,-1
 574 0 l 1,47,-1
 496 0 l 1,48,-1
 496 216 l 2,49,50
 496 253 496 253 481 273.5 c 128,-1,51
 466 294 466 294 440 294 c 0,52,53
 412 294 412 294 397 273 c 128,-1,54
 382 252 382 252 382 216 c 2,55,-1
 382 0 l 1,56,-1
 304 0 l 1,57,-1
 309 90 l 1,58,59
 280 74 280 74 244 74 c 0,0,1
245 135 m 0,60,61
 275 135 275 135 293.5 158 c 128,-1,62
 312 181 312 181 312 215 c 0,63,64
 312 248 312 248 293.5 270.5 c 128,-1,65
 275 293 275 293 245 293 c 0,66,67
 214 293 214 293 196 270 c 128,-1,68
 178 247 178 247 178 214 c 256,69,70
 178 181 178 181 196 158 c 128,-1,71
 214 135 214 135 245 135 c 0,60,61
EndSplineSet
Substitution2: "Single Substitution lookup 10 subtable" uni0B15.base
Substitution2: "'aalt' +BBIEQQQ1 +BDAEOwRMBEIENQRABD0EMARCBDgEMgQ9BEsENQAA +BDIEMARABDgEMAQ9BEIESwAA in Oriya2 lookup 0 subtable" uni0B15.base
EndChar

StartChar: uni0B16
Encoding: 2838 2838 21
Width: 741
GlyphClass: 2
Flags: W
AnchorPoint: "+BBEENQQ3BEsEPARPBD0EPQQ+BDUA--4" 680 0 basechar 0
AnchorPoint: "+BBEENQQ3BEsEPARPBD0EPQQ+BDUA--3" 602 0 basechar 0
AnchorPoint: "+BBEENQQ3BEsEPARPBD0EPQQ+BDUA--1" 376 658 basechar 0
AnchorPoint: "+BBEENQQ3BEsEPARPBD0EPQQ+BDUA--0" 641 658 basechar 0
LayerCount: 2
Fore
SplineSet
312 -8 m 256,0,1
 262 -8 262 -8 219.5 13 c 128,-1,2
 177 34 177 34 151.5 75 c 128,-1,3
 126 116 126 116 126 174 c 0,4,5
 126 195 126 195 130 215 c 1,6,7
 84 253 84 253 58 302.5 c 128,-1,8
 32 352 32 352 32 411 c 0,9,10
 32 478 32 478 67.5 536.5 c 128,-1,11
 103 595 103 595 179 630.5 c 128,-1,12
 255 666 255 666 376 666 c 2,13,-1
 421 666 l 1,14,-1
 457 626 l 1,15,16
 416 575 416 575 416 524 c 0,17,18
 416 486 416 486 442.5 460.5 c 128,-1,19
 469 435 469 435 522 435 c 0,20,21
 548 435 548 435 568.5 441 c 128,-1,22
 589 447 589 447 602 456 c 1,23,-1
 602 658 l 1,24,-1
 680 658 l 1,25,-1
 680 0 l 1,26,-1
 602 0 l 1,27,-1
 602 385 l 1,28,29
 566 370 566 370 518 370 c 0,30,31
 439 370 439 370 391.5 410.5 c 128,-1,32
 344 451 344 451 344 519 c 0,33,34
 344 558 344 558 360 593 c 1,35,36
 268 591 268 591 212.5 564 c 128,-1,37
 157 537 157 537 132.5 494 c 128,-1,38
 108 451 108 451 108 403 c 0,39,40
 108 368 108 368 121 336 c 128,-1,41
 134 304 134 304 156 278 c 1,42,43
 181 316 181 316 222.5 335.5 c 128,-1,44
 264 355 264 355 312 355 c 0,45,46
 362 355 362 355 404.5 334 c 128,-1,47
 447 313 447 313 473 272.5 c 128,-1,48
 499 232 499 232 499 174 c 256,49,50
 499 116 499 116 473 75 c 128,-1,51
 447 34 447 34 404.5 13 c 128,-1,52
 362 -8 362 -8 312 -8 c 256,0,1
313 57 m 256,53,54
 358 57 358 57 392.5 86.5 c 128,-1,55
 427 116 427 116 427 174 c 0,56,57
 427 231 427 231 392 260 c 128,-1,58
 357 289 357 289 313 289 c 0,59,60
 268 289 268 289 233.5 260 c 128,-1,61
 199 231 199 231 199 174 c 0,62,63
 199 116 199 116 233.5 86.5 c 128,-1,64
 268 57 268 57 313 57 c 256,53,54
EndSplineSet
Substitution2: "Single Substitution lookup 10 subtable" uni0B16.base
Substitution2: "'aalt' +BBIEQQQ1 +BDAEOwRMBEIENQRABD0EMARCBDgEMgQ9BEsENQAA +BDIEMARABDgEMAQ9BEIESwAA in Oriya2 lookup 0 subtable" uni0B16.base
EndChar

StartChar: uni0B17
Encoding: 2839 2839 22
Width: 741
GlyphClass: 2
Flags: W
AnchorPoint: "+BBEENQQ3BEsEPARPBD0EPQQ+BDUA--4" 679 0 basechar 0
AnchorPoint: "+BBEENQQ3BEsEPARPBD0EPQQ+BDUA--3" 601 0 basechar 0
AnchorPoint: "+BBEENQQ3BEsEPARPBD0EPQQ+BDUA--1" 336 658 basechar 0
AnchorPoint: "+BBEENQQ3BEsEPARPBD0EPQQ+BDUA--0" 640 658 basechar 0
LayerCount: 2
Fore
SplineSet
311 -8 m 256,0,1
 256 -8 256 -8 214.5 15.5 c 128,-1,2
 173 39 173 39 149.5 80 c 128,-1,3
 126 121 126 121 126 174 c 0,4,5
 126 195 126 195 130 214 c 1,6,7
 79 253 79 253 55.5 303.5 c 128,-1,8
 32 354 32 354 32 410 c 0,9,10
 32 473 32 473 57.5 520.5 c 128,-1,11
 83 568 83 568 126 600.5 c 128,-1,12
 169 633 169 633 223 649.5 c 128,-1,13
 277 666 277 666 335 666 c 0,14,15
 411 666 411 666 483 637 c 128,-1,16
 555 608 555 608 604 549 c 1,17,-1
 601 658 l 1,18,-1
 679 658 l 1,19,-1
 679 0 l 1,20,-1
 601 0 l 1,21,-1
 601 419 l 1,22,23
 585 476 585 476 545.5 515 c 128,-1,24
 506 554 506 554 454 573.5 c 128,-1,25
 402 593 402 593 346 593 c 0,26,27
 285 593 285 593 230.5 571 c 128,-1,28
 176 549 176 549 142 506 c 128,-1,29
 108 463 108 463 108 401 c 0,30,31
 108 329 108 329 155 277 c 1,32,33
 179 313 179 313 219.5 334 c 128,-1,34
 260 355 260 355 311 355 c 0,35,36
 366 355 366 355 408.5 331.5 c 128,-1,37
 451 308 451 308 475 267 c 128,-1,38
 499 226 499 226 499 174 c 0,39,40
 499 121 499 121 475 80 c 128,-1,41
 451 39 451 39 408.5 15.5 c 128,-1,42
 366 -8 366 -8 311 -8 c 256,0,1
312 57 m 256,43,44
 363 57 363 57 395 89 c 128,-1,45
 427 121 427 121 427 174 c 0,46,47
 427 225 427 225 395.5 257 c 128,-1,48
 364 289 364 289 312 289 c 256,49,50
 260 289 260 289 229 257 c 128,-1,51
 198 225 198 225 198 174 c 0,52,53
 198 122 198 122 229.5 89.5 c 128,-1,54
 261 57 261 57 312 57 c 256,43,44
EndSplineSet
Substitution2: "Single Substitution lookup 10 subtable" uni0B17.base
Substitution2: "'aalt' +BBIEQQQ1 +BDAEOwRMBEIENQRABD0EMARCBDgEMgQ9BEsENQAA +BDIEMARABDgEMAQ9BEIESwAA in Oriya2 lookup 0 subtable" uni0B17.base
EndChar

StartChar: uni0B18
Encoding: 2840 2840 23
Width: 741
GlyphClass: 2
Flags: W
AnchorPoint: "+BBEENQQ3BEsEPARPBD0EPQQ+BDUA--4" 679 0 basechar 0
AnchorPoint: "+BBEENQQ3BEsEPARPBD0EPQQ+BDUA--3" 601 0 basechar 0
AnchorPoint: "+BBEENQQ3BEsEPARPBD0EPQQ+BDUA--1" 336 658 basechar 0
AnchorPoint: "+BBEENQQ3BEsEPARPBD0EPQQ+BDUA--0" 640 658 basechar 0
LayerCount: 2
Fore
SplineSet
283 -8 m 0,0,1
 238 -8 238 -8 202.5 12.5 c 128,-1,2
 167 33 167 33 146.5 70 c 128,-1,3
 126 107 126 107 126 156 c 0,4,5
 126 184 126 184 133 212 c 1,6,7
 83 249 83 249 57.5 300.5 c 128,-1,8
 32 352 32 352 32 411 c 0,9,10
 32 486 32 486 71 543.5 c 128,-1,11
 110 601 110 601 177.5 633.5 c 128,-1,12
 245 666 245 666 332 666 c 0,13,14
 414 666 414 666 485.5 636 c 128,-1,15
 557 606 557 606 604 549 c 1,16,-1
 601 658 l 1,17,-1
 679 658 l 1,18,-1
 679 0 l 1,19,-1
 601 0 l 1,20,-1
 604 44 l 1,21,22
 587 18 587 18 562.5 5 c 128,-1,23
 538 -8 538 -8 512 -8 c 0,24,25
 482 -8 482 -8 453.5 9.5 c 128,-1,26
 425 27 425 27 410 62 c 1,27,28
 392 27 392 27 357.5 9.5 c 128,-1,29
 323 -8 323 -8 283 -8 c 0,0,1
445 164 m 2,30,31
 445 110 445 110 470 83.5 c 128,-1,32
 495 57 495 57 526 57 c 0,33,34
 556 57 556 57 578.5 80.5 c 128,-1,35
 601 104 601 104 601 149 c 2,36,-1
 601 419 l 1,37,38
 585 476 585 476 545.5 515 c 128,-1,39
 506 554 506 554 453 573.5 c 128,-1,40
 400 593 400 593 342 593 c 0,41,42
 274 593 274 593 221 568 c 128,-1,43
 168 543 168 543 138 499.5 c 128,-1,44
 108 456 108 456 108 400 c 0,45,46
 108 327 108 327 159 274 c 1,47,48
 181 311 181 311 217 341.5 c 128,-1,49
 253 372 253 372 303 392 c 1,50,-1
 327 336 l 1,51,52
 261 308 261 308 229.5 258 c 128,-1,53
 198 208 198 208 198 161 c 0,54,55
 198 116 198 116 223 86.5 c 128,-1,56
 248 57 248 57 289 57 c 0,57,58
 327 57 327 57 354 83.5 c 128,-1,59
 381 110 381 110 381 164 c 2,60,-1
 381 234 l 1,61,-1
 445 234 l 1,62,-1
 445 164 l 2,30,31
EndSplineSet
Substitution2: "Single Substitution lookup 10 subtable" uni0B18.base
Substitution2: "'aalt' +BBIEQQQ1 +BDAEOwRMBEIENQRABD0EMARCBDgEMgQ9BEsENQAA +BDIEMARABDgEMAQ9BEIESwAA in Oriya2 lookup 0 subtable" uni0B18.base
EndChar

StartChar: uni0B19
Encoding: 2841 2841 24
Width: 750
GlyphClass: 2
Flags: W
AnchorPoint: "+BBEENQQ3BEsEPARPBD0EPQQ+BDUA--4" 632 0 basechar 0
AnchorPoint: "+BBEENQQ3BEsEPARPBD0EPQQ+BDUA--3" 335 0 basechar 0
AnchorPoint: "+BBEENQQ3BEsEPARPBD0EPQQ+BDUA--1" 347 658 basechar 0
AnchorPoint: "+BBEENQQ3BEsEPARPBD0EPQQ+BDUA--0" 591 658 basechar 0
LayerCount: 2
Fore
SplineSet
348 -8 m 0,0,1
 292 -8 292 -8 247 13.5 c 128,-1,2
 202 35 202 35 175.5 75 c 128,-1,3
 149 115 149 115 149 170 c 0,4,5
 149 188 149 188 152 205 c 1,6,7
 91 244 91 244 61.5 299.5 c 128,-1,8
 32 355 32 355 32 416 c 0,9,10
 32 482 32 482 68.5 539 c 128,-1,11
 105 596 105 596 175 631 c 128,-1,12
 245 666 245 666 346 666 c 256,13,14
 447 666 447 666 526 629 c 1,15,16
 560 658 560 658 612 658 c 0,17,18
 674 658 674 658 707 618.5 c 128,-1,19
 740 579 740 579 740 525 c 0,20,21
 740 490 740 490 725.5 459.5 c 128,-1,22
 711 429 711 429 682.5 410.5 c 128,-1,23
 654 392 654 392 612 392 c 0,24,25
 556 392 556 392 518.5 426.5 c 128,-1,26
 481 461 481 461 481 524 c 0,27,28
 481 550 481 550 489 572 c 1,29,30
 458 586 458 586 424.5 593.5 c 128,-1,31
 391 601 391 601 352 601 c 0,32,33
 272 601 272 601 217.5 573.5 c 128,-1,34
 163 546 163 546 135.5 502 c 128,-1,35
 108 458 108 458 108 408 c 0,36,37
 108 371 108 371 123.5 333.5 c 128,-1,38
 139 296 139 296 172 269 c 1,39,40
 188 302 188 302 217 335 c 128,-1,41
 246 368 246 368 291 398 c 1,42,-1
 326 352 l 1,43,44
 271 308 271 308 248 261.5 c 128,-1,45
 225 215 225 215 225 177 c 0,46,47
 225 122 225 122 262.5 91.5 c 128,-1,48
 300 61 300 61 353 61 c 0,49,50
 384 61 384 61 412 71.5 c 128,-1,51
 440 82 440 82 458 103 c 128,-1,52
 476 124 476 124 476 156 c 0,53,54
 476 207 476 207 424 244 c 1,55,-1
 368 186 l 1,56,-1
 327 227 l 1,57,-1
 479 386 l 1,58,-1
 520 345 l 1,59,-1
 471 293 l 1,60,61
 512 266 512 266 530 230.5 c 128,-1,62
 548 195 548 195 548 157 c 0,63,64
 548 103 548 103 519.5 66.5 c 128,-1,65
 491 30 491 30 445 11 c 128,-1,66
 399 -8 399 -8 348 -8 c 0,0,1
612 448 m 0,67,68
 645 448 645 448 661.5 472 c 128,-1,69
 678 496 678 496 678 525 c 0,70,71
 678 555 678 555 661.5 578.5 c 128,-1,72
 645 602 645 602 612 602 c 0,73,74
 584 602 584 602 563.5 582 c 128,-1,75
 543 562 543 562 543 524 c 0,76,77
 543 487 543 487 563.5 467.5 c 128,-1,78
 584 448 584 448 612 448 c 0,67,68
EndSplineSet
Substitution2: "Single Substitution lookup 10 subtable" uni0B19.base
Substitution2: "'aalt' +BBIEQQQ1 +BDAEOwRMBEIENQRABD0EMARCBDgEMgQ9BEsENQAA +BDIEMARABDgEMAQ9BEIESwAA in Oriya2 lookup 0 subtable" uni0B19.base
EndChar

StartChar: uni0B1A
Encoding: 2842 2842 25
Width: 698
GlyphClass: 2
Flags: W
AnchorPoint: "+BBEENQQ3BEsEPARPBD0EPQQ+BDUA--4" 631 0 basechar 0
AnchorPoint: "+BBEENQQ3BEsEPARPBD0EPQQ+BDUA--3" 297 0 basechar 0
AnchorPoint: "+BBEENQQ3BEsEPARPBD0EPQQ+BDUA--1" 343 658 basechar 0
AnchorPoint: "+BBEENQQ3BEsEPARPBD0EPQQ+BDUA--0" 570 658 basechar 0
LayerCount: 2
Fore
SplineSet
312 -8 m 0,0,1
 259 -8 259 -8 217 14.5 c 128,-1,2
 175 37 175 37 150.5 78 c 128,-1,3
 126 119 126 119 126 174 c 0,4,5
 126 195 126 195 130 215 c 1,6,7
 78 255 78 255 55 306 c 128,-1,8
 32 357 32 357 32 413 c 0,9,10
 32 477 32 477 58.5 524.5 c 128,-1,11
 85 572 85 572 129 603.5 c 128,-1,12
 173 635 173 635 229 650.5 c 128,-1,13
 285 666 285 666 343 666 c 0,14,15
 404 666 404 666 461.5 649 c 128,-1,16
 519 632 519 632 565 598 c 128,-1,17
 611 564 611 564 638.5 513 c 128,-1,18
 666 462 666 462 666 394 c 0,19,20
 666 349 666 349 651.5 309 c 128,-1,21
 637 269 637 269 612 237 c 1,22,-1
 542 273 l 1,23,24
 563 298 563 298 574.5 329 c 128,-1,25
 586 360 586 360 586 395 c 0,26,27
 586 461 586 461 551 505 c 128,-1,28
 516 549 516 549 460.5 571 c 128,-1,29
 405 593 405 593 344 593 c 0,30,31
 281 593 281 593 227.5 571 c 128,-1,32
 174 549 174 549 141 506.5 c 128,-1,33
 108 464 108 464 108 403 c 0,34,35
 108 331 108 331 156 278 c 1,36,37
 180 314 180 314 221 334.5 c 128,-1,38
 262 355 262 355 312 355 c 0,39,40
 363 355 363 355 405.5 332.5 c 128,-1,41
 448 310 448 310 473.5 269.5 c 128,-1,42
 499 229 499 229 499 174 c 256,43,44
 499 119 499 119 473.5 78 c 128,-1,45
 448 37 448 37 405.5 14.5 c 128,-1,46
 363 -8 363 -8 312 -8 c 0,0,1
312 57 m 256,47,48
 361 57 361 57 394 89 c 128,-1,49
 427 121 427 121 427 174 c 0,50,51
 427 226 427 226 394.5 257.5 c 128,-1,52
 362 289 362 289 312 289 c 256,53,54
 262 289 262 289 230 257.5 c 128,-1,55
 198 226 198 226 198 174 c 0,56,57
 198 121 198 121 230.5 89 c 128,-1,58
 263 57 263 57 312 57 c 256,47,48
EndSplineSet
Substitution2: "Single Substitution lookup 10 subtable" uni0B1A.base
Substitution2: "'aalt' +BBIEQQQ1 +BDAEOwRMBEIENQRABD0EMARCBDgEMgQ9BEsENQAA +BDIEMARABDgEMAQ9BEIESwAA in Oriya2 lookup 0 subtable" uni0B1A.base
EndChar

StartChar: uni0B1B
Encoding: 2843 2843 26
Width: 717
GlyphClass: 2
Flags: W
AnchorPoint: "+BBEENQQ3BEsEPARPBD0EPQQ+BDUA--4" 599 0 basechar 0
AnchorPoint: "+BBEENQQ3BEsEPARPBD0EPQQ+BDUA--3" 494 0 basechar 0
AnchorPoint: "+BBEENQQ3BEsEPARPBD0EPQQ+BDUA--1" 352 658 basechar 0
AnchorPoint: "+BBEENQQ3BEsEPARPBD0EPQQ+BDUA--0" 590 658 basechar 0
LayerCount: 2
Fore
SplineSet
173 -8 m 0,0,1
 119 -8 119 -8 88.5 25 c 128,-1,2
 58 58 58 58 58 104 c 0,3,4
 58 132 58 132 70 156 c 128,-1,5
 82 180 82 180 107 194 c 1,6,7
 89 197 89 197 70.5 199 c 128,-1,8
 52 201 52 201 33 203 c 1,9,-1
 38 258 l 1,10,11
 75 254 75 254 111 245.5 c 128,-1,12
 147 237 147 237 182 225 c 1,13,14
 171 250 171 250 168 278 c 1,15,16
 102 301 102 301 67 348.5 c 128,-1,17
 32 396 32 396 32 454 c 0,18,19
 32 521 32 521 75 568.5 c 128,-1,20
 118 616 118 616 190.5 641 c 128,-1,21
 263 666 263 666 352 666 c 0,22,23
 447 666 447 666 522.5 638.5 c 128,-1,24
 598 611 598 611 641.5 558.5 c 128,-1,25
 685 506 685 506 685 432 c 0,26,27
 685 409 685 409 680.5 385 c 128,-1,28
 676 361 676 361 666 337 c 1,29,-1
 595 358 l 1,30,31
 601 373 601 373 605 389.5 c 128,-1,32
 609 406 609 406 609 424 c 0,33,34
 609 479 609 479 573.5 517.5 c 128,-1,35
 538 556 538 556 479.5 576.5 c 128,-1,36
 421 597 421 597 351 597 c 0,37,38
 280 597 280 597 225 577 c 128,-1,39
 170 557 170 557 139 522 c 128,-1,40
 108 487 108 487 108 441 c 0,41,42
 108 408 108 408 124.5 379.5 c 128,-1,43
 141 351 141 351 171 332 c 1,44,45
 184 389 184 389 232 424.5 c 128,-1,46
 280 460 280 460 352 460 c 0,47,48
 434 460 434 460 484 413 c 128,-1,49
 534 366 534 366 534 291 c 0,50,51
 534 250 534 250 517 216 c 1,52,53
 520 216 520 216 523 216 c 0,54,55
 584 216 584 216 615.5 183 c 128,-1,56
 647 150 647 150 647 103 c 256,57,58
 647 56 647 56 616 24 c 128,-1,59
 585 -8 585 -8 531 -8 c 0,60,61
 494 -8 494 -8 449 11.5 c 128,-1,62
 404 31 404 31 354 75 c 1,63,64
 309 35 309 35 263 13.5 c 128,-1,65
 217 -8 217 -8 173 -8 c 0,0,1
351 173 m 256,66,67
 399 173 399 173 433 200.5 c 128,-1,68
 467 228 467 228 467 282 c 0,69,70
 467 333 467 333 433 363.5 c 128,-1,71
 399 394 399 394 350 394 c 256,72,73
 301 394 301 394 267.5 364 c 128,-1,74
 234 334 234 334 234 285 c 0,75,76
 234 230 234 230 268.5 201.5 c 128,-1,77
 303 173 303 173 351 173 c 256,66,67
183 49 m 0,78,79
 239 49 239 49 305 105 c 1,80,81
 279 129 279 129 248 146 c 128,-1,82
 217 163 217 163 185 163 c 0,83,84
 156 163 156 163 138.5 147.5 c 128,-1,85
 121 132 121 132 121 107 c 256,86,87
 121 82 121 82 138 65.5 c 128,-1,88
 155 49 155 49 183 49 c 0,78,79
521 49 m 0,89,90
 549 49 549 49 566.5 65.5 c 128,-1,91
 584 82 584 82 584 107 c 256,92,93
 584 132 584 132 566.5 147.5 c 128,-1,94
 549 163 549 163 515 163 c 0,95,96
 489 163 489 163 465.5 151 c 128,-1,97
 442 139 442 139 400 105 c 1,98,99
 435 76 435 76 466.5 62.5 c 128,-1,100
 498 49 498 49 521 49 c 0,89,90
EndSplineSet
Substitution2: "Single Substitution lookup 10 subtable" uni0B1B.base
Substitution2: "'aalt' +BBIEQQQ1 +BDAEOwRMBEIENQRABD0EMARCBDgEMgQ9BEsENQAA +BDIEMARABDgEMAQ9BEIESwAA in Oriya2 lookup 0 subtable" uni0B1B.base
EndChar

StartChar: uni0B1C
Encoding: 2844 2844 27
Width: 752
GlyphClass: 2
Flags: W
AnchorPoint: "+BBEENQQ3BEsEPARPBD0EPQQ+BDUA--4" 574 0 basechar 0
AnchorPoint: "+BBEENQQ3BEsEPARPBD0EPQQ+BDUA--3" 496 0 basechar 0
AnchorPoint: "+BBEENQQ3BEsEPARPBD0EPQQ+BDUA--1" 367 658 basechar 0
AnchorPoint: "+BBEENQQ3BEsEPARPBD0EPQQ+BDUA--0" 624 658 basechar 0
LayerCount: 2
Fore
SplineSet
292 -8 m 0,0,1
 212 -8 212 -8 162 32.5 c 128,-1,2
 112 73 112 73 112 159 c 0,3,4
 112 194 112 194 121 226 c 1,5,6
 75 267 75 267 53.5 313.5 c 128,-1,7
 32 360 32 360 32 411 c 0,8,9
 32 488 32 488 77 545.5 c 128,-1,10
 122 603 122 603 198 634.5 c 128,-1,11
 274 666 274 666 367 666 c 0,12,13
 434 666 434 666 497 649 c 128,-1,14
 560 632 560 632 610.5 598 c 128,-1,15
 661 564 661 564 690.5 513 c 128,-1,16
 720 462 720 462 720 395 c 0,17,18
 720 353 720 353 707.5 316.5 c 128,-1,19
 695 280 695 280 671 250 c 1,20,-1
 600 281 l 1,21,22
 619 304 619 304 629.5 333 c 128,-1,23
 640 362 640 362 640 395 c 0,24,25
 640 445 640 445 617 482 c 128,-1,26
 594 519 594 519 555 543.5 c 128,-1,27
 516 568 516 568 467 580.5 c 128,-1,28
 418 593 418 593 367 593 c 0,29,30
 294 593 294 593 235.5 570 c 128,-1,31
 177 547 177 547 142.5 504 c 128,-1,32
 108 461 108 461 108 403 c 0,33,34
 108 341 108 341 149 289 c 1,35,36
 169 320 169 320 197 346.5 c 128,-1,37
 225 373 225 373 261 397 c 1,38,-1
 291 354 l 1,39,40
 184 265 184 265 184 161 c 0,41,42
 184 109 184 109 214 81 c 128,-1,43
 244 53 244 53 294 53 c 0,44,45
 312 53 312 53 328 57 c 1,46,47
 318 88 318 88 312.5 117.5 c 128,-1,48
 307 147 307 147 307 181 c 0,49,50
 307 257 307 257 340.5 306 c 128,-1,51
 374 355 374 355 450 355 c 0,52,53
 509 355 509 355 541.5 323.5 c 128,-1,54
 574 292 574 292 574 228 c 2,55,-1
 574 0 l 1,56,-1
 496 0 l 1,57,-1
 496 218 l 2,58,59
 496 257 496 257 481 275.5 c 128,-1,60
 466 294 466 294 440 294 c 0,61,62
 375 294 375 294 375 180 c 0,63,64
 375 136 375 136 384 92.5 c 128,-1,65
 393 49 393 49 405 12 c 1,66,67
 352 -8 352 -8 292 -8 c 0,0,1
EndSplineSet
Substitution2: "Single Substitution lookup 10 subtable" uni0B1C.base
Substitution2: "'aalt' +BBIEQQQ1 +BDAEOwRMBEIENQRABD0EMARCBDgEMgQ9BEsENQAA +BDIEMARABDgEMAQ9BEIESwAA in Oriya2 lookup 0 subtable" uni0B1C.base
EndChar

StartChar: uni0B1D
Encoding: 2845 2845 28
Width: 698
GlyphClass: 2
Flags: W
AnchorPoint: "+BBEENQQ3BEsEPARPBD0EPQQ+BDUA--4" 533 0 basechar 0
AnchorPoint: "+BBEENQQ3BEsEPARPBD0EPQQ+BDUA--3" 299 0 basechar 0
AnchorPoint: "+BBEENQQ3BEsEPARPBD0EPQQ+BDUA--1" 370 658 basechar 0
AnchorPoint: "+BBEENQQ3BEsEPARPBD0EPQQ+BDUA--0" 589 658 basechar 0
LayerCount: 2
Fore
SplineSet
312 -8 m 0,0,1
 262 -8 262 -8 219.5 13 c 128,-1,2
 177 34 177 34 151.5 75 c 128,-1,3
 126 116 126 116 126 174 c 0,4,5
 126 195 126 195 130 215 c 1,6,7
 84 253 84 253 58 302.5 c 128,-1,8
 32 352 32 352 32 412 c 0,9,10
 32 479 32 479 68.5 536.5 c 128,-1,11
 105 594 105 594 182.5 630 c 128,-1,12
 260 666 260 666 383 666 c 2,13,-1
 421 666 l 1,14,-1
 457 626 l 1,15,16
 436 600 436 600 426 573 c 128,-1,17
 416 546 416 546 416 523 c 0,18,19
 416 485 416 485 440.5 460 c 128,-1,20
 465 435 465 435 516 435 c 0,21,22
 568 435 568 435 592.5 460 c 128,-1,23
 617 485 617 485 617 523 c 0,24,25
 617 547 617 547 606 573.5 c 128,-1,26
 595 600 595 600 572 626 c 1,27,-1
 612 666 l 1,28,29
 650 632 650 632 669 591 c 128,-1,30
 688 550 688 550 688 511 c 0,31,32
 688 454 688 454 646 412 c 128,-1,33
 604 370 604 370 516 370 c 0,34,35
 458 370 458 370 420 389.5 c 128,-1,36
 382 409 382 409 363.5 441 c 128,-1,37
 345 473 345 473 345 511 c 0,38,39
 345 552 345 552 365 593 c 1,40,-1
 365 593 l 1,41,42
 275 593 275 593 218.5 565.5 c 128,-1,43
 162 538 162 538 135 494.5 c 128,-1,44
 108 451 108 451 108 402 c 0,45,46
 108 367 108 367 121 335.5 c 128,-1,47
 134 304 134 304 156 278 c 1,48,49
 181 316 181 316 222.5 335.5 c 128,-1,50
 264 355 264 355 312 355 c 0,51,52
 362 355 362 355 404.5 334 c 128,-1,53
 447 313 447 313 473 272.5 c 128,-1,54
 499 232 499 232 499 174 c 0,55,56
 499 153 499 153 496 135 c 1,57,-1
 650 65 l 1,58,-1
 618 -8 l 1,59,-1
 468 68 l 1,60,61
 443 31 443 31 401.5 11.5 c 128,-1,62
 360 -8 360 -8 312 -8 c 0,0,1
313 57 m 256,63,64
 358 57 358 57 392.5 86.5 c 128,-1,65
 427 116 427 116 427 174 c 0,66,67
 427 231 427 231 392 260 c 128,-1,68
 357 289 357 289 313 289 c 0,69,70
 268 289 268 289 233.5 260 c 128,-1,71
 199 231 199 231 199 174 c 0,72,73
 199 116 199 116 233.5 86.5 c 128,-1,74
 268 57 268 57 313 57 c 256,63,64
EndSplineSet
Substitution2: "Single Substitution lookup 10 subtable" uni0B1D.base
Substitution2: "'aalt' +BBIEQQQ1 +BDAEOwRMBEIENQRABD0EMARCBDgEMgQ9BEsENQAA +BDIEMARABDgEMAQ9BEIESwAA in Oriya2 lookup 0 subtable" uni0B1D.base
EndChar

StartChar: uni0B1E
Encoding: 2846 2846 29
Width: 738
GlyphClass: 2
Flags: W
AnchorPoint: "+BBEENQQ3BEsEPARPBD0EPQQ+BDUA--4" 677 0 basechar 0
AnchorPoint: "+BBEENQQ3BEsEPARPBD0EPQQ+BDUA--3" 404 0 basechar 0
AnchorPoint: "+BBEENQQ3BEsEPARPBD0EPQQ+BDUA--1" 368 658 basechar 0
AnchorPoint: "+BBEENQQ3BEsEPARPBD0EPQQ+BDUA--0" 601 658 basechar 0
LayerCount: 2
Fore
SplineSet
373 -8 m 0,0,1
 199 -8 199 -8 117.5 60.5 c 128,-1,2
 36 129 36 129 36 243 c 0,3,4
 36 332 36 332 95 411 c 1,5,6
 54 462 54 462 54 533 c 0,7,8
 54 603 54 603 89 662 c 1,9,-1
 157 640 l 1,10,11
 146 616 146 616 138 591 c 128,-1,12
 130 566 130 566 130 537 c 0,13,14
 130 458 130 458 192.5 414.5 c 128,-1,15
 255 371 255 371 378 371 c 0,16,17
 493 371 493 371 550.5 409.5 c 128,-1,18
 608 448 608 448 608 520 c 0,19,20
 608 563 608 563 589.5 585 c 128,-1,21
 571 607 571 607 540 607 c 0,22,23
 512 607 512 607 493 588.5 c 128,-1,24
 474 570 474 570 474 535 c 2,25,-1
 474 453 l 1,26,-1
 409 453 l 1,27,-1
 409 530 l 2,28,29
 409 570 409 570 389.5 588.5 c 128,-1,30
 370 607 370 607 343 607 c 0,31,32
 311 607 311 607 294 587.5 c 128,-1,33
 277 568 277 568 277 538 c 0,34,35
 277 519 277 519 282.5 499.5 c 128,-1,36
 288 480 288 480 298 459 c 1,37,-1
 235 443 l 1,38,39
 221 472 221 472 214.5 498.5 c 128,-1,40
 208 525 208 525 208 546 c 0,41,42
 208 600 208 600 240.5 633 c 128,-1,43
 273 666 273 666 333 666 c 0,44,45
 368 666 368 666 396.5 652 c 128,-1,46
 425 638 425 638 441 609 c 1,47,48
 457 639 457 639 487.5 652.5 c 128,-1,49
 518 666 518 666 553 666 c 0,50,51
 617 666 617 666 650.5 627.5 c 128,-1,52
 684 589 684 589 684 524 c 0,53,54
 684 480 684 480 667 441 c 128,-1,55
 650 402 650 402 614 373 c 1,56,57
 653 358 653 358 677.5 319 c 128,-1,58
 702 280 702 280 702 221 c 0,59,60
 702 154 702 154 666 102.5 c 128,-1,61
 630 51 630 51 557 21.5 c 128,-1,62
 484 -8 484 -8 373 -8 c 0,0,1
112 243 m 0,63,64
 112 58 112 58 376 58 c 0,65,66
 498 58 498 58 562 100.5 c 128,-1,67
 626 143 626 143 626 220 c 0,68,69
 626 267 626 267 606 295 c 128,-1,70
 586 323 586 323 551 323 c 0,71,72
 522 323 522 323 500 300.5 c 128,-1,73
 478 278 478 278 478 233 c 2,74,-1
 478 160 l 1,75,-1
 413 160 l 1,76,-1
 413 231 l 2,77,78
 413 273 413 273 392.5 291.5 c 128,-1,79
 372 310 372 310 342 310 c 0,80,81
 308 310 308 310 292 290 c 128,-1,82
 276 270 276 270 276 241 c 0,83,84
 276 224 276 224 281.5 204.5 c 128,-1,85
 287 185 287 185 297 165 c 1,86,-1
 234 149 l 1,87,88
 220 177 220 177 213.5 202 c 128,-1,89
 207 227 207 227 207 249 c 0,90,91
 207 297 207 297 233 328 c 1,92,93
 184 341 184 341 148 364 c 1,94,95
 132 338 132 338 122 308.5 c 128,-1,96
 112 279 112 279 112 243 c 0,63,64
EndSplineSet
Substitution2: "Single Substitution lookup 10 subtable" uni0B1E.base
Substitution2: "'aalt' +BBIEQQQ1 +BDAEOwRMBEIENQRABD0EMARCBDgEMgQ9BEsENQAA +BDIEMARABDgEMAQ9BEIESwAA in Oriya2 lookup 0 subtable" uni0B1E.base
EndChar

StartChar: uni0B1F
Encoding: 2847 2847 30
Width: 701
GlyphClass: 2
Flags: W
AnchorPoint: "+BBEENQQ3BEsEPARPBD0EPQQ+BDUA--4" 639 0 basechar 0
AnchorPoint: "+BBEENQQ3BEsEPARPBD0EPQQ+BDUA--3" 296 0 basechar 0
AnchorPoint: "+BBEENQQ3BEsEPARPBD0EPQQ+BDUA--1" 323 658 basechar 0
AnchorPoint: "+BBEENQQ3BEsEPARPBD0EPQQ+BDUA--0" 600 658 basechar 0
LayerCount: 2
Fore
SplineSet
311 -8 m 256,0,1
 259 -8 259 -8 217 14.5 c 128,-1,2
 175 37 175 37 150.5 78 c 128,-1,3
 126 119 126 119 126 174 c 0,4,5
 126 195 126 195 130 215 c 1,6,7
 80 253 80 253 56 303 c 128,-1,8
 32 353 32 353 32 412 c 0,9,10
 32 496 32 496 73 552.5 c 128,-1,11
 114 609 114 609 180.5 637.5 c 128,-1,12
 247 666 247 666 323 666 c 0,13,14
 393 666 393 666 456.5 640 c 128,-1,15
 520 614 520 614 564 561 c 1,16,-1
 561 658 l 1,17,-1
 639 658 l 1,18,-1
 639 313 l 1,19,-1
 561 313 l 1,20,-1
 561 439 l 1,21,22
 535 517 535 517 470.5 555 c 128,-1,23
 406 593 406 593 330 593 c 0,24,25
 272 593 272 593 221.5 571.5 c 128,-1,26
 171 550 171 550 139.5 508 c 128,-1,27
 108 466 108 466 108 404 c 0,28,29
 108 367 108 367 120.5 335 c 128,-1,30
 133 303 133 303 156 278 c 1,31,32
 180 314 180 314 221 334.5 c 128,-1,33
 262 355 262 355 311 355 c 0,34,35
 363 355 363 355 405.5 332.5 c 128,-1,36
 448 310 448 310 473.5 269.5 c 128,-1,37
 499 229 499 229 499 174 c 256,38,39
 499 119 499 119 473.5 78 c 128,-1,40
 448 37 448 37 405.5 14.5 c 128,-1,41
 363 -8 363 -8 311 -8 c 256,0,1
312 57 m 256,42,43
 361 57 361 57 394 89 c 128,-1,44
 427 121 427 121 427 174 c 0,45,46
 427 226 427 226 394.5 257.5 c 128,-1,47
 362 289 362 289 312 289 c 256,48,49
 262 289 262 289 230 257.5 c 128,-1,50
 198 226 198 226 198 174 c 0,51,52
 198 121 198 121 230.5 89 c 128,-1,53
 263 57 263 57 312 57 c 256,42,43
EndSplineSet
Substitution2: "Single Substitution lookup 10 subtable" uni0B1F.base
Substitution2: "'aalt' +BBIEQQQ1 +BDAEOwRMBEIENQRABD0EMARCBDgEMgQ9BEsENQAA +BDIEMARABDgEMAQ9BEIESwAA in Oriya2 lookup 0 subtable" uni0B1F.base
EndChar

StartChar: uni0B20
Encoding: 2848 2848 31
Width: 754
GlyphClass: 2
Flags: W
AnchorPoint: "+BBEENQQ3BEsEPARPBD0EPQQ+BDUA--4" 658 0 basechar 0
AnchorPoint: "+BBEENQQ3BEsEPARPBD0EPQQ+BDUA--3" 375 0 basechar 0
AnchorPoint: "+BBEENQQ3BEsEPARPBD0EPQQ+BDUA--1" 379 658 basechar 0
AnchorPoint: "+BBEENQQ3BEsEPARPBD0EPQQ+BDUA--0" 623 658 basechar 0
LayerCount: 2
Fore
SplineSet
378 -7 m 0,0,1
 274 -7 274 -7 196.5 35 c 128,-1,2
 119 77 119 77 75.5 152 c 128,-1,3
 32 227 32 227 32 328 c 256,4,5
 32 429 32 429 75.5 505 c 128,-1,6
 119 581 119 581 197 623.5 c 128,-1,7
 275 666 275 666 379 666 c 0,8,9
 482 666 482 666 559 623.5 c 128,-1,10
 636 581 636 581 679 505 c 128,-1,11
 722 429 722 429 722 328 c 256,12,13
 722 227 722 227 679 152 c 128,-1,14
 636 77 636 77 558.5 35 c 128,-1,15
 481 -7 481 -7 378 -7 c 0,0,1
378 66 m 0,16,17
 457 66 457 66 516.5 99 c 128,-1,18
 576 132 576 132 609 191.5 c 128,-1,19
 642 251 642 251 642 331 c 0,20,21
 642 409 642 409 609.5 468 c 128,-1,22
 577 527 577 527 518 560 c 128,-1,23
 459 593 459 593 380 593 c 0,24,25
 300 593 300 593 239.5 560 c 128,-1,26
 179 527 179 527 145.5 467 c 128,-1,27
 112 407 112 407 112 328 c 256,28,29
 112 249 112 249 145.5 190 c 128,-1,30
 179 131 179 131 238.5 98.5 c 128,-1,31
 298 66 298 66 378 66 c 0,16,17
EndSplineSet
Substitution2: "Single Substitution lookup 10 subtable" uni0B20.base
Substitution2: "'aalt' +BBIEQQQ1 +BDAEOwRMBEIENQRABD0EMARCBDgEMgQ9BEsENQAA +BDIEMARABDgEMAQ9BEIESwAA in Oriya2 lookup 0 subtable" uni0B20.base
EndChar

StartChar: uni0B21
Encoding: 2849 2849 32
Width: 734
GlyphClass: 2
Flags: W
AnchorPoint: "+BBEENQQ3BEsEPARPBD0EPQQ+BDUA--4" 630 0 basechar 0
AnchorPoint: "+BBEENQQ3BEsEPARPBD0EPQQ+BDUA--3" 337 0 basechar 0
AnchorPoint: "+BBEENQQ3BEsEPARPBD0EPQQ+BDUA--2" 354 -101 basechar 0
AnchorPoint: "+BBEENQQ3BEsEPARPBD0EPQQ+BDUA--1" 364 658 basechar 0
AnchorPoint: "+BBEENQQ3BEsEPARPBD0EPQQ+BDUA--0" 606 658 basechar 0
LayerCount: 2
Fore
SplineSet
149 170 m 0,0,1
 149 188 149 188 152 205 c 1,2,3
 94 242 94 242 63 297 c 128,-1,4
 32 352 32 352 32 414 c 0,5,6
 32 485 32 485 72 542 c 128,-1,7
 112 599 112 599 186 632.5 c 128,-1,8
 260 666 260 666 364 666 c 0,9,10
 428 666 428 666 488.5 649 c 128,-1,11
 549 632 549 632 597 598.5 c 128,-1,12
 645 565 645 565 673.5 514 c 128,-1,13
 702 463 702 463 702 396 c 0,14,15
 702 348 702 348 686 306.5 c 128,-1,16
 670 265 670 265 642 232 c 1,17,-1
 574 268 l 1,18,19
 622 323 622 323 622 395 c 0,20,21
 622 461 622 461 585.5 505 c 128,-1,22
 549 549 549 549 490 571 c 128,-1,23
 431 593 431 593 365 593 c 0,24,25
 279 593 279 593 222 566.5 c 128,-1,26
 165 540 165 540 136.5 497.5 c 128,-1,27
 108 455 108 455 108 406 c 0,28,29
 108 368 108 368 125 331 c 128,-1,30
 142 294 142 294 172 269 c 1,31,32
 188 302 188 302 217 335 c 128,-1,33
 246 368 246 368 291 398 c 1,34,-1
 326 352 l 1,35,36
 271 308 271 308 248 261.5 c 128,-1,37
 225 215 225 215 225 177 c 0,38,39
 225 122 225 122 262.5 91.5 c 128,-1,40
 300 61 300 61 353 61 c 0,41,42
 384 61 384 61 412 71.5 c 128,-1,43
 440 82 440 82 458 103 c 128,-1,44
 476 124 476 124 476 156 c 0,45,46
 476 207 476 207 424 244 c 1,47,-1
 368 186 l 1,48,-1
 327 227 l 1,49,-1
 479 386 l 1,50,-1
 520 345 l 1,51,-1
 471 293 l 1,52,53
 512 266 512 266 530 230.5 c 128,-1,54
 548 195 548 195 548 157 c 0,55,56
 548 103 548 103 519.5 66.5 c 128,-1,57
 491 30 491 30 445 11 c 128,-1,58
 399 -8 399 -8 348 -8 c 0,59,60
 292 -8 292 -8 247 13.5 c 128,-1,61
 202 35 202 35 175.5 75 c 128,-1,62
 149 115 149 115 149 170 c 0,0,1
EndSplineSet
Substitution2: "Single Substitution lookup 10 subtable" uni0B21.base
Substitution2: "'aalt' +BBIEQQQ1 +BDAEOwRMBEIENQRABD0EMARCBDgEMgQ9BEsENQAA +BDIEMARABDgEMAQ9BEIESwAA in Oriya2 lookup 0 subtable" uni0B21.base
EndChar

StartChar: uni0B22
Encoding: 2850 2850 33
Width: 734
GlyphClass: 2
Flags: W
AnchorPoint: "+BBEENQQ3BEsEPARPBD0EPQQ+BDUA--4" 644 0 basechar 0
AnchorPoint: "+BBEENQQ3BEsEPARPBD0EPQQ+BDUA--3" 279 0 basechar 0
AnchorPoint: "+BBEENQQ3BEsEPARPBD0EPQQ+BDUA--2" 361 -101 basechar 0
AnchorPoint: "+BBEENQQ3BEsEPARPBD0EPQQ+BDUA--1" 365 658 basechar 0
AnchorPoint: "+BBEENQQ3BEsEPARPBD0EPQQ+BDUA--0" 606 658 basechar 0
LayerCount: 2
Fore
SplineSet
126 164 m 0,0,1
 126 191 126 191 133 218 c 1,2,3
 84 255 84 255 58 306.5 c 128,-1,4
 32 358 32 358 32 415 c 0,5,6
 32 493 32 493 75.5 549 c 128,-1,7
 119 605 119 605 193.5 635.5 c 128,-1,8
 268 666 268 666 360 666 c 0,9,10
 457 666 457 666 534 633.5 c 128,-1,11
 611 601 611 601 656.5 540.5 c 128,-1,12
 702 480 702 480 702 396 c 0,13,14
 702 349 702 349 686.5 307.5 c 128,-1,15
 671 266 671 266 643 233 c 1,16,-1
 576 270 l 1,17,18
 622 325 622 325 622 394 c 0,19,20
 622 461 622 461 585.5 505 c 128,-1,21
 549 549 549 549 489.5 571 c 128,-1,22
 430 593 430 593 361 593 c 0,23,24
 287 593 287 593 230 569.5 c 128,-1,25
 173 546 173 546 140.5 504.5 c 128,-1,26
 108 463 108 463 108 407 c 0,27,28
 108 373 108 373 121 339.5 c 128,-1,29
 134 306 134 306 158 281 c 1,30,31
 197 350 197 350 275 401 c 1,32,-1
 308 358 l 1,33,34
 259 319 259 319 228.5 269.5 c 128,-1,35
 198 220 198 220 198 171 c 0,36,37
 198 141 198 141 209.5 115 c 128,-1,38
 221 89 221 89 246.5 73 c 128,-1,39
 272 57 272 57 314 57 c 0,40,41
 341 57 341 57 366 64 c 1,42,43
 299 127 299 127 299 206 c 0,44,45
 299 259 299 259 333 292 c 128,-1,46
 367 325 367 325 421 325 c 0,47,48
 479 325 479 325 513 290.5 c 128,-1,49
 547 256 547 256 547 205 c 0,50,51
 547 169 547 169 529.5 130.5 c 128,-1,52
 512 92 512 92 479 61 c 1,53,54
 519 39 519 39 573 21 c 1,55,-1
 555 -38 l 1,56,57
 478 -12 478 -12 423 21 c 1,58,59
 397 8 397 8 366.5 0 c 128,-1,60
 336 -8 336 -8 300 -8 c 0,61,62
 240 -8 240 -8 201 16.5 c 128,-1,63
 162 41 162 41 144 80 c 128,-1,64
 126 119 126 119 126 164 c 0,0,1
366 201 m 0,65,66
 366 175 366 175 380.5 148 c 128,-1,67
 395 121 395 121 426 95 c 1,68,69
 452 116 452 116 465.5 144.5 c 128,-1,70
 479 173 479 173 479 201 c 0,71,72
 479 228 479 228 465 246.5 c 128,-1,73
 451 265 451 265 423 265 c 0,74,75
 397 265 397 265 381.5 246.5 c 128,-1,76
 366 228 366 228 366 201 c 0,65,66
EndSplineSet
Substitution2: "Single Substitution lookup 10 subtable" uni0B22.base
Substitution2: "'aalt' +BBIEQQQ1 +BDAEOwRMBEIENQRABD0EMARCBDgEMgQ9BEsENQAA +BDIEMARABDgEMAQ9BEIESwAA in Oriya2 lookup 0 subtable" uni0B22.base
EndChar

StartChar: uni0B23
Encoding: 2851 2851 34
Width: 741
GlyphClass: 2
Flags: W
AnchorPoint: "+BBEENQQ3BEsEPARPBD0EPQQ+BDUA--4" 679 0 basechar 0
AnchorPoint: "+BBEENQQ3BEsEPARPBD0EPQQ+BDUA--3" 601 0 basechar 0
AnchorPoint: "+BBEENQQ3BEsEPARPBD0EPQQ+BDUA--1" 370 658 basechar 0
AnchorPoint: "+BBEENQQ3BEsEPARPBD0EPQQ+BDUA--0" 640 658 basechar 0
LayerCount: 2
Fore
SplineSet
32 234 m 0,0,1
 32 310 32 310 72 368 c 128,-1,2
 112 426 112 426 185 450 c 1,3,4
 170 488 170 488 170 525 c 0,5,6
 170 588 170 588 216.5 627 c 128,-1,7
 263 666 263 666 346 666 c 0,8,9
 414 666 414 666 484.5 636.5 c 128,-1,10
 555 607 555 607 604 548 c 1,11,-1
 601 658 l 1,12,-1
 679 658 l 1,13,-1
 679 0 l 1,14,-1
 601 0 l 1,15,-1
 601 418 l 1,16,17
 584 479 584 479 544 519.5 c 128,-1,18
 504 560 504 560 453.5 580.5 c 128,-1,19
 403 601 403 601 355 601 c 0,20,21
 303 601 303 601 272.5 578 c 128,-1,22
 242 555 242 555 242 514 c 0,23,24
 242 490 242 490 252 464 c 1,25,26
 268 465 268 465 284 465 c 0,27,28
 316 465 316 465 351 459 c 128,-1,29
 386 453 386 453 420 440 c 1,30,-1
 401 383 l 1,31,32
 374 393 374 393 345 398.5 c 128,-1,33
 316 404 316 404 290 403 c 0,34,35
 209 403 209 403 164 361.5 c 128,-1,36
 119 320 119 320 113 256 c 1,37,38
 191 285 191 285 279 285 c 0,39,40
 382 285 382 285 441 245.5 c 128,-1,41
 500 206 500 206 500 136 c 0,42,43
 500 90 500 90 473.5 58 c 128,-1,44
 447 26 447 26 402 9 c 128,-1,45
 357 -8 357 -8 302 -8 c 0,46,47
 253 -8 253 -8 205.5 6 c 128,-1,48
 158 20 158 20 118.5 49.5 c 128,-1,49
 79 79 79 79 55.5 125 c 128,-1,50
 32 171 32 171 32 234 c 0,0,1
275 227 m 0,51,52
 235 227 235 227 192.5 219 c 128,-1,53
 150 211 150 211 115 198 c 1,54,55
 123 147 123 147 152.5 115 c 128,-1,56
 182 83 182 83 221 68.5 c 128,-1,57
 260 54 260 54 299 54 c 0,58,59
 348 54 348 54 384 76 c 128,-1,60
 420 98 420 98 420 138 c 0,61,62
 420 180 420 180 382 203.5 c 128,-1,63
 344 227 344 227 275 227 c 0,51,52
EndSplineSet
Substitution2: "Single Substitution lookup 10 subtable" uni0B23.base
Substitution2: "'aalt' +BBIEQQQ1 +BDAEOwRMBEIENQRABD0EMARCBDgEMgQ9BEsENQAA +BDIEMARABDgEMAQ9BEIESwAA in Oriya2 lookup 0 subtable" uni0B23.base
EndChar

StartChar: uni0B24
Encoding: 2852 2852 35
Width: 734
GlyphClass: 2
Flags: W
AnchorPoint: "+BBEENQQ3BEsEPARPBD0EPQQ+BDUA--4" 634 0 basechar 0
AnchorPoint: "+BBEENQQ3BEsEPARPBD0EPQQ+BDUA--3" 338 0 basechar 0
AnchorPoint: "+BBEENQQ3BEsEPARPBD0EPQQ+BDUA--1" 364 658 basechar 0
AnchorPoint: "+BBEENQQ3BEsEPARPBD0EPQQ+BDUA--0" 606 658 basechar 0
LayerCount: 2
Fore
SplineSet
149 179 m 0,0,1
 149 193 149 193 150 206 c 1,2,3
 90 245 90 245 61 299 c 128,-1,4
 32 353 32 353 32 414 c 0,5,6
 32 493 32 493 77.5 549.5 c 128,-1,7
 123 606 123 606 198.5 636 c 128,-1,8
 274 666 274 666 364 666 c 0,9,10
 456 666 456 666 532.5 635.5 c 128,-1,11
 609 605 609 605 655.5 547.5 c 128,-1,12
 702 490 702 490 702 409 c 0,13,14
 702 360 702 360 686.5 317 c 128,-1,15
 671 274 671 274 642 240 c 1,16,-1
 575 276 l 1,17,18
 622 333 622 333 622 408 c 0,19,20
 622 469 622 469 586 510.5 c 128,-1,21
 550 552 550 552 491 572.5 c 128,-1,22
 432 593 432 593 362 593 c 0,23,24
 291 593 291 593 233 569.5 c 128,-1,25
 175 546 175 546 141.5 504 c 128,-1,26
 108 462 108 462 108 406 c 0,27,28
 108 375 108 375 122 337 c 128,-1,29
 136 299 136 299 170 270 c 1,30,31
 186 305 186 305 214 337 c 128,-1,32
 242 369 242 369 280 398 c 1,33,-1
 315 352 l 1,34,35
 272 313 272 313 248.5 270.5 c 128,-1,36
 225 228 225 228 225 183 c 0,37,38
 225 124 225 124 262.5 92.5 c 128,-1,39
 300 61 300 61 355 61 c 0,40,41
 411 61 411 61 443.5 92.5 c 128,-1,42
 476 124 476 124 476 169 c 0,43,44
 476 209 476 209 454 235 c 1,45,46
 448 218 448 218 433.5 208.5 c 128,-1,47
 419 199 419 199 401 199 c 0,48,49
 377 199 377 199 360.5 214.5 c 128,-1,50
 344 230 344 230 344 257 c 0,51,52
 344 288 344 288 366 304.5 c 128,-1,53
 388 321 388 321 418 321 c 0,54,55
 447 321 447 321 477 305 c 128,-1,56
 507 289 507 289 527.5 256 c 128,-1,57
 548 223 548 223 548 172 c 0,58,59
 548 129 548 129 527 87.5 c 128,-1,60
 506 46 506 46 462.5 19 c 128,-1,61
 419 -8 419 -8 352 -8 c 0,62,63
 294 -8 294 -8 248 14 c 128,-1,64
 202 36 202 36 175.5 78 c 128,-1,65
 149 120 149 120 149 179 c 0,0,1
EndSplineSet
Substitution2: "Single Substitution lookup 10 subtable" uni0B24.base
Substitution2: "'aalt' +BBIEQQQ1 +BDAEOwRMBEIENQRABD0EMARCBDgEMgQ9BEsENQAA +BDIEMARABDgEMAQ9BEIESwAA in Oriya2 lookup 0 subtable" uni0B24.base
EndChar

StartChar: uni0B25
Encoding: 2853 2853 36
Width: 689
GlyphClass: 2
Flags: W
AnchorPoint: "+BBEENQQ3BEsEPARPBD0EPQQ+BDUA--4" 628 0 basechar 0
AnchorPoint: "+BBEENQQ3BEsEPARPBD0EPQQ+BDUA--3" 550 0 basechar 0
AnchorPoint: "+BBEENQQ3BEsEPARPBD0EPQQ+BDUA--1" 275 658 basechar 0
AnchorPoint: "+BBEENQQ3BEsEPARPBD0EPQQ+BDUA--0" 589 658 basechar 0
LayerCount: 2
Fore
SplineSet
379 501 m 0,0,1
 379 546 379 546 351.5 573 c 128,-1,2
 324 600 324 600 273 600 c 256,3,4
 222 600 222 600 192.5 572.5 c 128,-1,5
 163 545 163 545 163 498 c 0,6,7
 163 483 163 483 166.5 466 c 128,-1,8
 170 449 170 449 179 430 c 1,9,-1
 104 408 l 1,10,11
 95 429 95 429 89 453 c 128,-1,12
 83 477 83 477 83 502 c 0,13,14
 83 578 83 578 134.5 622 c 128,-1,15
 186 666 186 666 275 666 c 0,16,17
 362 666 362 666 410.5 623 c 128,-1,18
 459 580 459 580 459 503 c 0,19,20
 459 448 459 448 436 412.5 c 128,-1,21
 413 377 413 377 377 355.5 c 128,-1,22
 341 334 341 334 300 321 c 2,23,-1
 232 297 l 2,24,25
 201 287 201 287 173.5 274 c 128,-1,26
 146 261 146 261 129 239.5 c 128,-1,27
 112 218 112 218 112 182 c 0,28,29
 112 132 112 132 148.5 98.5 c 128,-1,30
 185 65 185 65 261 65 c 0,31,32
 336 65 336 65 413 99.5 c 128,-1,33
 490 134 490 134 550 204 c 1,34,-1
 550 658 l 1,35,-1
 628 658 l 1,36,-1
 628 0 l 1,37,-1
 550 0 l 1,38,-1
 556 112 l 1,39,40
 502 56 502 56 425 24 c 128,-1,41
 348 -8 348 -8 259 -8 c 0,42,43
 143 -8 143 -8 87.5 45 c 128,-1,44
 32 98 32 98 32 178 c 0,45,46
 32 229 32 229 51 261.5 c 128,-1,47
 70 294 70 294 100.5 313.5 c 128,-1,48
 131 333 131 333 166 345.5 c 128,-1,49
 201 358 201 358 234 369 c 2,50,-1
 254 376 l 2,51,52
 279 384 279 384 308.5 397 c 128,-1,53
 338 410 338 410 358.5 434.5 c 128,-1,54
 379 459 379 459 379 501 c 0,0,1
EndSplineSet
Substitution2: "Single Substitution lookup 10 subtable" uni0B25.base
Substitution2: "'aalt' +BBIEQQQ1 +BDAEOwRMBEIENQRABD0EMARCBDgEMgQ9BEsENQAA +BDIEMARABDgEMAQ9BEIESwAA in Oriya2 lookup 0 subtable" uni0B25.base
EndChar

StartChar: uni0B26
Encoding: 2854 2854 37
Width: 752
GlyphClass: 2
Flags: W
AnchorPoint: "+BBEENQQ3BEsEPARPBD0EPQQ+BDUA--4" 638 0 basechar 0
AnchorPoint: "+BBEENQQ3BEsEPARPBD0EPQQ+BDUA--3" 440 0 basechar 0
AnchorPoint: "+BBEENQQ3BEsEPARPBD0EPQQ+BDUA--1" 367 658 basechar 0
AnchorPoint: "+BBEENQQ3BEsEPARPBD0EPQQ+BDUA--0" 624 658 basechar 0
LayerCount: 2
Fore
SplineSet
323 64 m 0,0,1
 240 64 240 64 197.5 105 c 128,-1,2
 155 146 155 146 152 201 c 1,3,4
 91 241 91 241 61.5 295 c 128,-1,5
 32 349 32 349 32 411 c 0,6,7
 32 488 32 488 77 545.5 c 128,-1,8
 122 603 122 603 198 634.5 c 128,-1,9
 274 666 274 666 367 666 c 0,10,11
 434 666 434 666 497 649 c 128,-1,12
 560 632 560 632 610.5 598 c 128,-1,13
 661 564 661 564 690.5 513 c 128,-1,14
 720 462 720 462 720 395 c 0,15,16
 720 350 720 350 705.5 310.5 c 128,-1,17
 691 271 691 271 664 237 c 1,18,-1
 596 273 l 1,19,20
 617 298 617 298 628.5 329 c 128,-1,21
 640 360 640 360 640 395 c 0,22,23
 640 445 640 445 617 482 c 128,-1,24
 594 519 594 519 555 543.5 c 128,-1,25
 516 568 516 568 467 580.5 c 128,-1,26
 418 593 418 593 367 593 c 0,27,28
 294 593 294 593 235.5 570 c 128,-1,29
 177 547 177 547 142.5 504 c 128,-1,30
 108 461 108 461 108 403 c 0,31,32
 108 367 108 367 122.5 332.5 c 128,-1,33
 137 298 137 298 164 272 c 1,34,35
 177 305 177 305 206 335 c 128,-1,36
 235 365 235 365 280 385 c 1,37,-1
 312 341 l 1,38,39
 273 319 273 319 252 284.5 c 128,-1,40
 231 250 231 250 231 217 c 0,41,42
 231 180 231 180 257 153 c 128,-1,43
 283 126 283 126 336 126 c 0,44,45
 366 126 366 126 393.5 135.5 c 128,-1,46
 421 145 421 145 440 166 c 1,47,-1
 440 320 l 1,48,-1
 518 320 l 1,49,-1
 518 0 l 1,50,-1
 440 0 l 1,51,-1
 445 98 l 1,52,53
 420 81 420 81 389 72.5 c 128,-1,54
 358 64 358 64 323 64 c 0,0,1
EndSplineSet
Substitution2: "Single Substitution lookup 10 subtable" uni0B26.base
Substitution2: "'aalt' +BBIEQQQ1 +BDAEOwRMBEIENQRABD0EMARCBDgEMgQ9BEsENQAA +BDIEMARABDgEMAQ9BEIESwAA in Oriya2 lookup 0 subtable" uni0B26.base
EndChar

StartChar: uni0B27
Encoding: 2855 2855 38
Width: 690
GlyphClass: 2
Flags: W
AnchorPoint: "+BBEENQQ3BEsEPARPBD0EPQQ+BDUA--4" 629 0 basechar 0
AnchorPoint: "+BBEENQQ3BEsEPARPBD0EPQQ+BDUA--3" 551 0 basechar 0
AnchorPoint: "+BBEENQQ3BEsEPARPBD0EPQQ+BDUA--1" 338 658 basechar 0
AnchorPoint: "+BBEENQQ3BEsEPARPBD0EPQQ+BDUA--0" 590 658 basechar 0
LayerCount: 2
Fore
SplineSet
32 221 m 0,0,1
 32 294 32 294 79.5 356 c 128,-1,2
 127 418 127 418 218 452 c 1,3,-1
 77 613 l 1,4,-1
 130 665 l 1,5,-1
 447 304 l 1,6,-1
 395 253 l 1,7,-1
 267 398 l 1,8,9
 190 373 190 373 151 325.5 c 128,-1,10
 112 278 112 278 112 222 c 0,11,12
 112 179 112 179 132.5 143.5 c 128,-1,13
 153 108 153 108 193 86.5 c 128,-1,14
 233 65 233 65 291 65 c 0,15,16
 357 65 357 65 425 96.5 c 128,-1,17
 493 128 493 128 550 196 c 1,18,-1
 551 658 l 1,19,-1
 629 658 l 1,20,-1
 629 0 l 1,21,-1
 551 0 l 1,22,-1
 556 103 l 1,23,24
 502 48 502 48 433 20 c 128,-1,25
 364 -8 364 -8 290 -8 c 0,26,27
 210 -8 210 -8 152.5 21 c 128,-1,28
 95 50 95 50 63.5 101.5 c 128,-1,29
 32 153 32 153 32 221 c 0,0,1
EndSplineSet
Substitution2: "Single Substitution lookup 10 subtable" uni0B27.base
Substitution2: "'aalt' +BBIEQQQ1 +BDAEOwRMBEIENQRABD0EMARCBDgEMgQ9BEsENQAA +BDIEMARABDgEMAQ9BEIESwAA in Oriya2 lookup 0 subtable" uni0B27.base
EndChar

StartChar: uni0B28
Encoding: 2856 2856 39
Width: 712
GlyphClass: 2
Flags: W
AnchorPoint: "+BBEENQQ3BEsEPARPBD0EPQQ+BDUA--4" 496 0 basechar 0
AnchorPoint: "+BBEENQQ3BEsEPARPBD0EPQQ+BDUA--3" 418 0 basechar 0
AnchorPoint: "+BBEENQQ3BEsEPARPBD0EPQQ+BDUA--1" 348 658 basechar 0
AnchorPoint: "+BBEENQQ3BEsEPARPBD0EPQQ+BDUA--0" 584 658 basechar 0
LayerCount: 2
Fore
SplineSet
192 -8 m 0,0,1
 158 -8 158 -8 135.5 18.5 c 128,-1,2
 113 45 113 45 113 92 c 0,3,4
 113 145 113 145 141 198 c 1,5,6
 88 235 88 235 60 290 c 128,-1,7
 32 345 32 345 32 409 c 0,8,9
 32 472 32 472 58 520.5 c 128,-1,10
 84 569 84 569 128.5 601 c 128,-1,11
 173 633 173 633 230.5 649.5 c 128,-1,12
 288 666 288 666 350 666 c 0,13,14
 415 666 415 666 474.5 649 c 128,-1,15
 534 632 534 632 580 598.5 c 128,-1,16
 626 565 626 565 652.5 515.5 c 128,-1,17
 679 466 679 466 679 401 c 0,18,19
 679 355 679 355 666.5 315 c 128,-1,20
 654 275 654 275 632 241 c 1,21,-1
 563 276 l 1,22,23
 580 302 580 302 590 333 c 128,-1,24
 600 364 600 364 600 399 c 0,25,26
 600 463 600 463 564 506.5 c 128,-1,27
 528 550 528 550 471 571.5 c 128,-1,28
 414 593 414 593 349 593 c 0,29,30
 285 593 285 593 231 571.5 c 128,-1,31
 177 550 177 550 144.5 507.5 c 128,-1,32
 112 465 112 465 112 404 c 0,33,34
 112 362 112 362 129.5 322.5 c 128,-1,35
 147 283 147 283 181 257 c 1,36,37
 219 299 219 299 276 326.5 c 128,-1,38
 333 354 333 354 406 354 c 0,39,40
 427 354 427 354 452 351.5 c 128,-1,41
 477 349 477 349 496 346 c 1,42,-1
 496 0 l 1,43,-1
 418 0 l 1,44,-1
 418 288 l 1,45,46
 414 288 414 288 409 288 c 0,47,48
 351 288 351 288 305 264.5 c 128,-1,49
 259 241 259 241 229.5 203.5 c 128,-1,50
 200 166 200 166 190 124 c 1,51,-1
 191 124 l 2,52,53
 223 124 223 124 242 103.5 c 128,-1,54
 261 83 261 83 261 57 c 0,55,56
 261 29 261 29 241.5 10.5 c 128,-1,57
 222 -8 222 -8 192 -8 c 0,0,1
EndSplineSet
Substitution2: "Single Substitution lookup 10 subtable" uni0B28.base
Substitution2: "'aalt' +BBIEQQQ1 +BDAEOwRMBEIENQRABD0EMARCBDgEMgQ9BEsENQAA +BDIEMARABDgEMAQ9BEIESwAA in Oriya2 lookup 0 subtable" uni0B28.base
EndChar

StartChar: uni0B2A
Encoding: 2858 2858 40
Width: 741
GlyphClass: 2
Flags: W
AnchorPoint: "+BBEENQQ3BEsEPARPBD0EPQQ+BDUA--4" 679 0 basechar 0
AnchorPoint: "+BBEENQQ3BEsEPARPBD0EPQQ+BDUA--3" 601 0 basechar 0
AnchorPoint: "+BBEENQQ3BEsEPARPBD0EPQQ+BDUA--1" 329 658 basechar 0
AnchorPoint: "+BBEENQQ3BEsEPARPBD0EPQQ+BDUA--0" 640 658 basechar 0
LayerCount: 2
Fore
SplineSet
373 -7 m 0,0,1
 316 -7 316 -7 269 15 c 128,-1,2
 222 37 222 37 193.5 79 c 128,-1,3
 165 121 165 121 165 178 c 0,4,5
 165 185 165 185 165 192 c 1,6,7
 99 230 99 230 65.5 288 c 128,-1,8
 32 346 32 346 32 416 c 0,9,10
 32 476 32 476 56.5 522.5 c 128,-1,11
 81 569 81 569 123 601 c 128,-1,12
 165 633 165 633 218 649.5 c 128,-1,13
 271 666 271 666 329 666 c 0,14,15
 408 666 408 666 481.5 637 c 128,-1,16
 555 608 555 608 604 549 c 1,17,-1
 601 658 l 1,18,-1
 679 658 l 1,19,-1
 679 0 l 1,20,-1
 601 0 l 1,21,-1
 606 102 l 1,22,23
 561 46 561 46 498 19.5 c 128,-1,24
 435 -7 435 -7 373 -7 c 0,0,1
244 187 m 0,25,26
 244 148 244 148 264.5 121 c 128,-1,27
 285 94 285 94 316 80 c 128,-1,28
 347 66 347 66 381 66 c 0,29,30
 421 66 421 66 463 81 c 128,-1,31
 505 96 505 96 541.5 126 c 128,-1,32
 578 156 578 156 601 201 c 1,33,-1
 601 418 l 1,34,35
 585 475 585 475 545.5 514 c 128,-1,36
 506 553 506 553 452 573 c 128,-1,37
 398 593 398 593 337 593 c 0,38,39
 277 593 277 593 225.5 571 c 128,-1,40
 174 549 174 549 143 506.5 c 128,-1,41
 112 464 112 464 112 402 c 0,42,43
 112 363 112 363 129.5 325.5 c 128,-1,44
 147 288 147 288 182 260 c 1,45,46
 203 306 203 306 245 341 c 128,-1,47
 287 376 287 376 345 395 c 1,48,-1
 372 333 l 1,49,50
 316 314 316 314 280 275.5 c 128,-1,51
 244 237 244 237 244 187 c 0,25,26
EndSplineSet
Substitution2: "Single Substitution lookup 10 subtable" uni0B2A.base
Substitution2: "'aalt' +BBIEQQQ1 +BDAEOwRMBEIENQRABD0EMARCBDgEMgQ9BEsENQAA +BDIEMARABDgEMAQ9BEIESwAA in Oriya2 lookup 0 subtable" uni0B2A.base
EndChar

StartChar: uni0B2B
Encoding: 2859 2859 41
Width: 899
GlyphClass: 2
Flags: W
AnchorPoint: "+BBEENQQ3BEsEPARPBD0EPQQ+BDUA--4" 679 0 basechar 0
AnchorPoint: "+BBEENQQ3BEsEPARPBD0EPQQ+BDUA--3" 601 0 basechar 0
AnchorPoint: "+BBEENQQ3BEsEPARPBD0EPQQ+BDUA--1" 329 658 basechar 0
AnchorPoint: "+BBEENQQ3BEsEPARPBD0EPQQ+BDUA--0" 758 658 basechar 0
LayerCount: 2
Fore
SplineSet
373 -7 m 0,0,1
 316 -7 316 -7 269 15 c 128,-1,2
 222 37 222 37 193.5 79 c 128,-1,3
 165 121 165 121 165 178 c 0,4,5
 165 185 165 185 165 192 c 1,6,7
 99 230 99 230 65.5 288 c 128,-1,8
 32 346 32 346 32 416 c 0,9,10
 32 476 32 476 56.5 522.5 c 128,-1,11
 81 569 81 569 123 601 c 128,-1,12
 165 633 165 633 218 649.5 c 128,-1,13
 271 666 271 666 329 666 c 0,14,15
 408 666 408 666 481.5 637 c 128,-1,16
 555 608 555 608 604 549 c 1,17,-1
 601 658 l 1,18,-1
 679 658 l 1,19,-1
 679 577 l 1,20,21
 714 606 714 606 762 606 c 0,22,23
 819 606 819 606 854 567 c 128,-1,24
 889 528 889 528 889 469 c 0,25,26
 889 411 889 411 854.5 372 c 128,-1,27
 820 333 820 333 763 333 c 0,28,29
 714 333 714 333 679 361 c 1,30,-1
 679 0 l 5,31,-1
 601 0 l 1,32,-1
 605 101 l 1,33,34
 561 46 561 46 498 19.5 c 128,-1,35
 435 -7 435 -7 373 -7 c 0,0,1
244 187 m 0,36,37
 244 148 244 148 264.5 121 c 128,-1,38
 285 94 285 94 316 80 c 128,-1,39
 347 66 347 66 381 66 c 0,40,41
 421 66 421 66 463 81 c 128,-1,42
 505 96 505 96 541.5 126 c 128,-1,43
 578 156 578 156 601 201 c 1,44,-1
 601 418 l 1,45,46
 585 475 585 475 545.5 514 c 128,-1,47
 506 553 506 553 452 573 c 128,-1,48
 398 593 398 593 337 593 c 0,49,50
 277 593 277 593 225.5 571 c 128,-1,51
 174 549 174 549 143 506.5 c 128,-1,52
 112 464 112 464 112 402 c 0,53,54
 112 363 112 363 129.5 325.5 c 128,-1,55
 147 288 147 288 182 260 c 1,56,57
 203 306 203 306 245 341 c 128,-1,58
 287 376 287 376 345 395 c 1,59,-1
 372 333 l 1,60,61
 316 314 316 314 280 275.5 c 128,-1,62
 244 237 244 237 244 187 c 0,36,37
753 551 m 0,63,64
 723 551 723 551 701 529.5 c 128,-1,65
 679 508 679 508 679 468 c 256,66,67
 679 428 679 428 701 408 c 128,-1,68
 723 388 723 388 753 388 c 0,69,70
 788 388 788 388 806.5 412.5 c 128,-1,71
 825 437 825 437 825 469 c 256,72,73
 825 501 825 501 806.5 526 c 128,-1,74
 788 551 788 551 753 551 c 0,63,64
EndSplineSet
Substitution2: "Single Substitution lookup 10 subtable" uni0B2B.base
Substitution2: "'aalt' +BBIEQQQ1 +BDAEOwRMBEIENQRABD0EMARCBDgEMgQ9BEsENQAA +BDIEMARABDgEMAQ9BEIESwAA in Oriya2 lookup 0 subtable" uni0B2B.base
EndChar

StartChar: uni0B2C
Encoding: 2860 2860 42
Width: 718
GlyphClass: 2
Flags: W
AnchorPoint: "+BBEENQQ3BEsEPARPBD0EPQQ+BDUA--4" 628 0 basechar 0
AnchorPoint: "+BBEENQQ3BEsEPARPBD0EPQQ+BDUA--3" 430 0 basechar 0
AnchorPoint: "+BBEENQQ3BEsEPARPBD0EPQQ+BDUA--1" 353 658 basechar 0
AnchorPoint: "+BBEENQQ3BEsEPARPBD0EPQQ+BDUA--0" 590 658 basechar 0
LayerCount: 2
Fore
SplineSet
328 49 m 0,0,1
 253 49 253 49 204 92 c 128,-1,2
 155 135 155 135 149 205 c 1,3,4
 91 239 91 239 61.5 294.5 c 128,-1,5
 32 350 32 350 32 412 c 0,6,7
 32 483 32 483 70.5 540.5 c 128,-1,8
 109 598 109 598 181 632 c 128,-1,9
 253 666 253 666 353 666 c 0,10,11
 415 666 415 666 474 649 c 128,-1,12
 533 632 533 632 581 598.5 c 128,-1,13
 629 565 629 565 657.5 514 c 128,-1,14
 686 463 686 463 686 396 c 0,15,16
 686 351 686 351 672.5 313.5 c 128,-1,17
 659 276 659 276 636 247 c 1,18,-1
 565 278 l 1,19,20
 585 303 585 303 595.5 332 c 128,-1,21
 606 361 606 361 606 396 c 0,22,23
 606 462 606 462 569.5 506 c 128,-1,24
 533 550 533 550 475 571.5 c 128,-1,25
 417 593 417 593 354 593 c 0,26,27
 275 593 275 593 220 566.5 c 128,-1,28
 165 540 165 540 136.5 496.5 c 128,-1,29
 108 453 108 453 108 402 c 0,30,31
 108 367 108 367 121 334.5 c 128,-1,32
 134 302 134 302 158 278 c 1,33,34
 175 330 175 330 220 360.5 c 128,-1,35
 265 391 265 391 330 391 c 0,36,37
 410 391 410 391 459 344 c 128,-1,38
 508 297 508 297 508 222 c 2,39,-1
 508 0 l 1,40,-1
 430 0 l 1,41,-1
 432 76 l 1,42,43
 387 49 387 49 328 49 c 0,0,1
329 110 m 0,44,45
 377 110 377 110 407 140.5 c 128,-1,46
 437 171 437 171 437 221 c 0,47,48
 437 269 437 269 407 299 c 128,-1,49
 377 329 377 329 329 329 c 0,50,51
 282 329 282 329 251 299 c 128,-1,52
 220 269 220 269 220 221 c 0,53,54
 220 171 220 171 251 140.5 c 128,-1,55
 282 110 282 110 329 110 c 0,44,45
EndSplineSet
Substitution2: "Single Substitution lookup 10 subtable" uni0B2C.base
Substitution2: "'aalt' +BBIEQQQ1 +BDAEOwRMBEIENQRABD0EMARCBDgEMgQ9BEsENQAA +BDIEMARABDgEMAQ9BEIESwAA in Oriya2 lookup 0 subtable" uni0B2C.base
EndChar

StartChar: uni0B2D
Encoding: 2861 2861 43
Width: 833
GlyphClass: 2
Flags: W
AnchorPoint: "+BBEENQQ3BEsEPARPBD0EPQQ+BDUA--4" 667 0 basechar 0
AnchorPoint: "+BBEENQQ3BEsEPARPBD0EPQQ+BDUA--3" 351 0 basechar 0
AnchorPoint: "+BBEENQQ3BEsEPARPBD0EPQQ+BDUA--1" 398 658 basechar 0
AnchorPoint: "+BBEENQQ3BEsEPARPBD0EPQQ+BDUA--0" 691 658 basechar 0
LayerCount: 2
Fore
SplineSet
365 -8 m 0,0,1
 254 -8 254 -8 193.5 45.5 c 128,-1,2
 133 99 133 99 133 190 c 0,3,4
 133 201 133 201 134 212 c 1,5,6
 79 256 79 256 55.5 306 c 128,-1,7
 32 356 32 356 32 408 c 0,8,9
 32 485 32 485 77 543.5 c 128,-1,10
 122 602 122 602 204 634 c 128,-1,11
 286 666 286 666 400 666 c 0,12,13
 523 666 523 666 611 628.5 c 128,-1,14
 699 591 699 591 746 522.5 c 128,-1,15
 793 454 793 454 793 363 c 0,16,17
 793 309 793 309 775.5 258 c 128,-1,18
 758 207 758 207 719 160 c 1,19,-1
 815 39 l 1,20,-1
 751 -9 l 1,21,-1
 631 154 l 1,22,23
 676 197 676 197 695 244.5 c 128,-1,24
 714 292 714 292 714 344 c 0,25,26
 714 426 714 426 674 481 c 128,-1,27
 634 536 634 536 562.5 564.5 c 128,-1,28
 491 593 491 593 396 593 c 0,29,30
 308 593 308 593 243.5 568.5 c 128,-1,31
 179 544 179 544 143.5 500.5 c 128,-1,32
 108 457 108 457 108 400 c 0,33,34
 108 372 108 372 118 342.5 c 128,-1,35
 128 313 128 313 151 285 c 1,36,37
 164 318 164 318 185.5 350 c 128,-1,38
 207 382 207 382 239 412 c 1,39,-1
 284 371 l 1,40,41
 244 324 244 324 226.5 278.5 c 128,-1,42
 209 233 209 233 209 193 c 0,43,44
 209 131 209 131 250 91.5 c 128,-1,45
 291 52 291 52 367 52 c 0,46,47
 427 52 427 52 462 75.5 c 128,-1,48
 497 99 497 99 508 143 c 1,49,50
 476 131 476 131 440 131 c 0,51,52
 386 131 386 131 354.5 158.5 c 128,-1,53
 323 186 323 186 323 233 c 0,54,55
 323 295 323 295 379 359 c 1,56,-1
 421 321 l 1,57,58
 395 278 395 278 395 240 c 0,59,60
 395 215 395 215 410 198.5 c 128,-1,61
 425 182 425 182 458 182 c 0,62,63
 488 182 488 182 513 195 c 1,64,-1
 513 320 l 1,65,-1
 591 320 l 1,66,-1
 591 193 l 2,67,68
 591 90 591 90 529 41 c 128,-1,69
 467 -8 467 -8 365 -8 c 0,0,1
EndSplineSet
Substitution2: "Single Substitution lookup 10 subtable" uni0B2D.base
Substitution2: "'aalt' +BBIEQQQ1 +BDAEOwRMBEIENQRABD0EMARCBDgEMgQ9BEsENQAA +BDIEMARABDgEMAQ9BEIESwAA in Oriya2 lookup 0 subtable" uni0B2D.base
EndChar

StartChar: uni0B2E
Encoding: 2862 2862 44
Width: 741
GlyphClass: 2
Flags: W
AnchorPoint: "+BBEENQQ3BEsEPARPBD0EPQQ+BDUA--4" 679 0 basechar 0
AnchorPoint: "+BBEENQQ3BEsEPARPBD0EPQQ+BDUA--3" 601 0 basechar 0
AnchorPoint: "+BBEENQQ3BEsEPARPBD0EPQQ+BDUA--1" 331 658 basechar 0
AnchorPoint: "+BBEENQQ3BEsEPARPBD0EPQQ+BDUA--0" 640 658 basechar 0
LayerCount: 2
Fore
SplineSet
192 -8 m 0,0,1
 158 -8 158 -8 135.5 18.5 c 128,-1,2
 113 45 113 45 113 91 c 0,3,4
 113 148 113 148 143 201 c 1,5,6
 89 237 89 237 60.5 292 c 128,-1,7
 32 347 32 347 32 412 c 0,8,9
 32 482 32 482 67.5 539.5 c 128,-1,10
 103 597 103 597 170 631.5 c 128,-1,11
 237 666 237 666 331 666 c 0,12,13
 408 666 408 666 481 637 c 128,-1,14
 554 608 554 608 604 549 c 1,15,-1
 601 658 l 1,16,-1
 679 658 l 1,17,-1
 679 0 l 1,18,-1
 601 0 l 1,19,-1
 601 419 l 1,20,21
 585 475 585 475 546.5 514 c 128,-1,22
 508 553 508 553 454.5 573 c 128,-1,23
 401 593 401 593 340 593 c 0,24,25
 263 593 263 593 212.5 566.5 c 128,-1,26
 162 540 162 540 137 497 c 128,-1,27
 112 454 112 454 112 404 c 0,28,29
 112 361 112 361 130.5 321 c 128,-1,30
 149 281 149 281 184 254 c 1,31,32
 227 299 227 299 290 329 c 128,-1,33
 353 359 353 359 426 369 c 1,34,-1
 437 301 l 1,35,36
 324 284 324 284 263.5 234.5 c 128,-1,37
 203 185 203 185 189 124 c 1,38,-1
 191 124 l 2,39,40
 223 124 223 124 242 103 c 128,-1,41
 261 82 261 82 261 57 c 0,42,43
 261 29 261 29 241.5 10.5 c 128,-1,44
 222 -8 222 -8 192 -8 c 0,0,1
EndSplineSet
Substitution2: "Single Substitution lookup 10 subtable" uni0B2E.base
Substitution2: "'aalt' +BBIEQQQ1 +BDAEOwRMBEIENQRABD0EMARCBDgEMgQ9BEsENQAA +BDIEMARABDgEMAQ9BEIESwAA in Oriya2 lookup 0 subtable" uni0B2E.base
EndChar

StartChar: uni0B2F
Encoding: 2863 2863 45
Width: 784
GlyphClass: 2
Flags: W
AnchorPoint: "+BBEENQQ3BEsEPARPBD0EPQQ+BDUA--4" 723 0 basechar 0
AnchorPoint: "+BBEENQQ3BEsEPARPBD0EPQQ+BDUA--3" 645 0 basechar 0
AnchorPoint: "+BBEENQQ3BEsEPARPBD0EPQQ+BDUA--1" 375 658 basechar 0
AnchorPoint: "+BBEENQQ3BEsEPARPBD0EPQQ+BDUA--0" 684 658 basechar 0
LayerCount: 2
Fore
SplineSet
421 -8 m 0,0,1
 363 -8 363 -8 317.5 14 c 128,-1,2
 272 36 272 36 245 78 c 128,-1,3
 218 120 218 120 218 180 c 0,4,5
 218 194 218 194 220 209.5 c 128,-1,6
 222 225 222 225 227 242 c 1,7,8
 190 216 190 216 158.5 189 c 128,-1,9
 127 162 127 162 107 137 c 1,10,11
 126 128 126 128 134.5 113.5 c 128,-1,12
 143 99 143 99 143 83 c 0,13,14
 143 58 143 58 126 43.5 c 128,-1,15
 109 29 109 29 86 29 c 0,16,17
 61 29 61 29 42.5 45.5 c 128,-1,18
 24 62 24 62 24 91 c 0,19,20
 24 123 24 123 56.5 170 c 128,-1,21
 89 217 89 217 151 266 c 1,22,23
 114 298 114 298 95 340 c 128,-1,24
 76 382 76 382 76 427 c 0,25,26
 76 486 76 486 100 530.5 c 128,-1,27
 124 575 124 575 165.5 605 c 128,-1,28
 207 635 207 635 259 650.5 c 128,-1,29
 311 666 311 666 367 666 c 0,30,31
 447 666 447 666 522 636.5 c 128,-1,32
 597 607 597 607 648 547 c 1,33,-1
 645 658 l 1,34,-1
 723 658 l 1,35,-1
 723 0 l 1,36,-1
 645 0 l 1,37,-1
 649 101 l 1,38,39
 605 45 605 45 542.5 18.5 c 128,-1,40
 480 -8 480 -8 421 -8 c 0,0,1
294 180 m 0,41,42
 294 124 294 124 334 94.5 c 128,-1,43
 374 65 374 65 428 65 c 0,44,45
 463 65 463 65 504.5 80 c 128,-1,46
 546 95 546 95 583.5 125 c 128,-1,47
 621 155 621 155 645 201 c 1,48,-1
 645 417 l 1,49,50
 627 477 627 477 585 516 c 128,-1,51
 543 555 543 555 488.5 574 c 128,-1,52
 434 593 434 593 379 593 c 0,53,54
 321 593 321 593 270 572 c 128,-1,55
 219 551 219 551 187 511.5 c 128,-1,56
 155 472 155 472 155 414 c 0,57,58
 155 350 155 350 202 303 c 1,59,60
 241 328 241 328 288.5 352 c 128,-1,61
 336 376 336 376 392 397 c 1,62,-1
 420 333 l 1,63,64
 354 308 354 308 324 265.5 c 128,-1,65
 294 223 294 223 294 180 c 0,41,42
EndSplineSet
Substitution2: "Single Substitution lookup 10 subtable" uni0B2F.base
Substitution2: "'aalt' +BBIEQQQ1 +BDAEOwRMBEIENQRABD0EMARCBDgEMgQ9BEsENQAA +BDIEMARABDgEMAQ9BEIESwAA in Oriya2 lookup 0 subtable" uni0B2F.base
EndChar

StartChar: uni0B30
Encoding: 2864 2864 46
Width: 749
GlyphClass: 2
Flags: W
AnchorPoint: "+BBEENQQ3BEsEPARPBD0EPQQ+BDUA--4" 603 0 basechar 0
AnchorPoint: "+BBEENQQ3BEsEPARPBD0EPQQ+BDUA--3" 292 -6 basechar 0
AnchorPoint: "+BBEENQQ3BEsEPARPBD0EPQQ+BDUA--1" 367 658 basechar 0
AnchorPoint: "+BBEENQQ3BEsEPARPBD0EPQQ+BDUA--0" 630 658 basechar 0
LayerCount: 2
Fore
SplineSet
311 -8 m 256,0,1
 259 -8 259 -8 217 14.5 c 128,-1,2
 175 37 175 37 150.5 78 c 128,-1,3
 126 119 126 119 126 174 c 0,4,5
 126 195 126 195 130 215 c 1,6,7
 80 254 80 254 56 306 c 128,-1,8
 32 358 32 358 32 412 c 0,9,10
 32 475 32 475 60 522.5 c 128,-1,11
 88 570 88 570 135.5 602 c 128,-1,12
 183 634 183 634 243 650 c 128,-1,13
 303 666 303 666 367 666 c 0,14,15
 434 666 434 666 498.5 648 c 128,-1,16
 563 630 563 630 614 595 c 128,-1,17
 665 560 665 560 695.5 507 c 128,-1,18
 726 454 726 454 726 384 c 0,19,20
 726 322 726 322 700.5 263 c 128,-1,21
 675 204 675 204 630 157 c 1,22,-1
 723 38 l 1,23,-1
 659 -9 l 1,24,-1
 539 154 l 1,25,26
 592 197 592 197 619 254.5 c 128,-1,27
 646 312 646 312 646 369 c 0,28,29
 646 442 646 442 606.5 492 c 128,-1,30
 567 542 567 542 503 567.5 c 128,-1,31
 439 593 439 593 365 593 c 0,32,33
 296 593 296 593 237.5 571 c 128,-1,34
 179 549 179 549 143.5 507.5 c 128,-1,35
 108 466 108 466 108 405 c 0,36,37
 108 333 108 333 156 278 c 1,38,39
 180 314 180 314 221 334.5 c 128,-1,40
 262 355 262 355 311 355 c 0,41,42
 363 355 363 355 405.5 332.5 c 128,-1,43
 448 310 448 310 473.5 269.5 c 128,-1,44
 499 229 499 229 499 174 c 256,45,46
 499 119 499 119 473.5 78 c 128,-1,47
 448 37 448 37 405.5 14.5 c 128,-1,48
 363 -8 363 -8 311 -8 c 256,0,1
312 57 m 256,49,50
 361 57 361 57 394 89 c 128,-1,51
 427 121 427 121 427 174 c 0,52,53
 427 226 427 226 394.5 257.5 c 128,-1,54
 362 289 362 289 312 289 c 256,55,56
 262 289 262 289 230 257.5 c 128,-1,57
 198 226 198 226 198 174 c 0,58,59
 198 121 198 121 230.5 89 c 128,-1,60
 263 57 263 57 312 57 c 256,49,50
EndSplineSet
Substitution2: "Single Substitution lookup 10 subtable" uni0B30.base
Substitution2: "'aalt' +BBIEQQQ1 +BDAEOwRMBEIENQRABD0EMARCBDgEMgQ9BEsENQAA +BDIEMARABDgEMAQ9BEIESwAA in Oriya2 lookup 0 subtable" uni0B30.base
EndChar

StartChar: uni0B32
Encoding: 2866 2866 47
Width: 833
GlyphClass: 2
Flags: W
AnchorPoint: "+BBEENQQ3BEsEPARPBD0EPQQ+BDUA--4" 591 0 basechar 0
AnchorPoint: "+BBEENQQ3BEsEPARPBD0EPQQ+BDUA--3" 513 0 basechar 0
AnchorPoint: "+BBEENQQ3BEsEPARPBD0EPQQ+BDUA--1" 420 658 basechar 0
AnchorPoint: "+BBEENQQ3BEsEPARPBD0EPQQ+BDUA--0" 688 658 basechar 0
LayerCount: 2
Fore
SplineSet
157 -9 m 1,0,1
 142 35 142 35 132.5 84.5 c 128,-1,2
 123 134 123 134 123 179 c 0,3,4
 123 201 123 201 126 221 c 1,5,6
 77 264 77 264 54.5 311.5 c 128,-1,7
 32 359 32 359 32 409 c 0,8,9
 32 492 32 492 80 549 c 128,-1,10
 128 606 128 606 210.5 636 c 128,-1,11
 293 666 293 666 399 666 c 0,12,13
 480 666 480 666 551.5 646 c 128,-1,14
 623 626 623 626 677.5 587.5 c 128,-1,15
 732 549 732 549 762.5 492 c 128,-1,16
 793 435 793 435 793 362 c 0,17,18
 793 309 793 309 775.5 258 c 128,-1,19
 758 207 758 207 719 160 c 1,20,-1
 815 39 l 1,21,-1
 751 -9 l 1,22,-1
 631 154 l 1,23,24
 676 197 676 197 695 244 c 128,-1,25
 714 291 714 291 714 341 c 0,26,27
 714 425 714 425 670.5 481 c 128,-1,28
 627 537 627 537 554.5 565 c 128,-1,29
 482 593 482 593 394 593 c 0,30,31
 315 593 315 593 250 571 c 128,-1,32
 185 549 185 549 146.5 506.5 c 128,-1,33
 108 464 108 464 108 402 c 0,34,35
 108 374 108 374 117.5 346 c 128,-1,36
 127 318 127 318 148 291 c 1,37,38
 183 355 183 355 256 355 c 0,39,40
 292 355 292 355 320 339 c 128,-1,41
 348 323 348 323 363 290 c 1,42,43
 377 327 377 327 405.5 341 c 128,-1,44
 434 355 434 355 469 355 c 0,45,46
 525 355 525 355 558 321 c 128,-1,47
 591 287 591 287 591 227 c 2,48,-1
 591 0 l 1,49,-1
 513 0 l 1,50,-1
 513 220 l 2,51,52
 513 229 513 229 510 246.5 c 128,-1,53
 507 264 507 264 495 279 c 128,-1,54
 483 294 483 294 457 294 c 0,55,56
 429 294 429 294 414 273 c 128,-1,57
 399 252 399 252 399 214 c 2,58,-1
 399 0 l 1,59,-1
 325 0 l 1,60,-1
 325 210 l 2,61,62
 325 253 325 253 309.5 273.5 c 128,-1,63
 294 294 294 294 267 294 c 0,64,65
 237 294 237 294 219 264.5 c 128,-1,66
 201 235 201 235 201 175 c 0,67,68
 201 137 201 137 208.5 93 c 128,-1,69
 216 49 216 49 229 9 c 1,70,-1
 157 -9 l 1,0,1
EndSplineSet
Substitution2: "Single Substitution lookup 10 subtable" uni0B32.base
Substitution2: "'aalt' +BBIEQQQ1 +BDAEOwRMBEIENQRABD0EMARCBDgEMgQ9BEsENQAA +BDIEMARABDgEMAQ9BEIESwAA in Oriya2 lookup 0 subtable" uni0B32.base
EndChar

StartChar: uni0B33
Encoding: 2867 2867 48
Width: 776
GlyphClass: 2
Flags: W
AnchorPoint: "+BBEENQQ3BEsEPARPBD0EPQQ+BDUA--4" 591 0 basechar 0
AnchorPoint: "+BBEENQQ3BEsEPARPBD0EPQQ+BDUA--3" 513 0 basechar 0
AnchorPoint: "+BBEENQQ3BEsEPARPBD0EPQQ+BDUA--1" 384 658 basechar 0
AnchorPoint: "+BBEENQQ3BEsEPARPBD0EPQQ+BDUA--0" 648 658 basechar 0
LayerCount: 2
Fore
SplineSet
32 410 m 0,0,1
 32 489 32 489 77.5 546 c 128,-1,2
 123 603 123 603 202.5 634.5 c 128,-1,3
 282 666 282 666 384 666 c 0,4,5
 483 666 483 666 564.5 635 c 128,-1,6
 646 604 646 604 694.5 543.5 c 128,-1,7
 743 483 743 483 743 394 c 0,8,9
 743 351 743 351 730 314 c 128,-1,10
 717 277 717 277 693 247 c 1,11,-1
 621 277 l 1,12,13
 641 302 641 302 652 331.5 c 128,-1,14
 663 361 663 361 663 395 c 0,15,16
 663 460 663 460 624.5 504 c 128,-1,17
 586 548 586 548 522.5 570.5 c 128,-1,18
 459 593 459 593 382 593 c 0,19,20
 300 593 300 593 238 569 c 128,-1,21
 176 545 176 545 142 502 c 128,-1,22
 108 459 108 459 108 401 c 256,23,24
 108 343 108 343 148 291 c 1,25,26
 183 355 183 355 256 355 c 0,27,28
 292 355 292 355 320 339 c 128,-1,29
 348 323 348 323 362 290 c 1,30,31
 377 327 377 327 406 341 c 128,-1,32
 435 355 435 355 471 355 c 0,33,34
 525 355 525 355 558 321 c 128,-1,35
 591 287 591 287 591 227 c 2,36,-1
 591 0 l 1,37,-1
 513 0 l 1,38,-1
 513 220 l 2,39,40
 513 229 513 229 510 246.5 c 128,-1,41
 507 264 507 264 495 279 c 128,-1,42
 483 294 483 294 457 294 c 0,43,44
 429 294 429 294 414 273 c 128,-1,45
 399 252 399 252 399 214 c 2,46,-1
 399 0 l 1,47,-1
 325 0 l 1,48,-1
 325 210 l 2,49,50
 325 253 325 253 309.5 273.5 c 128,-1,51
 294 294 294 294 267 294 c 0,52,53
 237 294 237 294 219 264.5 c 128,-1,54
 201 235 201 235 201 175 c 0,55,56
 201 137 201 137 208.5 93 c 128,-1,57
 216 49 216 49 229 9 c 1,58,-1
 157 -9 l 1,59,60
 142 35 142 35 132.5 84.5 c 128,-1,61
 123 134 123 134 123 179 c 0,62,63
 123 201 123 201 126 221 c 1,64,65
 80 261 80 261 56 308 c 128,-1,66
 32 355 32 355 32 410 c 0,0,1
EndSplineSet
Substitution2: "Single Substitution lookup 10 subtable" uni0B33.base
Substitution2: "'aalt' +BBIEQQQ1 +BDAEOwRMBEIENQRABD0EMARCBDgEMgQ9BEsENQAA +BDIEMARABDgEMAQ9BEIESwAA in Oriya2 lookup 0 subtable" uni0B33.base
EndChar

StartChar: uni0B35
Encoding: 2869 2869 49
Width: 718
GlyphClass: 2
Flags: W
AnchorPoint: "+BBEENQQ3BEsEPARPBD0EPQQ+BDUA--4" 628 0 basechar 0
AnchorPoint: "+BBEENQQ3BEsEPARPBD0EPQQ+BDUA--3" 430 0 basechar 0
AnchorPoint: "+BBEENQQ3BEsEPARPBD0EPQQ+BDUA--1" 353 658 basechar 0
AnchorPoint: "+BBEENQQ3BEsEPARPBD0EPQQ+BDUA--0" 590 658 basechar 0
LayerCount: 2
Fore
SplineSet
328 49 m 0,0,1
 253 49 253 49 204 92 c 128,-1,2
 155 135 155 135 149 205 c 1,3,4
 91 239 91 239 61.5 294.5 c 128,-1,5
 32 350 32 350 32 412 c 0,6,7
 32 483 32 483 70.5 540.5 c 128,-1,8
 109 598 109 598 181 632 c 128,-1,9
 253 666 253 666 353 666 c 0,10,11
 415 666 415 666 474 649 c 128,-1,12
 533 632 533 632 581 598.5 c 128,-1,13
 629 565 629 565 657.5 514 c 128,-1,14
 686 463 686 463 686 396 c 0,15,16
 686 351 686 351 672.5 313.5 c 128,-1,17
 659 276 659 276 636 246 c 1,18,-1
 565 278 l 1,19,20
 584 303 584 303 595 332.5 c 128,-1,21
 606 362 606 362 606 396 c 0,22,23
 606 462 606 462 569.5 506 c 128,-1,24
 533 550 533 550 475 571.5 c 128,-1,25
 417 593 417 593 354 593 c 0,26,27
 275 593 275 593 220 566.5 c 128,-1,28
 165 540 165 540 136.5 496.5 c 128,-1,29
 108 453 108 453 108 402 c 0,30,31
 108 367 108 367 121 334.5 c 128,-1,32
 134 302 134 302 158 278 c 1,33,34
 175 330 175 330 220 360.5 c 128,-1,35
 265 391 265 391 330 391 c 0,36,37
 410 391 410 391 459 344 c 128,-1,38
 508 297 508 297 508 222 c 2,39,-1
 508 0 l 1,40,-1
 430 0 l 1,41,-1
 432 76 l 1,42,43
 387 49 387 49 328 49 c 0,0,1
329 110 m 0,44,45
 377 110 377 110 407 140.5 c 128,-1,46
 437 171 437 171 437 221 c 0,47,48
 437 269 437 269 407 299 c 128,-1,49
 377 329 377 329 329 329 c 0,50,51
 282 329 282 329 251 299 c 128,-1,52
 220 269 220 269 220 221 c 0,53,54
 220 171 220 171 251 140.5 c 128,-1,55
 282 110 282 110 329 110 c 0,44,45
328 179 m 0,56,57
 310 179 310 179 298.5 191 c 128,-1,58
 287 203 287 203 287 221 c 0,59,60
 287 238 287 238 298.5 249 c 128,-1,61
 310 260 310 260 328 260 c 0,62,63
 347 260 347 260 358.5 249 c 128,-1,64
 370 238 370 238 370 221 c 0,65,66
 370 203 370 203 358.5 191 c 128,-1,67
 347 179 347 179 328 179 c 0,56,57
EndSplineSet
Substitution2: "Single Substitution lookup 10 subtable" uni0B35.base
Substitution2: "'aalt' +BBIEQQQ1 +BDAEOwRMBEIENQRABD0EMARCBDgEMgQ9BEsENQAA +BDIEMARABDgEMAQ9BEIESwAA in Oriya2 lookup 0 subtable" uni0B35.base
EndChar

StartChar: uni0B36
Encoding: 2870 2870 50
Width: 741
GlyphClass: 2
Flags: W
AnchorPoint: "+BBEENQQ3BEsEPARPBD0EPQQ+BDUA--4" 679 0 basechar 0
AnchorPoint: "+BBEENQQ3BEsEPARPBD0EPQQ+BDUA--3" 601 0 basechar 0
AnchorPoint: "+BBEENQQ3BEsEPARPBD0EPQQ+BDUA--1" 357 658 basechar 0
AnchorPoint: "+BBEENQQ3BEsEPARPBD0EPQQ+BDUA--0" 640 658 basechar 0
LayerCount: 2
Fore
SplineSet
313 -8 m 256,0,1
 257 -8 257 -8 215 13.5 c 128,-1,2
 173 35 173 35 149.5 73 c 128,-1,3
 126 111 126 111 126 159 c 0,4,5
 126 178 126 178 131 197 c 1,6,7
 82 224 82 224 57 263.5 c 128,-1,8
 32 303 32 303 32 346 c 0,9,10
 32 407 32 407 72.5 444 c 128,-1,11
 113 481 113 481 173 494 c 1,12,13
 170 509 170 509 170 525 c 0,14,15
 170 588 170 588 217 627 c 128,-1,16
 264 666 264 666 346 666 c 0,17,18
 413 666 413 666 484 636.5 c 128,-1,19
 555 607 555 607 604 548 c 1,20,-1
 601 658 l 1,21,-1
 679 658 l 1,22,-1
 679 0 l 1,23,-1
 601 0 l 1,24,-1
 601 418 l 1,25,26
 584 479 584 479 544 519.5 c 128,-1,27
 504 560 504 560 453.5 580.5 c 128,-1,28
 403 601 403 601 355 601 c 0,29,30
 303 601 303 601 272.5 577.5 c 128,-1,31
 242 554 242 554 242 513 c 0,32,33
 242 507 242 507 243 501 c 1,34,35
 279 500 279 500 317 492.5 c 128,-1,36
 355 485 355 485 391 470 c 1,37,-1
 370 417 l 1,38,39
 340 428 340 428 310.5 433.5 c 128,-1,40
 281 439 281 439 253 439 c 0,41,42
 188 439 188 439 148 413.5 c 128,-1,43
 108 388 108 388 108 340 c 0,44,45
 108 287 108 287 156 254 c 1,46,47
 180 286 180 286 220.5 305 c 128,-1,48
 261 324 261 324 313 324 c 0,49,50
 369 324 369 324 410.5 302.5 c 128,-1,51
 452 281 452 281 475.5 244 c 128,-1,52
 499 207 499 207 499 159 c 256,53,54
 499 111 499 111 475.5 73 c 128,-1,55
 452 35 452 35 410.5 13.5 c 128,-1,56
 369 -8 369 -8 313 -8 c 256,0,1
314 54 m 0,57,58
 367 54 367 54 397 82.5 c 128,-1,59
 427 111 427 111 427 159 c 0,60,61
 427 205 427 205 397.5 234 c 128,-1,62
 368 263 368 263 313 263 c 0,63,64
 259 263 259 263 229 234 c 128,-1,65
 199 205 199 205 199 159 c 256,66,67
 199 113 199 113 229 83.5 c 128,-1,68
 259 54 259 54 314 54 c 0,57,58
EndSplineSet
Substitution2: "Single Substitution lookup 10 subtable" uni0B36.base
Substitution2: "'aalt' +BBIEQQQ1 +BDAEOwRMBEIENQRABD0EMARCBDgEMgQ9BEsENQAA +BDIEMARABDgEMAQ9BEIESwAA in Oriya2 lookup 0 subtable" uni0B36.base
EndChar

StartChar: uni0B37
Encoding: 2871 2871 51
Width: 741
GlyphClass: 2
Flags: W
AnchorPoint: "+BBEENQQ3BEsEPARPBD0EPQQ+BDUA--4" 679 0 basechar 0
AnchorPoint: "+BBEENQQ3BEsEPARPBD0EPQQ+BDUA--3" 601 0 basechar 0
AnchorPoint: "+BBEENQQ3BEsEPARPBD0EPQQ+BDUA--1" 335 658 basechar 0
AnchorPoint: "+BBEENQQ3BEsEPARPBD0EPQQ+BDUA--0" 640 658 basechar 0
LayerCount: 2
Fore
SplineSet
373 -7 m 0,0,1
 316 -7 316 -7 269 15 c 128,-1,2
 222 37 222 37 193.5 79 c 128,-1,3
 165 121 165 121 165 178 c 0,4,5
 165 185 165 185 165 192 c 1,6,7
 99 230 99 230 65.5 288 c 128,-1,8
 32 346 32 346 32 416 c 0,9,10
 32 476 32 476 56.5 522.5 c 128,-1,11
 81 569 81 569 123 601 c 128,-1,12
 165 633 165 633 218 649.5 c 128,-1,13
 271 666 271 666 329 666 c 0,14,15
 408 666 408 666 481.5 637 c 128,-1,16
 555 608 555 608 604 549 c 1,17,-1
 601 658 l 1,18,-1
 679 658 l 1,19,-1
 679 0 l 1,20,-1
 601 0 l 1,21,-1
 605 97 l 1,22,-1
 600 95 l 1,23,24
 556 43 556 43 495 18 c 128,-1,25
 434 -7 434 -7 373 -7 c 0,0,1
337 593 m 0,26,27
 290 593 290 593 248 580 c 1,28,-1
 572 158 l 1,29,30
 589 178 589 178 601 201 c 1,31,-1
 601 418 l 1,32,33
 585 475 585 475 545.5 514 c 128,-1,34
 506 553 506 553 452 573 c 128,-1,35
 398 593 398 593 337 593 c 0,26,27
112 402 m 0,36,37
 112 363 112 363 129.5 325.5 c 128,-1,38
 147 288 147 288 182 260 c 1,39,40
 221 345 221 345 322 386 c 1,41,-1
 192 553 l 1,42,43
 156 529 156 529 134 491 c 128,-1,44
 112 453 112 453 112 402 c 0,36,37
244 187 m 0,45,46
 244 148 244 148 264.5 121 c 128,-1,47
 285 94 285 94 316 80 c 128,-1,48
 347 66 347 66 381 66 c 0,49,50
 418 66 418 66 457 79 c 128,-1,51
 496 92 496 92 530 117 c 1,52,-1
 365 330 l 1,53,54
 312 310 312 310 278 272.5 c 128,-1,55
 244 235 244 235 244 187 c 0,45,46
EndSplineSet
Substitution2: "Single Substitution lookup 10 subtable" uni0B37.base
Substitution2: "'aalt' +BBIEQQQ1 +BDAEOwRMBEIENQRABD0EMARCBDgEMgQ9BEsENQAA +BDIEMARABDgEMAQ9BEIESwAA in Oriya2 lookup 0 subtable" uni0B37.base
EndChar

StartChar: uni0B38
Encoding: 2872 2872 52
Width: 694
GlyphClass: 2
Flags: W
AnchorPoint: "+BBEENQQ3BEsEPARPBD0EPQQ+BDUA--4" 633 0 basechar 0
AnchorPoint: "+BBEENQQ3BEsEPARPBD0EPQQ+BDUA--3" 555 0 basechar 0
AnchorPoint: "+BBEENQQ3BEsEPARPBD0EPQQ+BDUA--1" 295 658 basechar 0
AnchorPoint: "+BBEENQQ3BEsEPARPBD0EPQQ+BDUA--0" 594 658 basechar 0
LayerCount: 2
Fore
SplineSet
633 658 m 1,0,-1
 633 -12 l 1,1,-1
 592 -12 l 1,2,-1
 104 111 l 1,3,-1
 88 157 l 1,4,-1
 165 231 l 1,5,6
 98 269 98 269 65 324.5 c 128,-1,7
 32 380 32 380 32 442 c 0,8,9
 32 506 32 506 65.5 556.5 c 128,-1,10
 99 607 99 607 158 636.5 c 128,-1,11
 217 666 217 666 295 666 c 0,12,13
 367 666 367 666 438 637 c 128,-1,14
 509 608 509 608 558 549 c 1,15,-1
 555 658 l 1,16,-1
 633 658 l 1,0,-1
390 351 m 1,17,-1
 196 163 l 1,18,-1
 555 73 l 1,19,-1
 555 419 l 1,20,21
 538 478 538 478 497.5 516.5 c 128,-1,22
 457 555 457 555 405.5 574 c 128,-1,23
 354 593 354 593 303 593 c 0,24,25
 248 593 248 593 205 573.5 c 128,-1,26
 162 554 162 554 136.5 518.5 c 128,-1,27
 111 483 111 483 111 436 c 0,28,29
 111 391 111 391 136.5 349.5 c 128,-1,30
 162 308 162 308 212 277 c 1,31,-1
 343 402 l 1,32,-1
 390 351 l 1,17,-1
EndSplineSet
Substitution2: "Single Substitution lookup 10 subtable" uni0B38.base
Substitution2: "'aalt' +BBIEQQQ1 +BDAEOwRMBEIENQRABD0EMARCBDgEMgQ9BEsENQAA +BDIEMARABDgEMAQ9BEIESwAA in Oriya2 lookup 0 subtable" uni0B38.base
EndChar

StartChar: uni0B39
Encoding: 2873 2873 53
Width: 703
GlyphClass: 2
Flags: W
AnchorPoint: "+BBEENQQ3BEsEPARPBD0EPQQ+BDUA--4" 564 0 basechar 0
AnchorPoint: "+BBEENQQ3BEsEPARPBD0EPQQ+BDUA--3" 380 13 basechar 0
AnchorPoint: "+BBEENQQ3BEsEPARPBD0EPQQ+BDUA--1" 340 658 basechar 0
AnchorPoint: "+BBEENQQ3BEsEPARPBD0EPQQ+BDUA--0" 575 658 basechar 0
LayerCount: 2
Fore
SplineSet
117 79 m 1,0,-1
 110 124 l 1,1,-1
 210 196 l 1,2,3
 179 220 179 220 167 258 c 1,4,5
 98 284 98 284 65 334.5 c 128,-1,6
 32 385 32 385 32 442 c 0,7,8
 32 497 32 497 58 538.5 c 128,-1,9
 84 580 84 580 127.5 608.5 c 128,-1,10
 171 637 171 637 226.5 651 c 128,-1,11
 282 665 282 665 340 665 c 0,12,13
 401 665 401 665 460 649.5 c 128,-1,14
 519 634 519 634 566.5 601.5 c 128,-1,15
 614 569 614 569 642.5 520.5 c 128,-1,16
 671 472 671 472 671 406 c 0,17,18
 671 359 671 359 656 318 c 128,-1,19
 641 277 641 277 614 243 c 1,20,-1
 546 277 l 1,21,22
 567 304 567 304 579 335.5 c 128,-1,23
 591 367 591 367 591 402 c 0,24,25
 591 450 591 450 569 486 c 128,-1,26
 547 522 547 522 510.5 545.5 c 128,-1,27
 474 569 474 569 428.5 580.5 c 128,-1,28
 383 592 383 592 336 592 c 0,29,30
 278 592 278 592 226 574.5 c 128,-1,31
 174 557 174 557 141 522.5 c 128,-1,32
 108 488 108 488 108 437 c 0,33,34
 108 406 108 406 121.5 378 c 128,-1,35
 135 350 135 350 163 329 c 1,36,37
 171 367 171 367 198 402 c 128,-1,38
 225 437 225 437 274 460 c 1,39,-1
 304 410 l 1,40,41
 270 393 270 393 251.5 362 c 128,-1,42
 233 331 233 331 233 302 c 0,43,44
 233 272 233 272 253.5 249.5 c 128,-1,45
 274 227 274 227 318 227 c 0,46,47
 342 227 342 227 363.5 235.5 c 128,-1,48
 385 244 385 244 401 262 c 1,49,-1
 401 406 l 1,50,-1
 473 406 l 1,51,-1
 473 116 l 1,52,-1
 401 116 l 1,53,-1
 403 193 l 1,54,55
 363 167 363 167 307 167 c 0,56,57
 289 167 289 167 272 170 c 1,58,-1
 204 119 l 1,59,-1
 564 19 l 1,60,-1
 546 -41 l 1,61,-1
 117 79 l 1,0,-1
EndSplineSet
Substitution2: "Single Substitution lookup 10 subtable" uni0B39.base
Substitution2: "'aalt' +BBIEQQQ1 +BDAEOwRMBEIENQRABD0EMARCBDgEMgQ9BEsENQAA +BDIEMARABDgEMAQ9BEIESwAA in Oriya2 lookup 0 subtable" uni0B39.base
EndChar

StartChar: uni0B71
Encoding: 2929 2929 54
Width: 700
GlyphClass: 2
Flags: W
AnchorPoint: "+BBEENQQ3BEsEPARPBD0EPQQ+BDUA--4" 573 0 basechar 0
AnchorPoint: "+BBEENQQ3BEsEPARPBD0EPQQ+BDUA--3" 495 0 basechar 0
AnchorPoint: "+BBEENQQ3BEsEPARPBD0EPQQ+BDUA--1" 387 658 basechar 0
AnchorPoint: "+BBEENQQ3BEsEPARPBD0EPQQ+BDUA--0" 584 658 basechar 0
LayerCount: 2
Fore
SplineSet
340 40 m 0,0,1
 246 40 246 40 195 77.5 c 128,-1,2
 144 115 144 115 144 181 c 0,3,4
 144 217 144 217 160 253 c 1,5,6
 32 320 32 320 32 455 c 0,7,8
 32 515 32 515 57 573 c 128,-1,9
 82 631 82 631 129 684 c 1,10,-1
 192 650 l 1,11,12
 155 606 155 606 133.5 558.5 c 128,-1,13
 112 511 112 511 112 456 c 0,14,15
 112 393 112 393 149.5 350 c 128,-1,16
 187 307 187 307 254.5 284.5 c 128,-1,17
 322 262 322 262 410 262 c 0,18,19
 484 262 484 262 534 280 c 128,-1,20
 584 298 584 298 584 339 c 0,21,22
 584 364 584 364 565.5 378 c 128,-1,23
 547 392 547 392 517.5 398 c 128,-1,24
 488 404 488 404 454 404 c 0,25,26
 424 404 424 404 397.5 399.5 c 128,-1,27
 371 395 371 395 342 387 c 1,28,-1
 321 438 l 1,29,-1
 412 460 l 2,30,31
 457 470 457 470 493.5 481.5 c 128,-1,32
 530 493 530 493 551 509.5 c 128,-1,33
 572 526 572 526 572 551 c 0,34,35
 572 579 572 579 544.5 595.5 c 128,-1,36
 517 612 517 612 467 612 c 0,37,38
 419 612 419 612 390 596 c 128,-1,39
 361 580 361 580 361 548 c 0,40,41
 361 529 361 529 370 509 c 1,42,-1
 300 492 l 1,43,44
 286 526 286 526 286 553 c 0,45,46
 286 607 286 607 336.5 636.5 c 128,-1,47
 387 666 387 666 470 666 c 0,48,49
 555 666 555 666 603.5 637 c 128,-1,50
 652 608 652 608 652 560 c 0,51,52
 652 528 652 528 627 499 c 128,-1,53
 602 470 602 470 543 447 c 1,54,55
 606 434 606 434 634.5 404 c 128,-1,56
 663 374 663 374 663 337 c 0,57,58
 663 264 663 264 573 230 c 1,59,-1
 573 0 l 1,60,-1
 495 0 l 1,61,-1
 498 82 l 1,62,63
 465 62 465 62 423.5 51 c 128,-1,64
 382 40 382 40 340 40 c 0,0,1
401 204 m 0,65,66
 305 204 305 204 230 226 c 1,67,68
 223 204 223 204 223 185 c 0,69,70
 223 139 223 139 259.5 116.5 c 128,-1,71
 296 94 296 94 352 94 c 0,72,73
 391 94 391 94 430 107 c 128,-1,74
 469 120 469 120 495 146 c 1,75,-1
 495 210 l 1,76,77
 452 204 452 204 401 204 c 0,65,66
EndSplineSet
Substitution2: "Single Substitution lookup 10 subtable" uni0B71.base
Substitution2: "'aalt' +BBIEQQQ1 +BDAEOwRMBEIENQRABD0EMARCBDgEMgQ9BEsENQAA +BDIEMARABDgEMAQ9BEIESwAA in Oriya2 lookup 0 subtable" uni0B71.base
EndChar

StartChar: uni0B60
Encoding: 2912 2912 55
Width: 811
Flags: W
LayerCount: 2
Fore
SplineSet
313 -8 m 256,0,1
 257 -8 257 -8 215 15.5 c 128,-1,2
 173 39 173 39 149.5 80 c 128,-1,3
 126 121 126 121 126 174 c 0,4,5
 126 194 126 194 130 214 c 1,6,7
 80 254 80 254 56 303 c 128,-1,8
 32 352 32 352 32 404 c 0,9,10
 32 470 32 470 60.5 519 c 128,-1,11
 89 568 89 568 137.5 600.5 c 128,-1,12
 186 633 186 633 246 649.5 c 128,-1,13
 306 666 306 666 370 666 c 0,14,15
 459 666 459 666 531.5 636.5 c 128,-1,16
 604 607 604 607 646.5 553 c 128,-1,17
 689 499 689 499 689 427 c 0,18,19
 689 385 689 385 669 344 c 1,20,21
 721 335 721 335 749.5 306 c 128,-1,22
 778 277 778 277 778 239 c 0,23,24
 778 206 778 206 756.5 177.5 c 128,-1,25
 735 149 735 149 689 136 c 1,26,27
 719 122 719 122 736.5 99 c 128,-1,28
 754 76 754 76 754 45 c 0,29,30
 754 -4 754 -4 714 -34 c 128,-1,31
 674 -64 674 -64 608 -71 c 1,32,-1
 699 -183 l 1,33,-1
 636 -230 l 1,34,-1
 515 -64 l 1,35,-1
 542 -29 l 1,36,37
 599 -29 599 -29 636 -12.5 c 128,-1,38
 673 4 673 4 673 40 c 0,39,40
 673 72 673 72 641 89 c 128,-1,41
 609 106 609 106 560 106 c 1,42,-1
 567 157 l 1,43,44
 638 157 638 157 667.5 180.5 c 128,-1,45
 697 204 697 204 697 232 c 0,46,47
 697 257 697 257 672 277 c 128,-1,48
 647 297 647 297 597 300 c 2,49,-1
 580 301 l 1,50,51
 609 359 609 359 609 410 c 0,52,53
 609 470 609 470 575.5 511 c 128,-1,54
 542 552 542 552 487 572.5 c 128,-1,55
 432 593 432 593 367 593 c 0,56,57
 299 593 299 593 240 570 c 128,-1,58
 181 547 181 547 144.5 503 c 128,-1,59
 108 459 108 459 108 394 c 0,60,61
 108 327 108 327 155 276 c 1,62,63
 179 313 179 313 219.5 334 c 128,-1,64
 260 355 260 355 313 355 c 0,65,66
 369 355 369 355 410.5 331.5 c 128,-1,67
 452 308 452 308 475 267 c 128,-1,68
 498 226 498 226 498 174 c 0,69,70
 498 121 498 121 475 80 c 128,-1,71
 452 39 452 39 410.5 15.5 c 128,-1,72
 369 -8 369 -8 313 -8 c 256,0,1
313 57 m 0,73,74
 365 57 365 57 394 89.5 c 128,-1,75
 423 122 423 122 423 174 c 0,76,77
 423 225 423 225 394 257 c 128,-1,78
 365 289 365 289 313 289 c 0,79,80
 260 289 260 289 230.5 257 c 128,-1,81
 201 225 201 225 201 174 c 256,82,83
 201 123 201 123 230.5 90 c 128,-1,84
 260 57 260 57 313 57 c 0,73,74
EndSplineSet
EndChar

StartChar: uni0B61
Encoding: 2913 2913 56
Width: 591
Flags: W
LayerCount: 2
Fore
SplineSet
426 -138 m 1,0,1
 395 -107 395 -107 367.5 -74 c 128,-1,2
 340 -41 340 -41 319 -8 c 1,3,4
 311 -8 311 -8 302 -8 c 0,5,6
 171 -8 171 -8 103.5 44 c 128,-1,7
 36 96 36 96 36 185 c 0,8,9
 36 233 36 233 53 264 c 128,-1,10
 70 295 70 295 97 314 c 128,-1,11
 124 333 124 333 154.5 344 c 128,-1,12
 185 355 185 355 211 364 c 2,13,-1
 279 385 l 2,14,15
 326 399 326 399 355 422.5 c 128,-1,16
 384 446 384 446 384 498 c 0,17,18
 384 544 384 544 358 572.5 c 128,-1,19
 332 601 332 601 278 601 c 0,20,21
 227 601 227 601 197 573.5 c 128,-1,22
 167 546 167 546 167 498 c 0,23,24
 167 483 167 483 170.5 466 c 128,-1,25
 174 449 174 449 184 430 c 1,26,-1
 108 408 l 1,27,28
 99 429 99 429 93 453 c 128,-1,29
 87 477 87 477 87 502 c 0,30,31
 87 578 87 578 139 622 c 128,-1,32
 191 666 191 666 279 666 c 0,33,34
 345 666 345 666 385.5 643 c 128,-1,35
 426 620 426 620 444.5 582.5 c 128,-1,36
 463 545 463 545 463 500 c 0,37,38
 463 443 463 443 439 409 c 128,-1,39
 415 375 415 375 379.5 357 c 128,-1,40
 344 339 344 339 309 328 c 2,41,-1
 257 311 l 2,42,43
 215 298 215 298 181 284 c 128,-1,44
 147 270 147 270 127 247.5 c 128,-1,45
 107 225 107 225 107 185 c 0,46,47
 107 128 107 128 152.5 92 c 128,-1,48
 198 56 198 56 288 51 c 1,49,50
 266 103 266 103 266 148 c 0,51,52
 266 213 266 213 308 250 c 128,-1,53
 350 287 350 287 417 287 c 256,54,55
 484 287 484 287 521 252 c 128,-1,56
 558 217 558 217 558 159 c 0,57,58
 558 96 558 96 514 54.5 c 128,-1,59
 470 13 470 13 388 -1 c 1,60,61
 421 -47 421 -47 470 -95 c 1,62,-1
 426 -138 l 1,0,1
329 142 m 0,63,64
 329 102 329 102 355 53 c 1,65,66
 424 59 424 59 459.5 87 c 128,-1,67
 495 115 495 115 495 157 c 0,68,69
 495 191 495 191 474 211.5 c 128,-1,70
 453 232 453 232 416 232 c 0,71,72
 377 232 377 232 353 207.5 c 128,-1,73
 329 183 329 183 329 142 c 0,63,64
EndSplineSet
EndChar

StartChar: uni0B3C
Encoding: 2876 2876 57
Width: 0
GlyphClass: 4
Flags: W
AnchorPoint: "+BBEENQQ3BEsEPARPBD0EPQQ+BDUA--6" -305.5 -112 mark 0
AnchorPoint: "+BBEENQQ3BEsEPARPBD0EPQQ+BDUA--2" -305.5 -112 mark 0
LayerCount: 2
Fore
SplineSet
-305.5 -162 m 0,0,1
 -324 -162 -324 -162 -339.5 -147.5 c 0,2,3
 -355 -132 -355 -132 -354.5 -112 c 128,-1,4
 -354 -92 -354 -92 -340 -77 c 128,-1,5
 -326 -62 -326 -62 -305.5 -62 c 256,6,7
 -286 -62 -286 -62 -270.5 -77 c 0,8,9
 -256 -92 -256 -92 -255.5 -112 c 0,10,11
 -256 -134 -256 -134 -269.5 -148 c 0,12,13
 -284 -162 -284 -162 -305.5 -162 c 0,0,1
EndSplineSet
EndChar

StartChar: uni0B3D
Encoding: 2877 2877 58
Width: 405
Flags: W
LayerCount: 2
Fore
SplineSet
335 -8 m 1,0,-1
 36 139 l 1,1,-1
 36 197 l 1,2,-1
 285 327 l 1,3,-1
 36 458 l 1,4,-1
 36 516 l 1,5,-1
 335 666 l 1,6,-1
 367 603 l 1,7,-1
 128 479 l 1,8,-1
 362 358 l 1,9,-1
 362 300 l 1,10,-1
 127 176 l 1,11,-1
 367 55 l 1,12,-1
 335 -8 l 1,0,-1
EndSplineSet
EndChar

StartChar: uni0B3E
Encoding: 2878 2878 59
Width: 201
GlyphClass: 2
Flags: W
AnchorPoint: "+BBEENQQ3BEsEPARPBD0EPQQ+BDUA--0" 100 658 basechar 0
LayerCount: 2
Fore
SplineSet
139 658 m 5,0,-1
 139 0 l 1,1,-1
 61 0 l 1,2,-1
 61 658 l 5,3,-1
 139 658 l 5,0,-1
EndSplineSet
EndChar

StartChar: uni0B3F
Encoding: 2879 2879 60
Width: 0
GlyphClass: 4
Flags: W
AnchorPoint: "+BBEENQQ3BEsEPARPBD0EPQQ+BDUA--7" 300 658 mark 0
AnchorPoint: "+BBEENQQ3BEsEPARPBD0EPQQ+BDUA--1" 300 658 mark 0
LayerCount: 2
Fore
SplineSet
16 756 m 1,0,1
 76 806 76 806 150 832.5 c 128,-1,2
 224 859 224 859 301 859 c 0,3,4
 379 859 379 859 452 832.5 c 128,-1,5
 525 806 525 806 584 756 c 1,6,-1
 546 702 l 1,7,8
 498 745 498 745 434 768 c 128,-1,9
 370 791 370 791 301 791 c 0,10,11
 231 791 231 791 166.5 768 c 128,-1,12
 102 745 102 745 54 702 c 1,13,-1
 16 756 l 1,0,1
EndSplineSet
Substitution2: "Single Substitution lookup 23 subtable" uni0B3F.wide
Substitution2: "Single Substitution lookup 16 subtable" uni0B3F.below
AlternateSubs2: "'aalt' +BBIEQQQ1 +BDAEOwRMBEIENQRABD0EMARCBDgEMgQ9BEsENQAA +BDIEMARABDgEMAQ9BEIESwAA in Oriya2 lookup 1 subtable" uni0B3F.wide uni0B3F.below
EndChar

StartChar: uni0B3F.wide
Encoding: 65537 -1 61
Width: 0
GlyphClass: 4
Flags: W
AnchorPoint: "+BBEENQQ3BEsEPARPBD0EPQQ+BDUA--7" 338 658 mark 0
AnchorPoint: "+BBEENQQ3BEsEPARPBD0EPQQ+BDUA--1" 338 658 mark 0
LayerCount: 2
Fore
SplineSet
24 755 m 1,0,1
 87 806 87 806 169 832.5 c 128,-1,2
 251 859 251 859 337 859 c 0,3,4
 424 859 424 859 505.5 832.5 c 128,-1,5
 587 806 587 806 651 755 c 1,6,-1
 612 702 l 1,7,8
 560 745 560 745 488 768 c 128,-1,9
 416 791 416 791 338 791 c 256,10,11
 260 791 260 791 187.5 768 c 128,-1,12
 115 745 115 745 62 702 c 1,13,-1
 24 755 l 1,0,1
EndSplineSet
EndChar

StartChar: uni0B40
Encoding: 2880 2880 62
Width: 312
GlyphClass: 2
Flags: W
AnchorPoint: "+BBEENQQ3BEsEPARPBD0EPQQ+BDUA--0" 215 658 basechar 0
LayerCount: 2
Fore
SplineSet
251 0 m 1,0,-1
 173 0 l 1,1,-1
 173 572 l 1,2,-1
 36 481 l 1,3,-1
 -2 539 l 1,4,-1
 178 658 l 1,5,-1
 251 658 l 1,6,-1
 251 0 l 1,0,-1
EndSplineSet
EndChar

StartChar: uni0B41
Encoding: 2881 2881 63
Width: 0
GlyphClass: 4
Flags: W
AnchorPoint: "+BBEENQQ3BEsEPARPBD0EPQQ+BDUA--8" 391 0 mark 0
AnchorPoint: "+BBEENQQ3BEsEPARPBD0EPQQ+BDUA--3" 391 0 mark 0
LayerCount: 2
Fore
SplineSet
284 -247 m 0,0,1
 228 -247 228 -247 196 -217 c 128,-1,2
 164 -187 164 -187 164 -146 c 0,3,4
 164 -108 164 -108 191.5 -78.5 c 128,-1,5
 219 -49 219 -49 273 -49 c 0,6,7
 305 -49 305 -49 331.5 -59.5 c 128,-1,8
 358 -70 358 -70 382 -86 c 1,9,10
 387 -66 387 -66 389 -44 c 128,-1,11
 391 -22 391 -22 391 0 c 1,12,-1
 469 21 l 1,13,-1
 469 0 l 2,14,15
 469 -74 469 -74 444 -132 c 1,16,17
 470 -152 470 -152 496.5 -167 c 128,-1,18
 523 -182 523 -182 553 -182 c 0,19,20
 564 -182 564 -182 579.5 -179.5 c 128,-1,21
 595 -177 595 -177 609 -173 c 1,22,-1
 630 -231 l 1,23,24
 598 -247 598 -247 560 -247 c 0,25,26
 515 -247 515 -247 479.5 -227.5 c 128,-1,27
 444 -208 444 -208 414 -183 c 1,28,29
 362 -247 362 -247 284 -247 c 0,0,1
223 -147 m 0,30,31
 223 -166 223 -166 239.5 -179.5 c 128,-1,32
 256 -193 256 -193 284 -193 c 0,33,34
 311 -193 311 -193 330.5 -179 c 128,-1,35
 350 -165 350 -165 362 -141 c 1,36,37
 341 -125 341 -125 320 -114 c 128,-1,38
 299 -103 299 -103 276 -103 c 0,39,40
 250 -103 250 -103 236.5 -116 c 128,-1,41
 223 -129 223 -129 223 -147 c 0,30,31
EndSplineSet
EndChar

StartChar: uni0B42
Encoding: 2882 2882 64
Width: 0
GlyphClass: 4
Flags: W
AnchorPoint: "+BBEENQQ3BEsEPARPBD0EPQQ+BDUA--8" 382 0 mark 0
AnchorPoint: "+BBEENQQ3BEsEPARPBD0EPQQ+BDUA--3" 382 0 mark 0
LayerCount: 2
Fore
SplineSet
222 -137 m 0,0,1
 222 -90 222 -90 261 -62 c 128,-1,2
 300 -34 300 -34 382 -31 c 1,3,-1
 382 0 l 1,4,-1
 460 21 l 1,5,-1
 460 -83 l 1,6,7
 377 -83 377 -83 336.5 -93.5 c 128,-1,8
 296 -104 296 -104 296 -135 c 0,9,10
 296 -162 296 -162 317.5 -174 c 128,-1,11
 339 -186 339 -186 371 -186 c 0,12,13
 407 -186 407 -186 441.5 -173.5 c 128,-1,14
 476 -161 476 -161 501 -140 c 1,15,16
 528 -158 528 -158 554.5 -171 c 128,-1,17
 581 -184 581 -184 609 -184 c 0,18,19
 621 -184 621 -184 635.5 -181.5 c 128,-1,20
 650 -179 650 -179 666 -174 c 1,21,-1
 687 -231 l 1,22,23
 654 -248 654 -248 618 -248 c 0,24,25
 584 -248 584 -248 555 -234.5 c 128,-1,26
 526 -221 526 -221 501 -201 c 1,27,28
 471 -222 471 -222 435 -235 c 128,-1,29
 399 -248 399 -248 359 -248 c 0,30,31
 302 -248 302 -248 262 -220 c 128,-1,32
 222 -192 222 -192 222 -137 c 0,0,1
EndSplineSet
EndChar

StartChar: uni0B43
Encoding: 2883 2883 65
Width: 0
GlyphClass: 4
Flags: W
AnchorPoint: "+BBEENQQ3BEsEPARPBD0EPQQ+BDUA--8" 410 0 mark 0
AnchorPoint: "+BBEENQQ3BEsEPARPBD0EPQQ+BDUA--3" 410 0 mark 0
LayerCount: 2
Fore
SplineSet
468 -69 m 1,0,1
 524 -71 524 -71 555.5 -94.5 c 128,-1,2
 587 -118 587 -118 587 -156 c 0,3,4
 586 -204 586 -204 538.5 -230 c 128,-1,5
 491 -256 491 -256 421 -256 c 0,6,7
 348 -256 348 -256 298 -225.5 c 128,-1,8
 248 -195 248 -195 248 -139 c 0,9,10
 248 -88 248 -88 293.5 -54.5 c 128,-1,11
 339 -21 339 -21 410 -13 c 1,12,-1
 424 -62 l 1,13,14
 379 -69 379 -69 350.5 -89 c 128,-1,15
 322 -109 322 -109 322 -139 c 0,16,17
 322 -168 322 -168 351 -185.5 c 128,-1,18
 380 -203 380 -203 425 -203 c 0,19,20
 464 -203 464 -203 491 -191 c 128,-1,21
 518 -179 518 -179 518 -157 c 0,22,23
 518 -124 518 -124 459 -120 c 1,24,-1
 468 -69 l 1,0,1
EndSplineSet
EndChar

StartChar: uni0B44
Encoding: 2884 2884 66
Width: 0
GlyphClass: 4
Flags: W
AnchorPoint: "+BBEENQQ3BEsEPARPBD0EPQQ+BDUA--8" 390 0 mark 0
AnchorPoint: "+BBEENQQ3BEsEPARPBD0EPQQ+BDUA--3" 390 0 mark 0
LayerCount: 2
Fore
SplineSet
233 -180 m 0,0,1
 233 -132 233 -132 299 -113 c 1,2,3
 239 -101 239 -101 239 -68 c 0,4,5
 239 -41 239 -41 278.5 -25.5 c 128,-1,6
 318 -10 318 -10 390 -10 c 1,7,-1
 397 -49 l 1,8,9
 354 -49 354 -49 330.5 -54.5 c 128,-1,10
 307 -60 307 -60 307 -72 c 256,11,12
 307 -84 307 -84 326.5 -89.5 c 128,-1,13
 346 -95 346 -95 390 -96 c 1,14,-1
 397 -134 l 1,15,16
 348 -135 348 -135 325 -145.5 c 128,-1,17
 302 -156 302 -156 302 -174 c 0,18,19
 302 -193 302 -193 332 -204 c 128,-1,20
 362 -215 362 -215 408 -215 c 0,21,22
 448 -215 448 -215 473.5 -206.5 c 128,-1,23
 499 -198 499 -198 499 -183 c 0,24,25
 499 -162 499 -162 442 -158 c 1,26,-1
 448 -117 l 1,27,28
 507 -119 507 -119 532 -138.5 c 128,-1,29
 557 -158 557 -158 557 -185 c 0,30,31
 557 -221 557 -221 514.5 -242.5 c 128,-1,32
 472 -264 472 -264 400 -264 c 256,33,34
 328 -264 328 -264 280.5 -242 c 128,-1,35
 233 -220 233 -220 233 -180 c 0,0,1
EndSplineSet
EndChar

StartChar: uni0B62
Encoding: 2914 2914 67
Width: 0
GlyphClass: 4
Flags: W
AnchorPoint: "+BBEENQQ3BEsEPARPBD0EPQQ+BDUA--8" 366 0 mark 0
AnchorPoint: "+BBEENQQ3BEsEPARPBD0EPQQ+BDUA--3" 366 0 mark 0
LayerCount: 2
Fore
SplineSet
521 -178 m 0,0,1
 521 -242 521 -242 374 -242 c 0,2,3
 292 -242 292 -242 246 -221.5 c 128,-1,4
 200 -201 200 -201 200 -162 c 0,5,6
 200 -135 200 -135 218.5 -120 c 128,-1,7
 237 -105 237 -105 263.5 -97.5 c 128,-1,8
 290 -90 290 -90 314 -86 c 2,9,-1
 372 -76 l 2,10,11
 385 -74 385 -74 398 -69.5 c 128,-1,12
 411 -65 411 -65 411 -55 c 256,13,14
 411 -45 411 -45 396.5 -41.5 c 128,-1,15
 382 -38 382 -38 363 -38 c 0,16,17
 338 -38 338 -38 311.5 -43 c 128,-1,18
 285 -48 285 -48 272 -52 c 1,19,-1
 262 -16 l 1,20,21
 286 -9 286 -9 313 -4.5 c 128,-1,22
 340 0 340 0 368 0 c 0,23,24
 410 0 410 0 441 -12 c 128,-1,25
 472 -24 472 -24 472 -54 c 0,26,27
 472 -76 472 -76 455.5 -88 c 128,-1,28
 439 -100 439 -100 417 -105.5 c 128,-1,29
 395 -111 395 -111 381 -114 c 2,30,-1
 328 -123 l 2,31,32
 315 -125 315 -125 299.5 -129 c 128,-1,33
 284 -133 284 -133 272.5 -140.5 c 128,-1,34
 261 -148 261 -148 261 -162 c 0,35,36
 261 -183 261 -183 294 -193 c 128,-1,37
 327 -203 327 -203 373 -204 c 1,38,39
 367 -190 367 -190 367 -178 c 0,40,41
 367 -152 367 -152 388 -138 c 128,-1,42
 409 -124 409 -124 442 -124 c 0,43,44
 472 -124 472 -124 496.5 -137 c 128,-1,45
 521 -150 521 -150 521 -178 c 0,0,1
409 -182 m 0,46,47
 409 -192 409 -192 414 -203 c 1,48,49
 441 -201 441 -201 458 -194.5 c 128,-1,50
 475 -188 475 -188 475 -177 c 0,51,52
 475 -168 475 -168 465 -162.5 c 128,-1,53
 455 -157 455 -157 442 -157 c 0,54,55
 427 -157 427 -157 418 -163.5 c 128,-1,56
 409 -170 409 -170 409 -182 c 0,46,47
EndSplineSet
EndChar

StartChar: uni0B63
Encoding: 2915 2915 68
Width: 0
GlyphClass: 4
Flags: W
AnchorPoint: "+BBEENQQ3BEsEPARPBD0EPQQ+BDUA--8" 400 0 mark 0
AnchorPoint: "+BBEENQQ3BEsEPARPBD0EPQQ+BDUA--3" 400 0 mark 0
LayerCount: 2
Fore
SplineSet
234 -162 m 0,0,1
 234 -135 234 -135 252.5 -120 c 128,-1,2
 271 -105 271 -105 297.5 -97.5 c 128,-1,3
 324 -90 324 -90 348 -86 c 2,4,-1
 406 -76 l 2,5,6
 419 -74 419 -74 432 -69.5 c 128,-1,7
 445 -65 445 -65 445 -55 c 256,8,9
 445 -45 445 -45 430.5 -41.5 c 128,-1,10
 416 -38 416 -38 398 -38 c 0,11,12
 372 -38 372 -38 345.5 -43 c 128,-1,13
 319 -48 319 -48 306 -52 c 1,14,-1
 296 -16 l 1,15,16
 320 -9 320 -9 347 -4.5 c 128,-1,17
 374 0 374 0 402 0 c 0,18,19
 443 0 443 0 474.5 -12 c 128,-1,20
 506 -24 506 -24 506 -54 c 0,21,22
 506 -76 506 -76 489.5 -88 c 128,-1,23
 473 -100 473 -100 451 -105.5 c 128,-1,24
 429 -111 429 -111 415 -114 c 2,25,-1
 362 -123 l 2,26,27
 349 -125 349 -125 333.5 -129 c 128,-1,28
 318 -133 318 -133 306.5 -140.5 c 128,-1,29
 295 -148 295 -148 295 -162 c 0,30,31
 295 -183 295 -183 328 -193 c 128,-1,32
 361 -203 361 -203 407 -204 c 1,33,34
 401 -189 401 -189 401 -177 c 0,35,36
 401 -153 401 -153 421 -138.5 c 128,-1,37
 441 -124 441 -124 475 -124 c 0,38,39
 506 -124 506 -124 530.5 -137 c 128,-1,40
 555 -150 555 -150 555 -178 c 0,41,42
 555 -224 555 -224 477 -237 c 1,43,44
 493 -251 493 -251 516 -265 c 1,45,-1
 490 -292 l 1,46,47
 470 -279 470 -279 455.5 -266.5 c 128,-1,48
 441 -254 441 -254 430 -241 c 1,49,50
 420 -242 420 -242 408 -242 c 0,51,52
 327 -242 327 -242 280.5 -221.5 c 128,-1,53
 234 -201 234 -201 234 -162 c 0,0,1
443 -182 m 0,54,55
 443 -191 443 -191 449 -203 c 1,56,57
 475 -200 475 -200 492 -194 c 128,-1,58
 509 -188 509 -188 509 -177 c 0,59,60
 509 -168 509 -168 499 -162.5 c 128,-1,61
 489 -157 489 -157 476 -157 c 0,62,63
 461 -157 461 -157 452 -163.5 c 128,-1,64
 443 -170 443 -170 443 -182 c 0,54,55
EndSplineSet
EndChar

StartChar: uni0B47
Encoding: 2887 2887 69
Width: 534
Flags: W
LayerCount: 2
Fore
SplineSet
482 177 m 0,0,1
 482 96 482 96 431 44 c 128,-1,2
 380 -8 380 -8 287 -8 c 0,3,4
 170 -8 170 -8 103 75.5 c 128,-1,5
 36 159 36 159 36 310 c 0,6,7
 36 428 36 428 77 507.5 c 128,-1,8
 118 587 118 587 189.5 626.5 c 128,-1,9
 261 666 261 666 351 666 c 0,10,11
 392 666 392 666 432.5 657.5 c 128,-1,12
 473 649 473 649 508 631 c 1,13,-1
 478 564 l 1,14,15
 421 593 421 593 351 593 c 0,16,17
 252 593 252 593 191.5 530 c 128,-1,18
 131 467 131 467 119 359 c 1,19,20
 190 375 190 375 248 375 c 0,21,22
 354 375 354 375 418 322 c 128,-1,23
 482 269 482 269 482 177 c 0,0,1
240 305 m 0,24,25
 214 305 214 305 182 300.5 c 128,-1,26
 150 296 150 296 116 288 c 1,27,28
 120 187 120 187 161.5 126.5 c 128,-1,29
 203 66 203 66 283 66 c 0,30,31
 337 66 337 66 369.5 95.5 c 128,-1,32
 402 125 402 125 402 176 c 0,33,34
 402 234 402 234 358.5 269.5 c 128,-1,35
 315 305 315 305 240 305 c 0,24,25
EndSplineSet
EndChar

StartChar: uni0B56
Encoding: 2902 2902 73
Width: 0
GlyphClass: 4
Flags: W
AnchorPoint: "+BBEENQQ3BEsEPARPBD0EPQQ+BDUA--5" 528 658 mark 0
AnchorPoint: "+BBEENQQ3BEsEPARPBD0EPQQ+BDUA--0" 528 658 mark 0
LayerCount: 2
Fore
SplineSet
504 708 m 1,0,1
 514 734 514 734 514 756 c 0,2,3
 514 786 514 786 495.5 806 c 128,-1,4
 477 826 477 826 438 826 c 0,5,6
 402 826 402 826 357.5 811.5 c 128,-1,7
 313 797 313 797 264.5 782 c 128,-1,8
 216 767 216 767 168 767 c 0,9,10
 128 767 128 767 87 785 c 128,-1,11
 46 803 46 803 23 853 c 1,12,-1
 89 894 l 1,13,14
 105 865 105 865 128.5 853 c 128,-1,15
 152 841 152 841 179 841 c 0,16,17
 205 841 205 841 238 849.5 c 128,-1,18
 271 858 271 858 308 870 c 128,-1,19
 345 882 345 882 382.5 890.5 c 128,-1,20
 420 899 420 899 455 899 c 0,21,22
 524 899 524 899 558.5 861.5 c 128,-1,23
 593 824 593 824 593 772 c 0,24,25
 593 731 593 731 575 692 c 1,26,-1
 504 708 l 1,0,1
EndSplineSet
Substitution2: "Single Substitution lookup 21 subtable" uni0B56.stem
Substitution2: "Single Substitution lookup 20 subtable" uni0B56.umbrella
AlternateSubs2: "'aalt' +BBIEQQQ1 +BDAEOwRMBEIENQRABD0EMARCBDgEMgQ9BEsENQAA +BDIEMARABDgEMAQ9BEIESwAA in Oriya2 lookup 1 subtable" uni0B56.stem uni0B56.umbrella
EndChar

StartChar: uni0B56.stem
Encoding: 65538 -1 74
Width: 0
GlyphClass: 4
Flags: W
AnchorPoint: "+BBEENQQ3BEsEPARPBD0EPQQ+BDUA--5" 483 658 mark 0
AnchorPoint: "+BBEENQQ3BEsEPARPBD0EPQQ+BDUA--0" 483 658 mark 0
LayerCount: 2
Fore
SplineSet
444 658 m 1,0,1
 481 679 481 679 500.5 708.5 c 128,-1,2
 520 738 520 738 520 764 c 256,3,4
 520 790 520 790 501 808 c 128,-1,5
 482 826 482 826 445 826 c 256,6,7
 408 826 408 826 363.5 811.5 c 128,-1,8
 319 797 319 797 271 782 c 128,-1,9
 223 767 223 767 174 767 c 0,10,11
 134 767 134 767 93 785 c 128,-1,12
 52 803 52 803 29 853 c 1,13,-1
 95 894 l 1,14,15
 112 865 112 865 135 853 c 128,-1,16
 158 841 158 841 185 841 c 0,17,18
 211 841 211 841 244 849.5 c 128,-1,19
 277 858 277 858 314 870 c 128,-1,20
 351 882 351 882 389 890.5 c 128,-1,21
 427 899 427 899 462 899 c 0,22,23
 531 899 531 899 565 865 c 128,-1,24
 599 831 599 831 599 784 c 0,25,26
 599 746 599 746 576.5 706.5 c 128,-1,27
 554 667 554 667 509 638 c 1,28,-1
 444 658 l 1,0,1
EndSplineSet
EndChar

StartChar: uni0B56.umbrella
Encoding: 65539 -1 75
Width: 0
GlyphClass: 4
Flags: W
AnchorPoint: "+BBEENQQ3BEsEPARPBD0EPQQ+BDUA--5" 523 658 mark 0
AnchorPoint: "+BBEENQQ3BEsEPARPBD0EPQQ+BDUA--0" 523 658 mark 0
LayerCount: 2
Fore
SplineSet
426 616 m 1,0,1
 468 650 468 650 491 686.5 c 128,-1,2
 514 723 514 723 514 756 c 0,3,4
 514 786 514 786 495.5 806 c 128,-1,5
 477 826 477 826 438 826 c 0,6,7
 402 826 402 826 357.5 811.5 c 128,-1,8
 313 797 313 797 264.5 782 c 128,-1,9
 216 767 216 767 168 767 c 0,10,11
 128 767 128 767 87 785 c 128,-1,12
 46 803 46 803 23 853 c 1,13,-1
 89 894 l 1,14,15
 105 865 105 865 128.5 853 c 128,-1,16
 152 841 152 841 179 841 c 0,17,18
 205 841 205 841 238 849.5 c 128,-1,19
 271 858 271 858 308 870 c 128,-1,20
 345 882 345 882 382.5 890.5 c 128,-1,21
 420 899 420 899 455 899 c 0,22,23
 524 899 524 899 558.5 861.5 c 128,-1,24
 593 824 593 824 593 772 c 0,25,26
 593 726 593 726 566.5 676.5 c 128,-1,27
 540 627 540 627 486 586 c 1,28,-1
 426 616 l 1,0,1
EndSplineSet
EndChar

StartChar: uni0B57
Encoding: 2903 2903 76
Width: 201
Flags: W
LayerCount: 2
Fore
SplineSet
61 694 m 1,0,1
 93 706 93 706 110 726 c 128,-1,2
 127 746 127 746 127 769 c 0,3,4
 127 796 127 796 106.5 811 c 128,-1,5
 86 826 86 826 51 826 c 0,6,7
 17 826 17 826 -27.5 811.5 c 128,-1,8
 -72 797 -72 797 -120.5 782 c 128,-1,9
 -169 767 -169 767 -218 767 c 0,10,11
 -258 767 -258 767 -298.5 785 c 128,-1,12
 -339 803 -339 803 -362 853 c 1,13,-1
 -296 894 l 1,14,15
 -280 865 -280 865 -256.5 853 c 128,-1,16
 -233 841 -233 841 -207 841 c 0,17,18
 -180 841 -180 841 -147 849.5 c 128,-1,19
 -114 858 -114 858 -77 870 c 128,-1,20
 -40 882 -40 882 -2.5 890.5 c 128,-1,21
 35 899 35 899 71 899 c 0,22,23
 134 899 134 899 170.5 867 c 128,-1,24
 207 835 207 835 207 785 c 0,25,26
 207 719 207 719 139 679 c 1,27,-1
 139 0 l 1,28,-1
 61 0 l 1,29,-1
 61 694 l 1,0,1
EndSplineSet
EndChar

StartChar: uni0B4D
Encoding: 2893 2893 77
Width: 0
GlyphClass: 4
Flags: W
AnchorPoint: "+BBEENQQ3BEsEPARPBD0EPQQ+BDUA--8" 24 0 mark 0
AnchorPoint: "+BBEENQQ3BEsEPARPBD0EPQQ+BDUA--3" 24 0 mark 0
LayerCount: 2
Fore
SplineSet
72 -33 m 1,0,-1
 179 -177 l 1,1,-1
 132 -212 l 1,2,-1
 20 -70 l 1,3,-1
 72 -33 l 1,0,-1
EndSplineSet
EndChar

StartChar: uni0B5F
Encoding: 2911 2911 78
Width: 848
GlyphClass: 2
Flags: W
AnchorPoint: "+BBEENQQ3BEsEPARPBD0EPQQ+BDUA--4" 684 0 basechar 0
AnchorPoint: "+BBEENQQ3BEsEPARPBD0EPQQ+BDUA--3" 383 0 basechar 0
AnchorPoint: "+BBEENQQ3BEsEPARPBD0EPQQ+BDUA--1" 388 658 basechar 0
AnchorPoint: "+BBEENQQ3BEsEPARPBD0EPQQ+BDUA--0" 684 658 basechar 0
LayerCount: 2
Fore
SplineSet
400 -8 m 0,0,1
 344 -8 344 -8 303 16.5 c 128,-1,2
 262 41 262 41 240 82.5 c 128,-1,3
 218 124 218 124 218 174 c 0,4,5
 218 211 218 211 230 244 c 1,6,7
 191 218 191 218 159 190 c 128,-1,8
 127 162 127 162 107 137 c 1,9,10
 126 128 126 128 134.5 113.5 c 128,-1,11
 143 99 143 99 143 83 c 0,12,13
 143 58 143 58 126 43.5 c 128,-1,14
 109 29 109 29 86 29 c 0,15,16
 61 29 61 29 42.5 45.5 c 128,-1,17
 24 62 24 62 24 90 c 0,18,19
 24 123 24 123 56.5 170 c 128,-1,20
 89 217 89 217 151 266 c 1,21,22
 114 298 114 298 95 340.5 c 128,-1,23
 76 383 76 383 76 430 c 0,24,25
 76 487 76 487 100 531 c 128,-1,26
 124 575 124 575 165.5 605 c 128,-1,27
 207 635 207 635 259.5 650.5 c 128,-1,28
 312 666 312 666 369 666 c 0,29,30
 448 666 448 666 522.5 636.5 c 128,-1,31
 597 607 597 607 648 547 c 1,32,-1
 645 658 l 1,33,-1
 723 658 l 1,34,-1
 723 237 l 1,35,36
 766 228 766 228 791 197.5 c 128,-1,37
 816 167 816 167 816 128 c 0,38,39
 816 94 816 94 795.5 62.5 c 128,-1,40
 775 31 775 31 733 14 c 1,41,-1
 820 -10 l 1,42,-1
 803 -65 l 1,43,-1
 606 -10 l 1,44,-1
 622 39 l 1,45,46
 678 39 678 39 707.5 61.5 c 128,-1,47
 737 84 737 84 737 115 c 0,48,49
 737 137 737 137 721 152 c 128,-1,50
 705 167 705 167 678 167 c 0,51,52
 649 167 649 167 627.5 149.5 c 128,-1,53
 606 132 606 132 586 105.5 c 128,-1,54
 566 79 566 79 542 53 c 128,-1,55
 518 27 518 27 484 9.5 c 128,-1,56
 450 -8 450 -8 400 -8 c 0,0,1
294 176 m 0,57,58
 294 129 294 129 324.5 97 c 128,-1,59
 355 65 355 65 405 65 c 0,60,61
 439 65 439 65 464 79 c 128,-1,62
 489 93 489 93 509.5 114.5 c 128,-1,63
 530 136 530 136 550 159.5 c 128,-1,64
 570 183 570 183 593 202.5 c 128,-1,65
 616 222 616 222 645 232 c 1,66,-1
 645 417 l 1,67,68
 627 477 627 477 585 516 c 128,-1,69
 543 555 543 555 488.5 574 c 128,-1,70
 434 593 434 593 379 593 c 0,71,72
 317 593 317 593 266.5 571 c 128,-1,73
 216 549 216 549 185.5 509 c 128,-1,74
 155 469 155 469 155 416 c 0,75,76
 155 350 155 350 202 303 c 1,77,78
 241 328 241 328 288.5 352 c 128,-1,79
 336 376 336 376 392 397 c 1,80,-1
 420 333 l 1,81,82
 358 311 358 311 326 266.5 c 128,-1,83
 294 222 294 222 294 176 c 0,57,58
EndSplineSet
EndChar

StartChar: omoriya
Encoding: 65540 -1 79
Width: 930
Flags: W
LayerCount: 2
Fore
SplineSet
748 856 m 0,0,1
 748 839 748 839 737 829 c 128,-1,2
 726 819 726 819 709 819 c 0,3,4
 691 819 691 819 680 829 c 128,-1,5
 669 839 669 839 669 856 c 256,6,7
 669 873 669 873 680.5 883 c 128,-1,8
 692 893 692 893 708 893 c 0,9,10
 726 893 726 893 737 882.5 c 128,-1,11
 748 872 748 872 748 856 c 0,0,1
914 878 m 1,12,13
 907 776 907 776 865 728 c 128,-1,14
 823 680 823 680 736 680 c 0,15,16
 681 680 681 680 630.5 693.5 c 128,-1,17
 580 707 580 707 530 720.5 c 128,-1,18
 480 734 480 734 426 734 c 0,19,20
 338 734 338 734 276 691 c 128,-1,21
 214 648 214 648 181.5 572 c 128,-1,22
 149 496 149 496 149 397 c 0,23,24
 149 288 149 288 186.5 212.5 c 128,-1,25
 224 137 224 137 289 97.5 c 128,-1,26
 354 58 354 58 437 58 c 0,27,28
 513 58 513 58 563 90.5 c 128,-1,29
 613 123 613 123 613 183 c 0,30,31
 613 231 613 231 579.5 259.5 c 128,-1,32
 546 288 546 288 489 288 c 0,33,34
 464 288 464 288 436.5 283 c 128,-1,35
 409 278 409 278 380 266 c 1,36,-1
 355 325 l 1,37,38
 389 337 389 337 406 342 c 128,-1,39
 423 347 423 347 445 354 c 0,40,41
 528 379 528 379 566 407.5 c 128,-1,42
 604 436 604 436 604 488 c 0,43,44
 604 538 604 538 573 567 c 128,-1,45
 542 596 542 596 491 596 c 0,46,47
 443 596 443 596 410.5 568.5 c 128,-1,48
 378 541 378 541 378 489 c 0,49,50
 378 474 378 474 381.5 457 c 128,-1,51
 385 440 385 440 394 425 c 1,52,-1
 329 410 l 1,53,54
 307 449 307 449 307 498 c 0,55,56
 307 548 307 548 332.5 583.5 c 128,-1,57
 358 619 358 619 400 638 c 128,-1,58
 442 657 442 657 492 657 c 0,59,60
 544 657 544 657 586.5 637.5 c 128,-1,61
 629 618 629 618 653.5 581.5 c 128,-1,62
 678 545 678 545 678 495 c 0,63,64
 678 440 678 440 645.5 401 c 128,-1,65
 613 362 613 362 553 337 c 1,66,67
 614 324 614 324 651 281.5 c 128,-1,68
 688 239 688 239 688 179 c 0,69,70
 688 122 688 122 656 80 c 128,-1,71
 624 38 624 38 568 15.5 c 128,-1,72
 512 -7 512 -7 440 -7 c 0,73,74
 332 -7 332 -7 249 42.5 c 128,-1,75
 166 92 166 92 119.5 183 c 128,-1,76
 73 274 73 274 73 400 c 0,77,78
 73 519 73 519 114.5 610 c 128,-1,79
 156 701 156 701 232 752 c 128,-1,80
 308 803 308 803 412 803 c 0,81,82
 473 803 473 803 526 788.5 c 128,-1,83
 579 774 579 774 627 759.5 c 128,-1,84
 675 745 675 745 723 745 c 0,85,86
 785 745 785 745 811.5 778.5 c 128,-1,87
 838 812 838 812 842 884 c 1,88,-1
 914 878 l 1,12,13
EndSplineSet
EndChar

StartChar: uni0B300B4D
Encoding: 65541 -1 82
Width: 0
GlyphClass: 4
Flags: W
AnchorPoint: "+BBEENQQ3BEsEPARPBD0EPQQ+BDUA--5" 358 658 mark 0
AnchorPoint: "+BBEENQQ3BEsEPARPBD0EPQQ+BDUA--0" 358 658 mark 0
LayerCount: 2
Fore
SplineSet
208 783 m 1,0,-1
 198 808 l 1,1,-1
 391 971 l 1,2,-1
 428 927 l 1,3,-1
 276 801 l 1,4,-1
 393 708 l 1,5,-1
 358 665 l 1,6,-1
 208 783 l 1,0,-1
EndSplineSet
Ligature2: "'rphf' Reph Form in Oriya2 lookup 4 subtable" uni0B30 uni0B4D
EndChar

StartChar: uni0B70
Encoding: 2928 2928 83
Width: 632
Flags: W
LayerCount: 2
Fore
SplineSet
600 678 m 1,0,1
 570 531 570 531 534 430.5 c 128,-1,2
 498 330 498 330 456.5 269.5 c 128,-1,3
 415 209 415 209 368 182 c 128,-1,4
 321 155 321 155 270 155 c 0,5,6
 209 155 209 155 168 184.5 c 128,-1,7
 127 214 127 214 102 260 c 128,-1,8
 77 306 77 306 63 358.5 c 128,-1,9
 49 411 49 411 43 458 c 1,10,-1
 116 469 l 1,11,12
 124 408 124 408 140.5 353 c 128,-1,13
 157 298 157 298 187.5 263 c 128,-1,14
 218 228 218 228 269 228 c 0,15,16
 305 228 305 228 339.5 251 c 128,-1,17
 374 274 374 274 406.5 327 c 128,-1,18
 439 380 439 380 469 470 c 128,-1,19
 499 560 499 560 527 693 c 1,20,-1
 600 678 l 1,0,1
289 470 m 0,21,22
 270 470 270 470 256 483.5 c 128,-1,23
 242 497 242 497 242 518 c 0,24,25
 242 537 242 537 256 551.5 c 128,-1,26
 270 566 270 566 289 566 c 256,27,28
 308 566 308 566 322.5 551.5 c 128,-1,29
 337 537 337 537 337 518 c 0,30,31
 337 496 337 496 323.5 483 c 128,-1,32
 310 470 310 470 289 470 c 0,21,22
EndSplineSet
EndChar

StartChar: uni0964
Encoding: 2404 2404 84
Width: 246
Flags: W
LayerCount: 2
Fore
SplineSet
162 658 m 1,0,-1
 162 0 l 1,1,-1
 84 0 l 1,2,-1
 84 658 l 1,3,-1
 162 658 l 1,0,-1
EndSplineSet
EndChar

StartChar: uni0965
Encoding: 2405 2405 85
Width: 459
Flags: W
LayerCount: 2
Fore
SplineSet
159 658 m 1,0,-1
 159 0 l 1,1,-1
 84 0 l 1,2,-1
 84 658 l 1,3,-1
 159 658 l 1,0,-1
375 658 m 1,4,-1
 375 0 l 1,5,-1
 301 0 l 1,6,-1
 301 658 l 1,7,-1
 375 658 l 1,4,-1
EndSplineSet
EndChar

StartChar: uni0B66
Encoding: 2918 2918 86
Width: 563
Flags: W
LayerCount: 2
Fore
SplineSet
281 66 m 256,0,1
 202 66 202 66 144 97 c 128,-1,2
 86 128 86 128 53.5 184 c 128,-1,3
 21 240 21 240 21 317 c 0,4,5
 21 393 21 393 53.5 449.5 c 128,-1,6
 86 506 86 506 144 536.5 c 128,-1,7
 202 567 202 567 281 567 c 256,8,9
 360 567 360 567 418.5 536.5 c 128,-1,10
 477 506 477 506 509 449.5 c 128,-1,11
 541 393 541 393 541 317 c 0,12,13
 541 240 541 240 509 184 c 128,-1,14
 477 128 477 128 418.5 97 c 128,-1,15
 360 66 360 66 281 66 c 256,0,1
281 494 m 256,16,17
 200 494 200 494 150.5 445.5 c 128,-1,18
 101 397 101 397 101 317 c 0,19,20
 101 236 101 236 150.5 187.5 c 128,-1,21
 200 139 200 139 281 139 c 256,22,23
 362 139 362 139 412 187.5 c 128,-1,24
 462 236 462 236 462 317 c 0,25,26
 462 397 462 397 412 445.5 c 128,-1,27
 362 494 362 494 281 494 c 256,16,17
EndSplineSet
Substitution2: "'ss02' Style Set 2 in Oriya2 lookup 25 subtable" zero
Substitution2: "'aalt' +BBIEQQQ1 +BDAEOwRMBEIENQRABD0EMARCBDgEMgQ9BEsENQAA +BDIEMARABDgEMAQ9BEIESwAA in Oriya2 lookup 0 subtable" zero
EndChar

StartChar: uni0B67
Encoding: 2919 2919 87
Width: 563
Flags: W
LayerCount: 2
Fore
SplineSet
451 -8 m 1,0,1
 332 20 332 20 246 75 c 128,-1,2
 160 130 160 130 114 208.5 c 128,-1,3
 68 287 68 287 68 385 c 0,4,5
 68 473 68 473 103.5 536 c 128,-1,6
 139 599 139 599 196 632.5 c 128,-1,7
 253 666 253 666 319 666 c 0,8,9
 371 666 371 666 414.5 644.5 c 128,-1,10
 458 623 458 623 484.5 583 c 128,-1,11
 511 543 511 543 511 488 c 256,12,13
 511 433 511 433 484 389.5 c 128,-1,14
 457 346 457 346 409.5 321 c 128,-1,15
 362 296 362 296 301 296 c 0,16,17
 263 296 263 296 223.5 308 c 128,-1,18
 184 320 184 320 151 345 c 1,19,20
 165 249 165 249 244 174.5 c 128,-1,21
 323 100 323 100 473 66 c 1,22,-1
 451 -8 l 1,0,1
312 593 m 0,23,24
 248 593 248 593 203 546 c 128,-1,25
 158 499 158 499 149 422 c 1,26,27
 183 392 183 392 220 378.5 c 128,-1,28
 257 365 257 365 293 365 c 0,29,30
 354 365 354 365 392.5 397.5 c 128,-1,31
 431 430 431 430 431 485 c 0,32,33
 431 534 431 534 396.5 563.5 c 128,-1,34
 362 593 362 593 312 593 c 0,23,24
EndSplineSet
Substitution2: "'ss02' Style Set 2 in Oriya2 lookup 25 subtable" one
Substitution2: "'aalt' +BBIEQQQ1 +BDAEOwRMBEIENQRABD0EMARCBDgEMgQ9BEsENQAA +BDIEMARABDgEMAQ9BEIESwAA in Oriya2 lookup 0 subtable" one
EndChar

StartChar: uni0B69
Encoding: 2921 2921 89
Width: 563
Flags: W
LayerCount: 2
Fore
SplineSet
329 500 m 2,0,-1
 329 0 l 1,1,-1
 255 0 l 1,2,-1
 255 238 l 1,3,4
 225 217 225 217 184 217 c 0,5,6
 141 217 141 217 103 240 c 128,-1,7
 65 263 65 263 42 313 c 128,-1,8
 19 363 19 363 19 442 c 0,9,10
 19 543 19 543 63 605 c 128,-1,11
 107 667 107 667 185 667 c 0,12,13
 258 667 258 667 294 613 c 1,14,15
 329 667 329 667 401 667 c 0,16,17
 456 667 456 667 485 640.5 c 128,-1,18
 514 614 514 614 525 573.5 c 128,-1,19
 536 533 536 533 536 490 c 2,20,-1
 536 0 l 1,21,-1
 458 0 l 1,22,-1
 458 498 l 2,23,24
 458 598 458 598 395 598 c 0,25,26
 362 598 362 598 345.5 572 c 128,-1,27
 329 546 329 546 329 500 c 2,0,-1
185 597 m 0,28,29
 140 597 140 597 115.5 554 c 128,-1,30
 91 511 91 511 91 440 c 1,31,32
 138 474 138 474 189 474 c 0,33,34
 228 474 228 474 256 452 c 1,35,-1
 256 496 l 2,36,37
 256 543 256 543 238 570 c 128,-1,38
 220 597 220 597 185 597 c 0,28,29
187 286 m 0,39,40
 216 286 216 286 236 304 c 128,-1,41
 256 322 256 322 256 353 c 0,42,43
 256 383 256 383 237 401 c 128,-1,44
 218 419 218 419 185 419 c 0,45,46
 164 419 164 419 140.5 411 c 128,-1,47
 117 403 117 403 94 385 c 1,48,49
 104 330 104 330 130 308 c 128,-1,50
 156 286 156 286 187 286 c 0,39,40
EndSplineSet
Substitution2: "'ss02' Style Set 2 in Oriya2 lookup 25 subtable" three
Substitution2: "'aalt' +BBIEQQQ1 +BDAEOwRMBEIENQRABD0EMARCBDgEMgQ9BEsENQAA +BDIEMARABDgEMAQ9BEIESwAA in Oriya2 lookup 0 subtable" three
EndChar

StartChar: uni0B6A
Encoding: 2922 2922 90
Width: 563
Flags: W
LayerCount: 2
Fore
SplineSet
89 666 m 1,0,1
 99 608 99 608 125 567 c 0,2,3
 154 519 154 519 196.5 483 c 128,-1,4
 239 447 239 447 285 416 c 1,5,6
 329 445 329 445 370 479.5 c 128,-1,7
 411 514 411 514 439 562 c 0,8,9
 466 608 466 608 476 666 c 1,10,-1
 550 656 l 1,11,12
 539 586 539 586 507 535 c 128,-1,13
 475 484 475 484 431.5 446 c 128,-1,14
 388 408 388 408 342 377 c 1,15,16
 382 350 382 350 415 320.5 c 128,-1,17
 448 291 448 291 468 254.5 c 128,-1,18
 488 218 488 218 488 169 c 0,19,20
 488 115 488 115 461.5 75 c 128,-1,21
 435 35 435 35 388 13.5 c 128,-1,22
 341 -8 341 -8 280 -8 c 0,23,24
 226 -8 226 -8 178.5 10.5 c 128,-1,25
 131 29 131 29 101.5 68 c 128,-1,26
 72 107 72 107 72 167 c 0,27,28
 72 218 72 218 93 255 c 128,-1,29
 114 292 114 292 148 321 c 128,-1,30
 182 350 182 350 223 376 c 1,31,32
 178 408 178 408 134 446.5 c 128,-1,33
 90 485 90 485 57.5 535.5 c 128,-1,34
 25 586 25 586 13 655 c 1,35,-1
 89 666 l 1,0,1
152 177 m 0,36,37
 152 127 152 127 188 96 c 128,-1,38
 224 65 224 65 279 65 c 0,39,40
 331 65 331 65 369.5 94.5 c 128,-1,41
 408 124 408 124 408 176 c 0,42,43
 408 227 408 227 371 264 c 128,-1,44
 334 301 334 301 281 337 c 1,45,46
 227 301 227 301 189.5 264.5 c 128,-1,47
 152 228 152 228 152 177 c 0,36,37
EndSplineSet
Substitution2: "'ss02' Style Set 2 in Oriya2 lookup 25 subtable" four
Substitution2: "'aalt' +BBIEQQQ1 +BDAEOwRMBEIENQRABD0EMARCBDgEMgQ9BEsENQAA +BDIEMARABDgEMAQ9BEIESwAA in Oriya2 lookup 0 subtable" four
EndChar

StartChar: uni0B6B
Encoding: 2923 2923 91
Width: 563
Flags: W
LayerCount: 2
Fore
SplineSet
249 -8 m 0,0,1
 199 -8 199 -8 158 10 c 128,-1,2
 117 28 117 28 92.5 63 c 128,-1,3
 68 98 68 98 68 149 c 0,4,5
 68 243 68 243 194 309 c 1,6,7
 142 318 142 318 93 336 c 128,-1,8
 44 354 44 354 0 395 c 1,9,-1
 43 443 l 1,10,11
 85 405 85 405 130.5 387 c 128,-1,12
 176 369 176 369 223 360 c 1,13,14
 138 435 138 435 138 512 c 0,15,16
 138 561 138 561 162.5 595.5 c 128,-1,17
 187 630 187 630 228 648 c 128,-1,18
 269 666 269 666 319 666 c 0,19,20
 367 666 367 666 407 648 c 128,-1,21
 447 630 447 630 471.5 595 c 128,-1,22
 496 560 496 560 496 510 c 0,23,24
 496 459 496 459 466.5 417 c 128,-1,25
 437 375 437 375 374 338 c 1,26,27
 424 329 424 329 472 310 c 128,-1,28
 520 291 520 291 563 249 c 1,29,-1
 522 202 l 1,30,31
 483 237 483 237 441.5 255.5 c 128,-1,32
 400 274 400 274 357 284 c 1,33,34
 396 249 396 249 413.5 216 c 128,-1,35
 431 183 431 183 431 147 c 0,36,37
 431 98 431 98 406 63.5 c 128,-1,38
 381 29 381 29 339.5 10.5 c 128,-1,39
 298 -8 298 -8 249 -8 c 0,0,1
212 496 m 0,40,41
 212 426 212 426 303 354 c 1,42,43
 364 387 364 387 392 421 c 128,-1,44
 420 455 420 455 420 496 c 0,45,46
 420 545 420 545 388 569.5 c 128,-1,47
 356 594 356 594 316 594 c 0,48,49
 277 594 277 594 244.5 569 c 128,-1,50
 212 544 212 544 212 496 c 0,40,41
144 162 m 0,51,52
 144 113 144 113 177.5 89 c 128,-1,53
 211 65 211 65 251 65 c 256,54,55
 291 65 291 65 324 88.5 c 128,-1,56
 357 112 357 112 357 160 c 0,57,58
 357 189 357 189 336 222.5 c 128,-1,59
 315 256 315 256 274 289 c 1,60,61
 212 264 212 264 178 230.5 c 128,-1,62
 144 197 144 197 144 162 c 0,51,52
EndSplineSet
Substitution2: "'ss02' Style Set 2 in Oriya2 lookup 25 subtable" five
Substitution2: "'aalt' +BBIEQQQ1 +BDAEOwRMBEIENQRABD0EMARCBDgEMgQ9BEsENQAA +BDIEMARABDgEMAQ9BEIESwAA in Oriya2 lookup 0 subtable" five
EndChar

StartChar: uni0B6C
Encoding: 2924 2924 92
Width: 563
Flags: W
LayerCount: 2
Fore
SplineSet
78 380 m 1,0,1
 100 327 100 327 129 304 c 128,-1,2
 158 281 158 281 191 281 c 0,3,4
 223 281 223 281 245.5 298.5 c 128,-1,5
 268 316 268 316 268 350 c 0,6,7
 268 374 268 374 253.5 391 c 128,-1,8
 239 408 239 408 212 429 c 0,9,10
 171 460 171 460 149 488 c 128,-1,11
 127 516 127 516 127 554 c 0,12,13
 127 607 127 607 168 636.5 c 128,-1,14
 209 666 209 666 278 666 c 0,15,16
 353 666 353 666 412.5 630 c 128,-1,17
 472 594 472 594 506 529.5 c 128,-1,18
 540 465 540 465 540 378 c 0,19,20
 540 229 540 229 431 132 c 128,-1,21
 322 35 322 35 82 -8 c 1,22,-1
 67 69 l 1,23,24
 271 106 271 106 365.5 179 c 128,-1,25
 460 252 460 252 460 375 c 0,26,27
 460 439 460 439 437 490 c 128,-1,28
 414 541 414 541 374 571 c 128,-1,29
 334 601 334 601 283 601 c 0,30,31
 245 601 245 601 225.5 585 c 128,-1,32
 206 569 206 569 206 544 c 0,33,34
 206 523 206 523 220.5 507.5 c 128,-1,35
 235 492 235 492 260 471 c 0,36,37
 302 436 302 436 321.5 408.5 c 128,-1,38
 341 381 341 381 341 347 c 0,39,40
 341 292 341 292 301 255.5 c 128,-1,41
 261 219 261 219 193 219 c 0,42,43
 136 219 136 219 90 253 c 128,-1,44
 44 287 44 287 21 352 c 1,45,-1
 78 380 l 1,0,1
EndSplineSet
Substitution2: "'ss02' Style Set 2 in Oriya2 lookup 25 subtable" six
Substitution2: "'aalt' +BBIEQQQ1 +BDAEOwRMBEIENQRABD0EMARCBDgEMgQ9BEsENQAA +BDIEMARABDgEMAQ9BEIESwAA in Oriya2 lookup 0 subtable" six
EndChar

StartChar: uni0B6D
Encoding: 2925 2925 93
Width: 563
Flags: W
LayerCount: 2
Fore
SplineSet
540 391 m 0,0,1
 540 242 540 242 426.5 139 c 128,-1,2
 313 36 313 36 78 -8 c 1,3,-1
 63 70 l 1,4,5
 269 107 269 107 364.5 188 c 128,-1,6
 460 269 460 269 460 392 c 0,7,8
 460 464 460 464 432.5 510 c 128,-1,9
 405 556 405 556 361.5 578.5 c 128,-1,10
 318 601 318 601 271 601 c 0,11,12
 226 601 226 601 188 582.5 c 128,-1,13
 150 564 150 564 125 529 c 128,-1,14
 100 494 100 494 95 444 c 1,15,16
 134 488 134 488 198 488 c 0,17,18
 264 488 264 488 299.5 451 c 128,-1,19
 335 414 335 414 335 362 c 0,20,21
 335 308 335 308 296 270.5 c 128,-1,22
 257 233 257 233 193 233 c 0,23,24
 150 233 150 233 112 255.5 c 128,-1,25
 74 278 74 278 50.5 321.5 c 128,-1,26
 27 365 27 365 27 428 c 0,27,28
 27 506 27 506 62.5 559 c 128,-1,29
 98 612 98 612 155 639 c 128,-1,30
 212 666 212 666 276 666 c 0,31,32
 346 666 346 666 406 634.5 c 128,-1,33
 466 603 466 603 503 541.5 c 128,-1,34
 540 480 540 480 540 391 c 0,0,1
187 433 m 0,35,36
 159 433 159 433 135.5 421 c 128,-1,37
 112 409 112 409 96 387 c 1,38,39
 103 341 103 341 129.5 317.5 c 128,-1,40
 156 294 156 294 188 294 c 0,41,42
 225 294 225 294 244 316 c 128,-1,43
 263 338 263 338 263 364 c 256,44,45
 263 390 263 390 243.5 411.5 c 128,-1,46
 224 433 224 433 187 433 c 0,35,36
EndSplineSet
Substitution2: "'ss02' Style Set 2 in Oriya2 lookup 25 subtable" seven
Substitution2: "'aalt' +BBIEQQQ1 +BDAEOwRMBEIENQRABD0EMARCBDgEMgQ9BEsENQAA +BDIEMARABDgEMAQ9BEIESwAA in Oriya2 lookup 0 subtable" seven
EndChar

StartChar: uni0B6E
Encoding: 2926 2926 94
Width: 563
Flags: W
LayerCount: 2
Fore
SplineSet
97 658 m 1,0,-1
 528 658 l 1,1,-1
 528 585 l 1,2,-1
 175 585 l 1,3,-1
 175 0 l 1,4,-1
 97 0 l 1,5,-1
 97 658 l 1,0,-1
EndSplineSet
Substitution2: "'ss02' Style Set 2 in Oriya2 lookup 25 subtable" eight
Substitution2: "'aalt' +BBIEQQQ1 +BDAEOwRMBEIENQRABD0EMARCBDgEMgQ9BEsENQAA +BDIEMARABDgEMAQ9BEIESwAA in Oriya2 lookup 0 subtable" eight
EndChar

StartChar: uni0B6F
Encoding: 2927 2927 95
Width: 563
Flags: W
LayerCount: 2
Fore
SplineSet
444 308 m 1,0,-1
 252 567 l 1,1,2
 185 521 185 521 151 460 c 128,-1,3
 117 399 117 399 117 327 c 0,4,5
 117 209 117 209 193.5 140 c 128,-1,6
 270 71 270 71 417 63 c 1,7,-1
 411 -8 l 1,8,9
 299 -5 299 -5 215 35.5 c 128,-1,10
 131 76 131 76 84 149.5 c 128,-1,11
 37 223 37 223 37 326 c 0,12,13
 37 432 37 432 96.5 519 c 128,-1,14
 156 606 156 606 272 666 c 1,15,-1
 448 411 l 1,16,17
 446 428 446 428 445.5 453.5 c 128,-1,18
 445 479 445 479 445 503 c 2,19,-1
 445 658 l 1,20,-1
 519 658 l 1,21,-1
 519 320 l 1,22,-1
 444 308 l 1,0,-1
EndSplineSet
Substitution2: "'ss02' Style Set 2 in Oriya2 lookup 25 subtable" nine
Substitution2: "'aalt' +BBIEQQQ1 +BDAEOwRMBEIENQRABD0EMARCBDgEMgQ9BEsENQAA +BDIEMARABDgEMAQ9BEIESwAA in Oriya2 lookup 0 subtable" nine
EndChar

StartChar: uni0B72
Encoding: 2930 2930 96
Width: 218
Flags: W
LayerCount: 2
Fore
SplineSet
70 558 m 1,0,-1
 148 558 l 1,1,-1
 148 0 l 1,2,-1
 70 0 l 1,3,-1
 70 558 l 1,0,-1
EndSplineSet
EndChar

StartChar: uni0B73
Encoding: 2931 2931 97
Width: 477
Flags: W
LayerCount: 2
Fore
SplineSet
408 558 m 1,0,-1
 408 0 l 1,1,-1
 330 0 l 1,2,-1
 330 278 l 1,3,4
 303 261 303 261 271 252.5 c 128,-1,5
 239 244 239 244 206 244 c 0,6,7
 124 244 124 244 84 289 c 128,-1,8
 44 334 44 334 44 416 c 0,9,10
 44 446 44 446 49.5 482.5 c 128,-1,11
 55 519 55 519 65 562 c 1,12,-1
 138 555 l 1,13,14
 128 513 128 513 124 479.5 c 128,-1,15
 120 446 120 446 120 422 c 0,16,17
 120 309 120 309 224 309 c 0,18,19
 282 309 282 309 330 346 c 1,20,-1
 330 558 l 1,21,-1
 408 558 l 1,0,-1
EndSplineSet
EndChar

StartChar: uni0B74
Encoding: 2932 2932 98
Width: 674
Flags: W
LayerCount: 2
Fore
SplineSet
44 415 m 0,0,1
 44 478 44 478 65 561 c 1,2,-1
 138 554 l 1,3,4
 128 512 128 512 124 481 c 128,-1,5
 120 450 120 450 120 423 c 0,6,7
 120 309 120 309 203 309 c 0,8,9
 225 309 225 309 244.5 318 c 128,-1,10
 264 327 264 327 276.5 350 c 128,-1,11
 289 373 289 373 289 414 c 2,12,-1
 289 558 l 1,13,-1
 365 558 l 1,14,-1
 365 422 l 2,15,16
 365 363 365 363 384 336 c 128,-1,17
 403 309 403 309 447 309 c 256,18,19
 491 309 491 309 526 346 c 1,20,-1
 526 558 l 1,21,-1
 604 558 l 1,22,-1
 604 0 l 1,23,-1
 526 0 l 1,24,-1
 526 273 l 1,25,26
 486 244 486 244 434 244 c 0,27,28
 353 244 353 244 318 305 c 1,29,30
 297 273 297 273 263 258.5 c 128,-1,31
 229 244 229 244 191 244 c 0,32,33
 119 244 119 244 81.5 287.5 c 128,-1,34
 44 331 44 331 44 415 c 0,0,1
EndSplineSet
EndChar

StartChar: uni0B75
Encoding: 2933 2933 99
Width: 474
Flags: W
LayerCount: 2
Fore
SplineSet
15 102 m 1,0,1
 82 172 82 172 151 252.5 c 128,-1,2
 220 333 220 333 282.5 412 c 128,-1,3
 345 491 345 491 395 558 c 1,4,-1
 459 504 l 1,5,6
 371 387 371 387 277 271.5 c 128,-1,7
 183 156 183 156 76 45 c 1,8,-1
 15 102 l 1,0,1
EndSplineSet
EndChar

StartChar: uni0B76
Encoding: 2934 2934 100
Width: 549
Flags: W
LayerCount: 2
Fore
SplineSet
290 15 m 1,0,1
 302 50 302 50 310.5 82 c 128,-1,2
 319 114 319 114 319 146 c 0,3,4
 319 209 319 209 285.5 248 c 128,-1,5
 252 287 252 287 196 287 c 0,6,7
 160 287 160 287 133.5 270 c 128,-1,8
 107 253 107 253 95 224 c 1,9,10
 124 235 124 235 152 235 c 0,11,12
 203 235 203 235 229.5 207 c 128,-1,13
 256 179 256 179 256 140 c 0,14,15
 256 98 256 98 228 70.5 c 128,-1,16
 200 43 200 43 146 43 c 0,17,18
 85 43 85 43 51.5 79.5 c 128,-1,19
 18 116 18 116 18 176 c 0,20,21
 18 223 18 223 39 262.5 c 128,-1,22
 60 302 60 302 99 325 c 128,-1,23
 138 348 138 348 193 348 c 0,24,25
 253 348 253 348 300.5 319.5 c 128,-1,26
 348 291 348 291 367 235 c 1,27,-1
 368 238 l 1,28,-1
 471 556 l 1,29,-1
 542 532 l 1,30,-1
 360 -8 l 1,31,-1
 290 15 l 1,0,1
85 174 m 2,32,33
 85 137 85 137 102 115.5 c 128,-1,34
 119 94 119 94 148 94 c 0,35,36
 172 94 172 94 184.5 107 c 128,-1,37
 197 120 197 120 197 141 c 0,38,39
 197 165 197 165 181 179.5 c 128,-1,40
 165 194 165 194 139 194 c 0,41,42
 114 194 114 194 85 179 c 1,43,-1
 85 174 l 2,32,33
EndSplineSet
EndChar

StartChar: uni0B77
Encoding: 2935 2935 101
Width: 650
Flags: W
LayerCount: 2
Fore
SplineSet
42 -11 m 1,0,1
 18 55 18 55 18 108 c 0,2,3
 18 177 18 177 52 215 c 128,-1,4
 86 253 86 253 144 253 c 0,5,6
 219 253 219 253 251 194 c 1,7,8
 282 253 282 253 354 253 c 0,9,10
 425 253 425 253 455 195 c 1,11,12
 461 214 461 214 468 237 c 2,13,-1
 572 556 l 1,14,-1
 643 532 l 1,15,-1
 461 -9 l 1,16,-1
 394 1 l 1,17,18
 401 23 401 23 406 50 c 128,-1,19
 411 77 411 77 411 102 c 0,20,21
 411 143 411 143 393.5 167.5 c 128,-1,22
 376 192 376 192 346 192 c 0,23,24
 322 192 322 192 303.5 176 c 128,-1,25
 285 160 285 160 285 130 c 2,26,-1
 285 0 l 1,27,-1
 218 0 l 1,28,-1
 218 128 l 2,29,30
 218 159 218 159 199.5 175.5 c 128,-1,31
 181 192 181 192 155 192 c 0,32,33
 123 192 123 192 106 168.5 c 128,-1,34
 89 145 89 145 89 106 c 0,35,36
 89 54 89 54 108 1 c 1,37,-1
 42 -11 l 1,0,1
EndSplineSet
EndChar

StartChar: uni200C
Encoding: 8204 8204 103
Width: 0
Flags: W
LayerCount: 2
Fore
SplineSet
26 788 m 1,0,-1
 26 -166 l 1,1,-1
 -26 -166 l 1,2,-1
 -26 788 l 1,3,-1
 26 788 l 1,0,-1
EndSplineSet
EndChar

StartChar: uni200D
Encoding: 8205 8205 104
Width: 0
Flags: W
LayerCount: 2
Fore
SplineSet
109 503 m 1,0,-1
 26 585 l 1,1,-1
 26 -165 l 1,2,-1
 -26 -165 l 1,3,-1
 -26 585 l 1,4,-1
 -109 503 l 1,5,-1
 -146 539 l 1,6,-1
 -36 646 l 1,7,-1
 -146 752 l 1,8,-1
 -109 788 l 1,9,-1
 0 680 l 1,10,-1
 109 788 l 1,11,-1
 146 751 l 1,12,-1
 36 646 l 1,13,-1
 146 539 l 1,14,-1
 109 503 l 1,0,-1
EndSplineSet
EndChar

StartChar: uni25CC
Encoding: 9676 9676 105
Width: 471
Flags: W
AnchorPoint: "+BBEENQQ3BEsEPARPBD0EPQQ+BDUA--2" 238 -6 mark 0
AnchorPoint: "+BBEENQQ3BEsEPARPBD0EPQQ+BDUA--6" 238 -6 mark 0
AnchorPoint: "+BBEENQQ3BEsEPARPBD0EPQQ+BDUA--4" 440 -1 basechar 0
AnchorPoint: "+BBEENQQ3BEsEPARPBD0EPQQ+BDUA--3" 238 -6 basechar 0
AnchorPoint: "+BBEENQQ3BEsEPARPBD0EPQQ+BDUA--0" 448 658 basechar 0
AnchorPoint: "+BBEENQQ3BEsEPARPBD0EPQQ+BDUA--1" 235 658 basechar 0
LayerCount: 2
Fore
SplineSet
265 509 m 0,0,1
 265 480 265 480 235 480 c 0,2,3
 207 480 207 480 207 509 c 0,4,5
 207 537 207 537 235 537 c 0,6,7
 265 537 265 537 265 509 c 0,0,1
135 460 m 0,8,9
 135 431 135 431 106 431 c 0,10,11
 78 431 78 431 78 460 c 0,12,13
 78 488 78 488 106 488 c 0,14,15
 135 488 135 488 135 460 c 0,8,9
395 460 m 0,16,17
 395 431 395 431 365 431 c 0,18,19
 336 431 336 431 336 460 c 0,20,21
 336 488 336 488 365 488 c 0,22,23
 395 488 395 488 395 460 c 0,16,17
440 335 m 0,24,25
 440 306 440 306 411 306 c 0,26,27
 381 306 381 306 381 335 c 0,28,29
 381 363 381 363 411 363 c 0,30,31
 440 363 440 363 440 335 c 0,24,25
90 335 m 0,32,33
 90 306 90 306 62 306 c 0,34,35
 32 306 32 306 32 335 c 0,36,37
 32 363 32 363 62 363 c 0,38,39
 90 363 90 363 90 335 c 0,32,33
135 210 m 256,40,41
 135 181 135 181 106 181 c 0,42,43
 78 181 78 181 78 210 c 256,44,45
 78 239 78 239 106 239 c 0,46,47
 135 239 135 239 135 210 c 256,40,41
395 210 m 256,48,49
 395 181 395 181 365 181 c 0,50,51
 336 181 336 181 336 210 c 256,52,53
 336 239 336 239 365 239 c 0,54,55
 395 239 395 239 395 210 c 256,48,49
265 160 m 256,56,57
 265 131 265 131 235 131 c 0,58,59
 207 131 207 131 207 160 c 256,60,61
 207 189 207 189 235 189 c 0,62,63
 265 189 265 189 265 160 c 256,56,57
EndSplineSet
EndChar

StartChar: karaoriya
Encoding: 65542 -1 106
Width: 752
GlyphClass: 2
Flags: W
AnchorPoint: "+BBEENQQ3BEsEPARPBD0EPQQ+BDUA--1" 367 658 basechar 0
AnchorPoint: "+BBEENQQ3BEsEPARPBD0EPQQ+BDUA--0" 624 658 basechar 0
LayerCount: 2
Fore
SplineSet
244 74 m 0,0,1
 184 74 184 74 149 113 c 128,-1,2
 114 152 114 152 114 214 c 0,3,4
 114 223 114 223 115 231 c 1,5,6
 73 272 73 272 52.5 316.5 c 128,-1,7
 32 361 32 361 32 411 c 0,8,9
 32 488 32 488 77 545.5 c 128,-1,10
 122 603 122 603 198 634.5 c 128,-1,11
 274 666 274 666 367 666 c 0,12,13
 434 666 434 666 497 649 c 128,-1,14
 560 632 560 632 610.5 598 c 128,-1,15
 661 564 661 564 690.5 513 c 128,-1,16
 720 462 720 462 720 395 c 0,17,18
 720 353 720 353 707.5 316.5 c 128,-1,19
 695 280 695 280 671 250 c 1,20,-1
 600 281 l 1,21,22
 619 304 619 304 629.5 333 c 128,-1,23
 640 362 640 362 640 395 c 0,24,25
 640 445 640 445 617 482 c 128,-1,26
 594 519 594 519 555 543.5 c 128,-1,27
 516 568 516 568 467 580.5 c 128,-1,28
 418 593 418 593 367 593 c 0,29,30
 294 593 294 593 235.5 570 c 128,-1,31
 177 547 177 547 142.5 504 c 128,-1,32
 108 461 108 461 108 403 c 0,33,34
 108 349 108 349 140 302 c 1,35,36
 157 327 157 327 183.5 341 c 128,-1,37
 210 355 210 355 245 355 c 0,38,39
 281 355 281 355 308 340 c 128,-1,40
 335 325 335 325 351 299 c 1,41,42
 380 355 380 355 455 355 c 0,43,44
 502 355 502 355 528 334.5 c 128,-1,45
 554 314 554 314 564 283.5 c 128,-1,46
 574 253 574 253 574 222 c 2,47,-1
 574 -162 l 1,48,-1
 112 -162 l 1,49,-1
 112 -96 l 1,50,-1
 496 -96 l 1,51,-1
 496 217 l 2,52,53
 496 294 496 294 440 294 c 0,54,55
 382 294 382 294 382 217 c 2,56,-1
 382 0 l 1,57,-1
 304 0 l 1,58,-1
 309 90 l 1,59,60
 280 74 280 74 244 74 c 0,0,1
245 135 m 0,61,62
 275 135 275 135 293.5 158 c 128,-1,63
 312 181 312 181 312 215 c 0,64,65
 312 248 312 248 293.5 270.5 c 128,-1,66
 275 293 275 293 245 293 c 0,67,68
 214 293 214 293 196 270 c 128,-1,69
 178 247 178 247 178 214 c 256,70,71
 178 181 178 181 196 158 c 128,-1,72
 214 135 214 135 245 135 c 0,61,62
EndSplineSet
LCarets2: 1 0
Ligature2: "'blws' Below Base Substitutions in Oriya2 lookup 13 subtable" uni0B15.base uni0B4D0B30
EndChar

StartChar: kharaoriya
Encoding: 65543 -1 107
Width: 741
GlyphClass: 2
Flags: W
AnchorPoint: "+BBEENQQ3BEsEPARPBD0EPQQ+BDUA--1" 376 658 basechar 0
AnchorPoint: "+BBEENQQ3BEsEPARPBD0EPQQ+BDUA--0" 641 658 basechar 0
LayerCount: 2
Fore
SplineSet
312 -8 m 256,0,1
 262 -8 262 -8 219.5 13 c 128,-1,2
 177 34 177 34 151.5 75 c 128,-1,3
 126 116 126 116 126 174 c 0,4,5
 126 195 126 195 130 215 c 1,6,7
 84 253 84 253 58 302.5 c 128,-1,8
 32 352 32 352 32 411 c 0,9,10
 32 478 32 478 67.5 536.5 c 128,-1,11
 103 595 103 595 179 630.5 c 128,-1,12
 255 666 255 666 376 666 c 2,13,-1
 421 666 l 1,14,-1
 457 626 l 1,15,16
 416 575 416 575 416 524 c 0,17,18
 416 486 416 486 442.5 460.5 c 128,-1,19
 469 435 469 435 522 435 c 0,20,21
 548 435 548 435 568.5 441 c 128,-1,22
 589 447 589 447 602 456 c 1,23,-1
 602 658 l 1,24,-1
 680 658 l 1,25,-1
 680 -162 l 1,26,-1
 125 -162 l 1,27,-1
 125 -96 l 1,28,-1
 602 -96 l 1,29,-1
 602 385 l 1,30,31
 566 370 566 370 518 370 c 0,32,33
 439 370 439 370 391.5 410.5 c 128,-1,34
 344 451 344 451 344 519 c 0,35,36
 344 558 344 558 360 593 c 1,37,38
 268 591 268 591 212.5 564 c 128,-1,39
 157 537 157 537 132.5 494 c 128,-1,40
 108 451 108 451 108 403 c 0,41,42
 108 368 108 368 121 336 c 128,-1,43
 134 304 134 304 156 278 c 1,44,45
 181 316 181 316 222.5 335.5 c 128,-1,46
 264 355 264 355 312 355 c 0,47,48
 362 355 362 355 404.5 334 c 128,-1,49
 447 313 447 313 473 272.5 c 128,-1,50
 499 232 499 232 499 174 c 256,51,52
 499 116 499 116 473 75 c 128,-1,53
 447 34 447 34 404.5 13 c 128,-1,54
 362 -8 362 -8 312 -8 c 256,0,1
313 57 m 256,55,56
 358 57 358 57 392.5 86.5 c 128,-1,57
 427 116 427 116 427 174 c 0,58,59
 427 231 427 231 392 260 c 128,-1,60
 357 289 357 289 313 289 c 0,61,62
 268 289 268 289 233.5 260 c 128,-1,63
 199 231 199 231 199 174 c 0,64,65
 199 116 199 116 233.5 86.5 c 128,-1,66
 268 57 268 57 313 57 c 256,55,56
EndSplineSet
Ligature2: "'blws' Below Base Substitutions in Oriya2 lookup 13 subtable" uni0B16.base uni0B4D0B30
EndChar

StartChar: garaoriya
Encoding: 65544 -1 108
Width: 741
GlyphClass: 2
Flags: W
AnchorPoint: "+BBEENQQ3BEsEPARPBD0EPQQ+BDUA--1" 336 658 basechar 0
AnchorPoint: "+BBEENQQ3BEsEPARPBD0EPQQ+BDUA--0" 640 658 basechar 0
LayerCount: 2
Fore
SplineSet
311 -8 m 256,0,1
 256 -8 256 -8 214.5 15.5 c 128,-1,2
 173 39 173 39 149.5 80 c 128,-1,3
 126 121 126 121 126 174 c 0,4,5
 126 195 126 195 130 214 c 1,6,7
 79 253 79 253 55.5 303.5 c 128,-1,8
 32 354 32 354 32 410 c 0,9,10
 32 473 32 473 57.5 520.5 c 128,-1,11
 83 568 83 568 126 600.5 c 128,-1,12
 169 633 169 633 223 649.5 c 128,-1,13
 277 666 277 666 335 666 c 0,14,15
 411 666 411 666 483 637 c 128,-1,16
 555 608 555 608 604 549 c 1,17,-1
 601 658 l 1,18,-1
 679 658 l 1,19,-1
 679 -162 l 1,20,-1
 125 -162 l 1,21,-1
 125 -96 l 1,22,-1
 601 -96 l 1,23,-1
 601 419 l 1,24,25
 585 476 585 476 545.5 515 c 128,-1,26
 506 554 506 554 454 573.5 c 128,-1,27
 402 593 402 593 346 593 c 0,28,29
 285 593 285 593 230.5 571 c 128,-1,30
 176 549 176 549 142 506 c 128,-1,31
 108 463 108 463 108 401 c 0,32,33
 108 329 108 329 155 277 c 1,34,35
 179 313 179 313 219.5 334 c 128,-1,36
 260 355 260 355 311 355 c 0,37,38
 366 355 366 355 408.5 331.5 c 128,-1,39
 451 308 451 308 475 267 c 128,-1,40
 499 226 499 226 499 174 c 0,41,42
 499 121 499 121 475 80 c 128,-1,43
 451 39 451 39 408.5 15.5 c 128,-1,44
 366 -8 366 -8 311 -8 c 256,0,1
312 57 m 256,45,46
 363 57 363 57 395 89 c 128,-1,47
 427 121 427 121 427 174 c 0,48,49
 427 225 427 225 395.5 257 c 128,-1,50
 364 289 364 289 312 289 c 256,51,52
 260 289 260 289 229 257 c 128,-1,53
 198 225 198 225 198 174 c 0,54,55
 198 122 198 122 229.5 89.5 c 128,-1,56
 261 57 261 57 312 57 c 256,45,46
EndSplineSet
Ligature2: "'blws' Below Base Substitutions in Oriya2 lookup 13 subtable" uni0B17.base uni0B4D0B30
EndChar

StartChar: gharaoriya
Encoding: 65545 -1 109
Width: 741
GlyphClass: 2
Flags: W
AnchorPoint: "+BBEENQQ3BEsEPARPBD0EPQQ+BDUA--1" 336 658 basechar 0
AnchorPoint: "+BBEENQQ3BEsEPARPBD0EPQQ+BDUA--0" 640 658 basechar 0
LayerCount: 2
Fore
SplineSet
125 -96 m 1,0,-1
 601 -96 l 1,1,-1
 605 44 l 1,2,3
 587 18 587 18 562.5 5 c 128,-1,4
 538 -8 538 -8 512 -8 c 0,5,6
 482 -8 482 -8 453.5 9.5 c 128,-1,7
 425 27 425 27 410 62 c 1,8,9
 392 27 392 27 357.5 9.5 c 128,-1,10
 323 -8 323 -8 283 -8 c 0,11,12
 238 -8 238 -8 202.5 12.5 c 128,-1,13
 167 33 167 33 146.5 70 c 128,-1,14
 126 107 126 107 126 156 c 0,15,16
 126 184 126 184 133 212 c 1,17,18
 83 249 83 249 57.5 300.5 c 128,-1,19
 32 352 32 352 32 411 c 0,20,21
 32 486 32 486 71 543.5 c 128,-1,22
 110 601 110 601 177.5 633.5 c 128,-1,23
 245 666 245 666 332 666 c 0,24,25
 414 666 414 666 485.5 636 c 128,-1,26
 557 606 557 606 604 549 c 1,27,-1
 601 658 l 1,28,-1
 679 658 l 1,29,-1
 679 -162 l 1,30,-1
 125 -162 l 1,31,-1
 125 -96 l 1,0,-1
445 164 m 2,32,33
 445 110 445 110 470 83.5 c 128,-1,34
 495 57 495 57 526 57 c 0,35,36
 556 57 556 57 578.5 80.5 c 128,-1,37
 601 104 601 104 601 149 c 2,38,-1
 601 419 l 1,39,40
 585 476 585 476 545.5 515 c 128,-1,41
 506 554 506 554 453 573.5 c 128,-1,42
 400 593 400 593 342 593 c 0,43,44
 274 593 274 593 221 568 c 128,-1,45
 168 543 168 543 138 499.5 c 128,-1,46
 108 456 108 456 108 400 c 0,47,48
 108 327 108 327 159 274 c 1,49,50
 181 311 181 311 217 341.5 c 128,-1,51
 253 372 253 372 303 392 c 1,52,-1
 327 336 l 1,53,54
 261 308 261 308 229.5 258 c 128,-1,55
 198 208 198 208 198 161 c 0,56,57
 198 116 198 116 223 86.5 c 128,-1,58
 248 57 248 57 289 57 c 0,59,60
 327 57 327 57 354 83.5 c 128,-1,61
 381 110 381 110 381 164 c 2,62,-1
 381 234 l 1,63,-1
 445 234 l 1,64,-1
 445 164 l 2,32,33
EndSplineSet
Ligature2: "'blws' Below Base Substitutions in Oriya2 lookup 13 subtable" uni0B18.base uni0B4D0B30
EndChar

StartChar: ngaraoriya
Encoding: 65546 -1 110
Width: 750
GlyphClass: 2
Flags: W
AnchorPoint: "+BBEENQQ3BEsEPARPBD0EPQQ+BDUA--1" 347 658 basechar 0
AnchorPoint: "+BBEENQQ3BEsEPARPBD0EPQQ+BDUA--0" 591 658 basechar 0
LayerCount: 2
Fore
SplineSet
348 -8 m 0,0,1
 292 -8 292 -8 247 13.5 c 128,-1,2
 202 35 202 35 175.5 75 c 128,-1,3
 149 115 149 115 149 170 c 0,4,5
 149 188 149 188 152 205 c 1,6,7
 91 244 91 244 61.5 299.5 c 128,-1,8
 32 355 32 355 32 416 c 0,9,10
 32 482 32 482 68.5 539 c 128,-1,11
 105 596 105 596 175 631 c 128,-1,12
 245 666 245 666 346 666 c 256,13,14
 447 666 447 666 526 629 c 1,15,16
 560 658 560 658 612 658 c 0,17,18
 674 658 674 658 707 618.5 c 128,-1,19
 740 579 740 579 740 525 c 0,20,21
 740 490 740 490 725.5 459.5 c 128,-1,22
 711 429 711 429 682.5 410.5 c 128,-1,23
 654 392 654 392 612 392 c 0,24,25
 556 392 556 392 518.5 426.5 c 128,-1,26
 481 461 481 461 481 524 c 0,27,28
 481 550 481 550 489 572 c 1,29,30
 458 586 458 586 424.5 593.5 c 128,-1,31
 391 601 391 601 352 601 c 0,32,33
 272 601 272 601 217.5 573.5 c 128,-1,34
 163 546 163 546 135.5 502 c 128,-1,35
 108 458 108 458 108 408 c 0,36,37
 108 371 108 371 123.5 333.5 c 128,-1,38
 139 296 139 296 172 269 c 1,39,40
 188 302 188 302 217 335 c 128,-1,41
 246 368 246 368 291 398 c 1,42,-1
 326 352 l 1,43,44
 271 308 271 308 248 261.5 c 128,-1,45
 225 215 225 215 225 177 c 0,46,47
 225 122 225 122 262.5 91.5 c 128,-1,48
 300 61 300 61 353 61 c 0,49,50
 384 61 384 61 412 71.5 c 128,-1,51
 440 82 440 82 458 103 c 128,-1,52
 476 124 476 124 476 156 c 0,53,54
 476 207 476 207 424 244 c 1,55,-1
 368 186 l 1,56,-1
 327 227 l 1,57,-1
 479 386 l 1,58,-1
 520 345 l 1,59,-1
 471 293 l 1,60,61
 512 266 512 266 530 230.5 c 128,-1,62
 548 195 548 195 548 157 c 0,63,64
 548 103 548 103 519.5 66.5 c 128,-1,65
 491 30 491 30 445 11 c 128,-1,66
 399 -8 399 -8 348 -8 c 0,0,1
612 448 m 0,67,68
 645 448 645 448 661.5 472 c 128,-1,69
 678 496 678 496 678 525 c 0,70,71
 678 555 678 555 661.5 578.5 c 128,-1,72
 645 602 645 602 612 602 c 0,73,74
 584 602 584 602 563.5 582 c 128,-1,75
 543 562 543 562 543 524 c 0,76,77
 543 487 543 487 563.5 467.5 c 128,-1,78
 584 448 584 448 612 448 c 0,67,68
107 -96 m 1,79,-1
 554 -96 l 1,80,-1
 554 14 l 1,81,-1
 632 14 l 1,82,-1
 632 -162 l 1,83,-1
 107 -162 l 1,84,-1
 107 -96 l 1,79,-1
EndSplineSet
Ligature2: "'blws' Below Base Substitutions in Oriya2 lookup 13 subtable" uni0B19.base uni0B4D0B30
EndChar

StartChar: caraoriya
Encoding: 65547 -1 111
Width: 698
GlyphClass: 2
Flags: W
AnchorPoint: "+BBEENQQ3BEsEPARPBD0EPQQ+BDUA--3" 297 0 basechar 0
AnchorPoint: "+BBEENQQ3BEsEPARPBD0EPQQ+BDUA--1" 343 658 basechar 0
AnchorPoint: "+BBEENQQ3BEsEPARPBD0EPQQ+BDUA--0" 570 658 basechar 0
LayerCount: 2
Fore
SplineSet
312 -8 m 0,0,1
 259 -8 259 -8 217 14.5 c 128,-1,2
 175 37 175 37 150.5 78 c 128,-1,3
 126 119 126 119 126 174 c 0,4,5
 126 195 126 195 130 215 c 1,6,7
 78 255 78 255 55 306 c 128,-1,8
 32 357 32 357 32 413 c 0,9,10
 32 477 32 477 58.5 524.5 c 128,-1,11
 85 572 85 572 129 603.5 c 128,-1,12
 173 635 173 635 229 650.5 c 128,-1,13
 285 666 285 666 343 666 c 0,14,15
 404 666 404 666 461.5 649 c 128,-1,16
 519 632 519 632 565 598 c 128,-1,17
 611 564 611 564 638.5 513 c 128,-1,18
 666 462 666 462 666 394 c 0,19,20
 666 349 666 349 651.5 309 c 128,-1,21
 637 269 637 269 612 237 c 1,22,-1
 542 273 l 1,23,24
 563 298 563 298 574.5 329 c 128,-1,25
 586 360 586 360 586 395 c 0,26,27
 586 461 586 461 551 505 c 128,-1,28
 516 549 516 549 460.5 571 c 128,-1,29
 405 593 405 593 344 593 c 0,30,31
 281 593 281 593 227.5 571 c 128,-1,32
 174 549 174 549 141 506.5 c 128,-1,33
 108 464 108 464 108 403 c 0,34,35
 108 331 108 331 156 278 c 1,36,37
 180 314 180 314 221 334.5 c 128,-1,38
 262 355 262 355 312 355 c 0,39,40
 363 355 363 355 405.5 332.5 c 128,-1,41
 448 310 448 310 473.5 269.5 c 128,-1,42
 499 229 499 229 499 174 c 256,43,44
 499 119 499 119 473.5 78 c 128,-1,45
 448 37 448 37 405.5 14.5 c 128,-1,46
 363 -8 363 -8 312 -8 c 0,0,1
312 57 m 256,47,48
 361 57 361 57 394 89 c 128,-1,49
 427 121 427 121 427 174 c 0,50,51
 427 226 427 226 394.5 257.5 c 128,-1,52
 362 289 362 289 312 289 c 256,53,54
 262 289 262 289 230 257.5 c 128,-1,55
 198 226 198 226 198 174 c 0,56,57
 198 121 198 121 230.5 89 c 128,-1,58
 263 57 263 57 312 57 c 256,47,48
106 -162 m 1,59,-1
 106 -96 l 1,60,-1
 553 -96 l 1,61,-1
 553 14 l 1,62,-1
 631 14 l 1,63,-1
 631 -162 l 1,64,-1
 106 -162 l 1,59,-1
EndSplineSet
Ligature2: "'blws' Below Base Substitutions in Oriya2 lookup 13 subtable" uni0B1A.base uni0B4D0B30
EndChar

StartChar: charaoriya
Encoding: 65548 -1 112
Width: 717
GlyphClass: 2
Flags: W
AnchorPoint: "+BBEENQQ3BEsEPARPBD0EPQQ+BDUA--1" 352 658 basechar 0
AnchorPoint: "+BBEENQQ3BEsEPARPBD0EPQQ+BDUA--0" 590 658 basechar 0
LayerCount: 2
Fore
SplineSet
173 -8 m 0,0,1
 119 -8 119 -8 88.5 25 c 128,-1,2
 58 58 58 58 58 104 c 0,3,4
 58 132 58 132 70 156 c 128,-1,5
 82 180 82 180 107 194 c 1,6,7
 89 197 89 197 70.5 199 c 128,-1,8
 52 201 52 201 33 203 c 1,9,-1
 38 258 l 1,10,11
 75 254 75 254 111 245.5 c 128,-1,12
 147 237 147 237 182 225 c 1,13,14
 171 250 171 250 168 278 c 1,15,16
 102 301 102 301 67 348.5 c 128,-1,17
 32 396 32 396 32 454 c 0,18,19
 32 521 32 521 75 568.5 c 128,-1,20
 118 616 118 616 190.5 641 c 128,-1,21
 263 666 263 666 352 666 c 0,22,23
 447 666 447 666 522.5 638.5 c 128,-1,24
 598 611 598 611 641.5 558.5 c 128,-1,25
 685 506 685 506 685 432 c 0,26,27
 685 409 685 409 680.5 385 c 128,-1,28
 676 361 676 361 666 337 c 1,29,-1
 595 358 l 1,30,31
 601 373 601 373 605 389.5 c 128,-1,32
 609 406 609 406 609 424 c 0,33,34
 609 479 609 479 573.5 517.5 c 128,-1,35
 538 556 538 556 479.5 576.5 c 128,-1,36
 421 597 421 597 351 597 c 0,37,38
 280 597 280 597 225 577 c 128,-1,39
 170 557 170 557 139 522 c 128,-1,40
 108 487 108 487 108 441 c 0,41,42
 108 408 108 408 124.5 379.5 c 128,-1,43
 141 351 141 351 171 332 c 1,44,45
 184 389 184 389 232 424.5 c 128,-1,46
 280 460 280 460 352 460 c 0,47,48
 434 460 434 460 484 413 c 128,-1,49
 534 366 534 366 534 291 c 0,50,51
 534 250 534 250 517 216 c 1,52,53
 520 216 520 216 523 216 c 0,54,55
 584 216 584 216 615.5 183 c 128,-1,56
 647 150 647 150 647 103 c 0,57,58
 647 41 647 41 599 10 c 1,59,-1
 599 -162 l 1,60,-1
 74 -162 l 1,61,-1
 74 -96 l 1,62,-1
 521 -96 l 1,63,-1
 521 -8 l 1,64,65
 485 -5 485 -5 443 14.5 c 128,-1,66
 401 34 401 34 354 75 c 1,67,68
 309 35 309 35 263 13.5 c 128,-1,69
 217 -8 217 -8 173 -8 c 0,0,1
351 173 m 256,70,71
 399 173 399 173 433 200.5 c 128,-1,72
 467 228 467 228 467 282 c 0,73,74
 467 333 467 333 433 363.5 c 128,-1,75
 399 394 399 394 350 394 c 256,76,77
 301 394 301 394 267.5 364 c 128,-1,78
 234 334 234 334 234 285 c 0,79,80
 234 230 234 230 268.5 201.5 c 128,-1,81
 303 173 303 173 351 173 c 256,70,71
183 49 m 0,82,83
 239 49 239 49 305 105 c 1,84,85
 279 129 279 129 248 146 c 128,-1,86
 217 163 217 163 185 163 c 0,87,88
 156 163 156 163 138.5 147.5 c 128,-1,89
 121 132 121 132 121 107 c 256,90,91
 121 82 121 82 138 65.5 c 128,-1,92
 155 49 155 49 183 49 c 0,82,83
521 49 m 0,93,94
 549 49 549 49 566.5 65.5 c 128,-1,95
 584 82 584 82 584 107 c 256,96,97
 584 132 584 132 566.5 147.5 c 128,-1,98
 549 163 549 163 515 163 c 0,99,100
 489 163 489 163 465.5 151 c 128,-1,101
 442 139 442 139 400 105 c 1,102,103
 435 76 435 76 466.5 62.5 c 128,-1,104
 498 49 498 49 521 49 c 0,93,94
EndSplineSet
Ligature2: "'blws' Below Base Substitutions in Oriya2 lookup 13 subtable" uni0B1B.base uni0B4D0B30
EndChar

StartChar: jaraoriya
Encoding: 65549 -1 113
Width: 752
GlyphClass: 2
Flags: W
AnchorPoint: "+BBEENQQ3BEsEPARPBD0EPQQ+BDUA--1" 367 658 basechar 0
AnchorPoint: "+BBEENQQ3BEsEPARPBD0EPQQ+BDUA--0" 624 658 basechar 0
LayerCount: 2
Fore
SplineSet
112 -96 m 1,0,-1
 496 -96 l 1,1,-1
 496 218 l 2,2,3
 496 257 496 257 481 275.5 c 128,-1,4
 466 294 466 294 440 294 c 0,5,6
 375 294 375 294 375 180 c 0,7,8
 375 136 375 136 384 92.5 c 128,-1,9
 393 49 393 49 405 12 c 1,10,11
 352 -8 352 -8 292 -8 c 0,12,13
 212 -8 212 -8 162 32.5 c 128,-1,14
 112 73 112 73 112 159 c 0,15,16
 112 194 112 194 121 226 c 1,17,18
 75 267 75 267 53.5 313.5 c 128,-1,19
 32 360 32 360 32 411 c 0,20,21
 32 488 32 488 77 545.5 c 128,-1,22
 122 603 122 603 198 634.5 c 128,-1,23
 274 666 274 666 367 666 c 0,24,25
 434 666 434 666 497 649 c 128,-1,26
 560 632 560 632 610.5 598 c 128,-1,27
 661 564 661 564 690.5 513 c 128,-1,28
 720 462 720 462 720 395 c 0,29,30
 720 353 720 353 707.5 316.5 c 128,-1,31
 695 280 695 280 671 250 c 1,32,-1
 600 281 l 1,33,34
 619 304 619 304 629.5 333 c 128,-1,35
 640 362 640 362 640 395 c 0,36,37
 640 445 640 445 617 482 c 128,-1,38
 594 519 594 519 555 543.5 c 128,-1,39
 516 568 516 568 467 580.5 c 128,-1,40
 418 593 418 593 367 593 c 0,41,42
 294 593 294 593 235.5 570 c 128,-1,43
 177 547 177 547 142.5 504 c 128,-1,44
 108 461 108 461 108 403 c 0,45,46
 108 341 108 341 149 289 c 1,47,48
 169 320 169 320 197 346.5 c 128,-1,49
 225 373 225 373 261 397 c 1,50,-1
 291 354 l 1,51,52
 184 265 184 265 184 161 c 0,53,54
 184 109 184 109 214 81 c 128,-1,55
 244 53 244 53 294 53 c 0,56,57
 312 53 312 53 328 57 c 1,58,59
 318 88 318 88 312.5 117.5 c 128,-1,60
 307 147 307 147 307 181 c 0,61,62
 307 257 307 257 340.5 306 c 128,-1,63
 374 355 374 355 450 355 c 0,64,65
 509 355 509 355 541.5 323.5 c 128,-1,66
 574 292 574 292 574 228 c 2,67,-1
 574 -162 l 1,68,-1
 112 -162 l 1,69,-1
 112 -96 l 1,0,-1
EndSplineSet
Ligature2: "'blws' Below Base Substitutions in Oriya2 lookup 13 subtable" uni0B1C.base uni0B4D0B30
EndChar

StartChar: jharaoriya
Encoding: 65550 -1 114
Width: 698
GlyphClass: 2
Flags: W
AnchorPoint: "+BBEENQQ3BEsEPARPBD0EPQQ+BDUA--1" 370 658 basechar 0
AnchorPoint: "+BBEENQQ3BEsEPARPBD0EPQQ+BDUA--0" 589 658 basechar 0
LayerCount: 2
Fore
SplineSet
312 -8 m 0,0,1
 262 -8 262 -8 219.5 13 c 128,-1,2
 177 34 177 34 151.5 75 c 128,-1,3
 126 116 126 116 126 174 c 0,4,5
 126 195 126 195 130 215 c 1,6,7
 84 253 84 253 58 302.5 c 128,-1,8
 32 352 32 352 32 412 c 0,9,10
 32 479 32 479 68.5 536.5 c 128,-1,11
 105 594 105 594 182.5 630 c 128,-1,12
 260 666 260 666 383 666 c 2,13,-1
 421 666 l 1,14,-1
 457 626 l 1,15,16
 436 600 436 600 426 573 c 128,-1,17
 416 546 416 546 416 523 c 0,18,19
 416 485 416 485 440.5 460 c 128,-1,20
 465 435 465 435 516 435 c 0,21,22
 568 435 568 435 592.5 460 c 128,-1,23
 617 485 617 485 617 523 c 0,24,25
 617 547 617 547 606 573.5 c 128,-1,26
 595 600 595 600 572 626 c 1,27,-1
 612 666 l 1,28,29
 650 632 650 632 669 591 c 128,-1,30
 688 550 688 550 688 511 c 0,31,32
 688 454 688 454 646 412 c 128,-1,33
 604 370 604 370 516 370 c 0,34,35
 458 370 458 370 420 389.5 c 128,-1,36
 382 409 382 409 363.5 441 c 128,-1,37
 345 473 345 473 345 511 c 0,38,39
 345 552 345 552 365 593 c 1,40,-1
 365 593 l 1,41,42
 275 593 275 593 218.5 565.5 c 128,-1,43
 162 538 162 538 135 494.5 c 128,-1,44
 108 451 108 451 108 402 c 0,45,46
 108 367 108 367 121 335.5 c 128,-1,47
 134 304 134 304 156 278 c 1,48,49
 181 316 181 316 222.5 335.5 c 128,-1,50
 264 355 264 355 312 355 c 0,51,52
 362 355 362 355 404.5 334 c 128,-1,53
 447 313 447 313 473 272.5 c 128,-1,54
 499 232 499 232 499 174 c 0,55,56
 499 153 499 153 496 135 c 1,57,-1
 650 65 l 1,58,-1
 618 -8 l 1,59,-1
 468 68 l 1,60,61
 443 31 443 31 401.5 11.5 c 128,-1,62
 360 -8 360 -8 312 -8 c 0,0,1
313 57 m 256,63,64
 358 57 358 57 392.5 86.5 c 128,-1,65
 427 116 427 116 427 174 c 0,66,67
 427 231 427 231 392 260 c 128,-1,68
 357 289 357 289 313 289 c 0,69,70
 268 289 268 289 233.5 260 c 128,-1,71
 199 231 199 231 199 174 c 0,72,73
 199 116 199 116 233.5 86.5 c 128,-1,74
 268 57 268 57 313 57 c 256,63,64
129 -162 m 1,75,-1
 129 -96 l 1,76,-1
 455 -96 l 1,77,-1
 455 7 l 1,78,-1
 533 7 l 1,79,-1
 533 -162 l 1,80,-1
 129 -162 l 1,75,-1
EndSplineSet
Ligature2: "'blws' Below Base Substitutions in Oriya2 lookup 13 subtable" uni0B1D.base uni0B4D0B30
EndChar

StartChar: nyaraoriya
Encoding: 65551 -1 115
Width: 738
GlyphClass: 2
Flags: W
AnchorPoint: "+BBEENQQ3BEsEPARPBD0EPQQ+BDUA--1" 368 658 basechar 0
AnchorPoint: "+BBEENQQ3BEsEPARPBD0EPQQ+BDUA--0" 601 658 basechar 0
LayerCount: 2
Fore
SplineSet
373 -8 m 0,0,1
 199 -8 199 -8 117.5 60.5 c 128,-1,2
 36 129 36 129 36 243 c 0,3,4
 36 332 36 332 95 411 c 1,5,6
 54 462 54 462 54 533 c 0,7,8
 54 603 54 603 89 662 c 1,9,-1
 157 640 l 1,10,11
 146 616 146 616 138 591 c 128,-1,12
 130 566 130 566 130 537 c 0,13,14
 130 458 130 458 192.5 414.5 c 128,-1,15
 255 371 255 371 378 371 c 0,16,17
 493 371 493 371 550.5 409.5 c 128,-1,18
 608 448 608 448 608 520 c 0,19,20
 608 563 608 563 589.5 585 c 128,-1,21
 571 607 571 607 540 607 c 0,22,23
 512 607 512 607 493 588.5 c 128,-1,24
 474 570 474 570 474 535 c 2,25,-1
 474 453 l 1,26,-1
 409 453 l 1,27,-1
 409 530 l 2,28,29
 409 570 409 570 389.5 588.5 c 128,-1,30
 370 607 370 607 343 607 c 0,31,32
 311 607 311 607 294 587.5 c 128,-1,33
 277 568 277 568 277 538 c 0,34,35
 277 519 277 519 282.5 499.5 c 128,-1,36
 288 480 288 480 298 459 c 1,37,-1
 235 443 l 1,38,39
 221 472 221 472 214.5 498.5 c 128,-1,40
 208 525 208 525 208 546 c 0,41,42
 208 600 208 600 240.5 633 c 128,-1,43
 273 666 273 666 333 666 c 0,44,45
 368 666 368 666 396.5 652 c 128,-1,46
 425 638 425 638 441 609 c 1,47,48
 457 639 457 639 487.5 652.5 c 128,-1,49
 518 666 518 666 553 666 c 0,50,51
 617 666 617 666 650.5 627.5 c 128,-1,52
 684 589 684 589 684 524 c 0,53,54
 684 480 684 480 667 441 c 128,-1,55
 650 402 650 402 614 373 c 1,56,57
 653 358 653 358 677.5 319 c 128,-1,58
 702 280 702 280 702 221 c 0,59,60
 702 154 702 154 666 102.5 c 128,-1,61
 630 51 630 51 557 21.5 c 128,-1,62
 484 -8 484 -8 373 -8 c 0,0,1
112 243 m 0,63,64
 112 58 112 58 376 58 c 0,65,66
 498 58 498 58 562 100.5 c 128,-1,67
 626 143 626 143 626 220 c 0,68,69
 626 267 626 267 606 295 c 128,-1,70
 586 323 586 323 551 323 c 0,71,72
 522 323 522 323 500 300.5 c 128,-1,73
 478 278 478 278 478 233 c 2,74,-1
 478 160 l 1,75,-1
 413 160 l 1,76,-1
 413 231 l 2,77,78
 413 273 413 273 392.5 291.5 c 128,-1,79
 372 310 372 310 342 310 c 0,80,81
 308 310 308 310 292 290 c 128,-1,82
 276 270 276 270 276 241 c 0,83,84
 276 224 276 224 281.5 204.5 c 128,-1,85
 287 185 287 185 297 165 c 1,86,-1
 234 149 l 1,87,88
 220 177 220 177 213.5 202 c 128,-1,89
 207 227 207 227 207 249 c 0,90,91
 207 297 207 297 233 328 c 1,92,93
 184 341 184 341 148 364 c 1,94,95
 132 338 132 338 122 308.5 c 128,-1,96
 112 279 112 279 112 243 c 0,63,64
123 -162 m 1,97,-1
 123 -96 l 1,98,-1
 599 -96 l 1,99,-1
 599 7 l 1,100,-1
 677 7 l 1,101,-1
 677 -162 l 1,102,-1
 123 -162 l 1,97,-1
EndSplineSet
Ligature2: "'blws' Below Base Substitutions in Oriya2 lookup 13 subtable" uni0B1E.base uni0B4D0B30
EndChar

StartChar: ttaraoriya
Encoding: 65552 -1 116
Width: 701
GlyphClass: 2
Flags: W
AnchorPoint: "+BBEENQQ3BEsEPARPBD0EPQQ+BDUA--1" 323 658 basechar 0
AnchorPoint: "+BBEENQQ3BEsEPARPBD0EPQQ+BDUA--0" 600 658 basechar 0
LayerCount: 2
Fore
SplineSet
311 -8 m 256,0,1
 259 -8 259 -8 217 14.5 c 128,-1,2
 175 37 175 37 150.5 78 c 128,-1,3
 126 119 126 119 126 174 c 0,4,5
 126 195 126 195 130 215 c 1,6,7
 80 253 80 253 56 303 c 128,-1,8
 32 353 32 353 32 412 c 0,9,10
 32 496 32 496 73 552.5 c 128,-1,11
 114 609 114 609 180.5 637.5 c 128,-1,12
 247 666 247 666 323 666 c 0,13,14
 393 666 393 666 456.5 640 c 128,-1,15
 520 614 520 614 564 561 c 1,16,-1
 561 658 l 1,17,-1
 639 658 l 1,18,-1
 639 313 l 1,19,-1
 561 313 l 1,20,-1
 561 439 l 1,21,22
 535 517 535 517 470.5 555 c 128,-1,23
 406 593 406 593 330 593 c 0,24,25
 272 593 272 593 221.5 571.5 c 128,-1,26
 171 550 171 550 139.5 508 c 128,-1,27
 108 466 108 466 108 404 c 0,28,29
 108 367 108 367 120.5 335 c 128,-1,30
 133 303 133 303 156 278 c 1,31,32
 180 314 180 314 221 334.5 c 128,-1,33
 262 355 262 355 311 355 c 0,34,35
 363 355 363 355 405.5 332.5 c 128,-1,36
 448 310 448 310 473.5 269.5 c 128,-1,37
 499 229 499 229 499 174 c 256,38,39
 499 119 499 119 473.5 78 c 128,-1,40
 448 37 448 37 405.5 14.5 c 128,-1,41
 363 -8 363 -8 311 -8 c 256,0,1
312 57 m 256,42,43
 361 57 361 57 394 89 c 128,-1,44
 427 121 427 121 427 174 c 0,45,46
 427 226 427 226 394.5 257.5 c 128,-1,47
 362 289 362 289 312 289 c 256,48,49
 262 289 262 289 230 257.5 c 128,-1,50
 198 226 198 226 198 174 c 0,51,52
 198 121 198 121 230.5 89 c 128,-1,53
 263 57 263 57 312 57 c 256,42,43
114 -162 m 1,54,-1
 114 -96 l 1,55,-1
 561 -96 l 1,56,-1
 561 14 l 1,57,-1
 639 14 l 1,58,-1
 639 -162 l 1,59,-1
 114 -162 l 1,54,-1
EndSplineSet
Ligature2: "'blws' Below Base Substitutions in Oriya2 lookup 13 subtable" uni0B1F.base uni0B4D0B30
EndChar

StartChar: ttharaoriya
Encoding: 65553 -1 117
Width: 754
GlyphClass: 2
Flags: W
AnchorPoint: "+BBEENQQ3BEsEPARPBD0EPQQ+BDUA--1" 379 658 basechar 0
AnchorPoint: "+BBEENQQ3BEsEPARPBD0EPQQ+BDUA--0" 623 658 basechar 0
LayerCount: 2
Fore
SplineSet
378 -7 m 0,0,1
 274 -7 274 -7 196.5 35 c 128,-1,2
 119 77 119 77 75.5 152 c 128,-1,3
 32 227 32 227 32 328 c 256,4,5
 32 429 32 429 75.5 505 c 128,-1,6
 119 581 119 581 197 623.5 c 128,-1,7
 275 666 275 666 379 666 c 0,8,9
 482 666 482 666 559 623.5 c 128,-1,10
 636 581 636 581 679 505 c 128,-1,11
 722 429 722 429 722 328 c 256,12,13
 722 227 722 227 679 152 c 128,-1,14
 636 77 636 77 558.5 35 c 128,-1,15
 481 -7 481 -7 378 -7 c 0,0,1
378 66 m 0,16,17
 457 66 457 66 516.5 99 c 128,-1,18
 576 132 576 132 609 191.5 c 128,-1,19
 642 251 642 251 642 331 c 0,20,21
 642 409 642 409 609.5 468 c 128,-1,22
 577 527 577 527 518 560 c 128,-1,23
 459 593 459 593 380 593 c 0,24,25
 300 593 300 593 239.5 560 c 128,-1,26
 179 527 179 527 145.5 467 c 128,-1,27
 112 407 112 407 112 328 c 256,28,29
 112 249 112 249 145.5 190 c 128,-1,30
 179 131 179 131 238.5 98.5 c 128,-1,31
 298 66 298 66 378 66 c 0,16,17
103 -162 m 1,32,-1
 103 -96 l 1,33,-1
 580 -96 l 1,34,-1
 580 7 l 1,35,-1
 658 7 l 1,36,-1
 658 -162 l 1,37,-1
 103 -162 l 1,32,-1
EndSplineSet
Ligature2: "'blws' Below Base Substitutions in Oriya2 lookup 13 subtable" uni0B20.base uni0B4D0B30
EndChar

StartChar: ddaraoriya
Encoding: 65554 -1 118
Width: 734
GlyphClass: 2
Flags: W
AnchorPoint: "+BBEENQQ3BEsEPARPBD0EPQQ+BDUA--1" 364 658 basechar 0
AnchorPoint: "+BBEENQQ3BEsEPARPBD0EPQQ+BDUA--0" 606 658 basechar 0
LayerCount: 2
Fore
SplineSet
149 170 m 0,0,1
 149 188 149 188 152 205 c 1,2,3
 94 242 94 242 63 297 c 128,-1,4
 32 352 32 352 32 414 c 0,5,6
 32 485 32 485 72 542 c 128,-1,7
 112 599 112 599 186 632.5 c 128,-1,8
 260 666 260 666 364 666 c 0,9,10
 428 666 428 666 488.5 649 c 128,-1,11
 549 632 549 632 597 598.5 c 128,-1,12
 645 565 645 565 673.5 514 c 128,-1,13
 702 463 702 463 702 396 c 0,14,15
 702 348 702 348 686 306.5 c 128,-1,16
 670 265 670 265 642 232 c 1,17,-1
 574 268 l 1,18,19
 622 323 622 323 622 395 c 0,20,21
 622 461 622 461 585.5 505 c 128,-1,22
 549 549 549 549 490 571 c 128,-1,23
 431 593 431 593 365 593 c 0,24,25
 279 593 279 593 222 566.5 c 128,-1,26
 165 540 165 540 136.5 497.5 c 128,-1,27
 108 455 108 455 108 406 c 0,28,29
 108 368 108 368 125 331 c 128,-1,30
 142 294 142 294 172 269 c 1,31,32
 188 302 188 302 217 335 c 128,-1,33
 246 368 246 368 291 398 c 1,34,-1
 326 352 l 1,35,36
 271 308 271 308 248 261.5 c 128,-1,37
 225 215 225 215 225 177 c 0,38,39
 225 122 225 122 262.5 91.5 c 128,-1,40
 300 61 300 61 353 61 c 0,41,42
 384 61 384 61 412 71.5 c 128,-1,43
 440 82 440 82 458 103 c 128,-1,44
 476 124 476 124 476 156 c 0,45,46
 476 207 476 207 424 244 c 1,47,-1
 368 186 l 1,48,-1
 327 227 l 1,49,-1
 479 386 l 1,50,-1
 520 345 l 1,51,-1
 471 293 l 1,52,53
 512 266 512 266 530 230.5 c 128,-1,54
 548 195 548 195 548 157 c 0,55,56
 548 103 548 103 519.5 66.5 c 128,-1,57
 491 30 491 30 445 11 c 128,-1,58
 399 -8 399 -8 348 -8 c 0,59,60
 292 -8 292 -8 247 13.5 c 128,-1,61
 202 35 202 35 175.5 75 c 128,-1,62
 149 115 149 115 149 170 c 0,0,1
105 -162 m 1,63,-1
 105 -96 l 1,64,-1
 552 -96 l 1,65,-1
 552 14 l 1,66,-1
 630 14 l 1,67,-1
 630 -162 l 1,68,-1
 105 -162 l 1,63,-1
EndSplineSet
Ligature2: "'blws' Below Base Substitutions in Oriya2 lookup 13 subtable" uni0B21.base uni0B4D0B30
EndChar

StartChar: ddharaoriya
Encoding: 65555 -1 119
Width: 734
GlyphClass: 2
Flags: W
AnchorPoint: "+BBEENQQ3BEsEPARPBD0EPQQ+BDUA--1" 365 658 basechar 0
AnchorPoint: "+BBEENQQ3BEsEPARPBD0EPQQ+BDUA--0" 606 658 basechar 0
LayerCount: 2
Fore
SplineSet
126 165 m 0,0,1
 126 192 126 192 133 218 c 1,2,3
 84 255 84 255 58 306.5 c 128,-1,4
 32 358 32 358 32 415 c 0,5,6
 32 493 32 493 75.5 549 c 128,-1,7
 119 605 119 605 193.5 635.5 c 128,-1,8
 268 666 268 666 360 666 c 0,9,10
 457 666 457 666 534 633.5 c 128,-1,11
 611 601 611 601 656.5 540.5 c 128,-1,12
 702 480 702 480 702 396 c 0,13,14
 702 349 702 349 686.5 307.5 c 128,-1,15
 671 266 671 266 643 233 c 1,16,-1
 576 270 l 1,17,18
 622 325 622 325 622 394 c 0,19,20
 622 461 622 461 585.5 505 c 128,-1,21
 549 549 549 549 489.5 571 c 128,-1,22
 430 593 430 593 361 593 c 0,23,24
 287 593 287 593 230 569.5 c 128,-1,25
 173 546 173 546 140.5 504.5 c 128,-1,26
 108 463 108 463 108 407 c 0,27,28
 108 373 108 373 121 339.5 c 128,-1,29
 134 306 134 306 158 281 c 1,30,31
 197 350 197 350 275 401 c 1,32,-1
 307 359 l 1,33,34
 257 320 257 320 225.5 270 c 128,-1,35
 194 220 194 220 194 170 c 0,36,37
 194 140 194 140 206 113.5 c 128,-1,38
 218 87 218 87 244 70.5 c 128,-1,39
 270 54 270 54 314 54 c 0,40,41
 343 54 343 54 368 61 c 1,42,43
 299 124 299 124 299 204 c 0,44,45
 299 260 299 260 333.5 292.5 c 128,-1,46
 368 325 368 325 421 325 c 0,47,48
 479 325 479 325 513 290.5 c 128,-1,49
 547 256 547 256 547 205 c 0,50,51
 547 166 547 166 528 127.5 c 128,-1,52
 509 89 509 89 475 58 c 1,53,54
 510 39 510 39 554 23 c 1,55,-1
 530 -30 l 1,56,57
 467 -7 467 -7 421 21 c 1,58,59
 395 7 395 7 364 -0.5 c 128,-1,60
 333 -8 333 -8 298 -8 c 0,61,62
 239 -8 239 -8 200.5 16.5 c 128,-1,63
 162 41 162 41 144 80.5 c 128,-1,64
 126 120 126 120 126 165 c 0,0,1
364 200 m 0,65,66
 364 171 364 171 379 143.5 c 128,-1,67
 394 116 394 116 426 90 c 1,68,69
 454 112 454 112 468 141.5 c 128,-1,70
 482 171 482 171 482 200 c 256,71,72
 482 229 482 229 467 248 c 128,-1,73
 452 267 452 267 423 267 c 0,74,75
 395 267 395 267 379.5 247.5 c 128,-1,76
 364 228 364 228 364 200 c 0,65,66
115 -162 m 1,77,-1
 115 -96 l 1,78,-1
 573 -96 l 1,79,-1
 573 14 l 1,80,-1
 651 14 l 1,81,-1
 651 -162 l 1,82,-1
 115 -162 l 1,77,-1
EndSplineSet
Ligature2: "'blws' Below Base Substitutions in Oriya2 lookup 13 subtable" uni0B22.base uni0B4D0B30
EndChar

StartChar: nnaraoriya
Encoding: 65556 -1 120
Width: 741
GlyphClass: 2
Flags: W
AnchorPoint: "+BBEENQQ3BEsEPARPBD0EPQQ+BDUA--1" 370 658 basechar 0
AnchorPoint: "+BBEENQQ3BEsEPARPBD0EPQQ+BDUA--0" 640 658 basechar 0
LayerCount: 2
Fore
SplineSet
32 234 m 0,0,1
 32 310 32 310 72 368 c 128,-1,2
 112 426 112 426 185 450 c 1,3,4
 170 488 170 488 170 525 c 0,5,6
 170 588 170 588 216.5 627 c 128,-1,7
 263 666 263 666 346 666 c 0,8,9
 414 666 414 666 484.5 636.5 c 128,-1,10
 555 607 555 607 604 548 c 1,11,-1
 601 658 l 1,12,-1
 679 658 l 1,13,-1
 679 -162 l 1,14,-1
 125 -162 l 1,15,-1
 125 -96 l 1,16,-1
 601 -96 l 1,17,-1
 601 418 l 1,18,19
 584 479 584 479 544 519.5 c 128,-1,20
 504 560 504 560 453.5 580.5 c 128,-1,21
 403 601 403 601 355 601 c 0,22,23
 303 601 303 601 272.5 578 c 128,-1,24
 242 555 242 555 242 514 c 0,25,26
 242 490 242 490 252 464 c 1,27,28
 268 465 268 465 284 465 c 0,29,30
 316 465 316 465 351 459 c 128,-1,31
 386 453 386 453 420 440 c 1,32,-1
 401 383 l 1,33,34
 374 393 374 393 345 398.5 c 128,-1,35
 316 404 316 404 290 403 c 0,36,37
 209 403 209 403 164 361.5 c 128,-1,38
 119 320 119 320 113 256 c 1,39,40
 191 285 191 285 279 285 c 0,41,42
 382 285 382 285 441 245.5 c 128,-1,43
 500 206 500 206 500 136 c 0,44,45
 500 90 500 90 473.5 58 c 128,-1,46
 447 26 447 26 402 9 c 128,-1,47
 357 -8 357 -8 302 -8 c 0,48,49
 253 -8 253 -8 205.5 6 c 128,-1,50
 158 20 158 20 118.5 49.5 c 128,-1,51
 79 79 79 79 55.5 125 c 128,-1,52
 32 171 32 171 32 234 c 0,0,1
275 227 m 0,53,54
 235 227 235 227 192.5 219 c 128,-1,55
 150 211 150 211 115 198 c 1,56,57
 123 147 123 147 152.5 115 c 128,-1,58
 182 83 182 83 221 68.5 c 128,-1,59
 260 54 260 54 299 54 c 0,60,61
 348 54 348 54 384 76 c 128,-1,62
 420 98 420 98 420 138 c 0,63,64
 420 180 420 180 382 203.5 c 128,-1,65
 344 227 344 227 275 227 c 0,53,54
EndSplineSet
Ligature2: "'blws' Below Base Substitutions in Oriya2 lookup 13 subtable" uni0B23.base uni0B4D0B30
EndChar

StartChar: taraoriya
Encoding: 65557 -1 121
Width: 734
GlyphClass: 2
Flags: W
AnchorPoint: "+BBEENQQ3BEsEPARPBD0EPQQ+BDUA--1" 364 658 basechar 0
AnchorPoint: "+BBEENQQ3BEsEPARPBD0EPQQ+BDUA--0" 606 658 basechar 0
LayerCount: 2
Fore
SplineSet
149 176 m 0,0,1
 149 191 149 191 151 206 c 1,2,3
 91 245 91 245 61.5 299 c 128,-1,4
 32 353 32 353 32 414 c 0,5,6
 32 493 32 493 77.5 549.5 c 128,-1,7
 123 606 123 606 198.5 636 c 128,-1,8
 274 666 274 666 364 666 c 0,9,10
 456 666 456 666 532.5 635.5 c 128,-1,11
 609 605 609 605 655.5 547.5 c 128,-1,12
 702 490 702 490 702 409 c 0,13,14
 702 360 702 360 686.5 317 c 128,-1,15
 671 274 671 274 642 240 c 1,16,-1
 575 276 l 1,17,18
 622 333 622 333 622 408 c 0,19,20
 622 469 622 469 586 510.5 c 128,-1,21
 550 552 550 552 491 572.5 c 128,-1,22
 432 593 432 593 362 593 c 0,23,24
 291 593 291 593 233 569.5 c 128,-1,25
 175 546 175 546 141.5 504 c 128,-1,26
 108 462 108 462 108 406 c 0,27,28
 108 375 108 375 122 337 c 128,-1,29
 136 299 136 299 170 270 c 1,30,31
 202 339 202 339 280 398 c 1,32,-1
 314 354 l 1,33,34
 269 314 269 314 245 270.5 c 128,-1,35
 221 227 221 227 221 182 c 0,36,37
 221 140 221 140 240 112.5 c 128,-1,38
 259 85 259 85 290 71 c 128,-1,39
 321 57 321 57 356 57 c 0,40,41
 412 57 412 57 445.5 89.5 c 128,-1,42
 479 122 479 122 479 169 c 0,43,44
 479 211 479 211 454 237 c 1,45,46
 450 219 450 219 434.5 209 c 128,-1,47
 419 199 419 199 400 199 c 0,48,49
 375 199 375 199 357 215 c 128,-1,50
 339 231 339 231 339 257 c 0,51,52
 339 289 339 289 361.5 305 c 128,-1,53
 384 321 384 321 415 321 c 0,54,55
 450 321 450 321 480.5 303.5 c 128,-1,56
 511 286 511 286 529.5 252.5 c 128,-1,57
 548 219 548 219 548 174 c 0,58,59
 548 123 548 123 523.5 81.5 c 128,-1,60
 499 40 499 40 455 16 c 128,-1,61
 411 -8 411 -8 351 -8 c 0,62,63
 296 -8 296 -8 250 13.5 c 128,-1,64
 204 35 204 35 176.5 76.5 c 128,-1,65
 149 118 149 118 149 176 c 0,0,1
109 -162 m 1,66,-1
 109 -96 l 1,67,-1
 556 -96 l 1,68,-1
 556 14 l 1,69,-1
 634 14 l 1,70,-1
 634 -162 l 1,71,-1
 109 -162 l 1,66,-1
EndSplineSet
Ligature2: "'blws' Below Base Substitutions in Oriya2 lookup 13 subtable" uni0B24.base uni0B4D0B30
EndChar

StartChar: tharaoriya
Encoding: 65558 -1 122
Width: 689
GlyphClass: 2
Flags: W
AnchorPoint: "+BBEENQQ3BEsEPARPBD0EPQQ+BDUA--1" 275 658 basechar 0
AnchorPoint: "+BBEENQQ3BEsEPARPBD0EPQQ+BDUA--0" 589 658 basechar 0
LayerCount: 2
Fore
SplineSet
379 501 m 0,0,1
 379 546 379 546 351.5 573 c 128,-1,2
 324 600 324 600 273 600 c 256,3,4
 222 600 222 600 192.5 572.5 c 128,-1,5
 163 545 163 545 163 498 c 0,6,7
 163 483 163 483 166.5 466 c 128,-1,8
 170 449 170 449 179 430 c 1,9,-1
 104 408 l 1,10,11
 95 429 95 429 89 453 c 128,-1,12
 83 477 83 477 83 502 c 0,13,14
 83 578 83 578 134.5 622 c 128,-1,15
 186 666 186 666 275 666 c 0,16,17
 362 666 362 666 410.5 623 c 128,-1,18
 459 580 459 580 459 503 c 0,19,20
 459 448 459 448 436 412.5 c 128,-1,21
 413 377 413 377 377 355.5 c 128,-1,22
 341 334 341 334 300 321 c 2,23,-1
 232 297 l 2,24,25
 201 287 201 287 173.5 274 c 128,-1,26
 146 261 146 261 129 239.5 c 128,-1,27
 112 218 112 218 112 182 c 0,28,29
 112 132 112 132 148.5 98.5 c 128,-1,30
 185 65 185 65 261 65 c 0,31,32
 336 65 336 65 413 99.5 c 128,-1,33
 490 134 490 134 550 204 c 1,34,-1
 550 658 l 1,35,-1
 628 658 l 1,36,-1
 628 -162 l 1,37,-1
 73 -162 l 1,38,-1
 73 -96 l 1,39,-1
 550 -96 l 1,40,-1
 553 109 l 1,41,42
 499 54 499 54 423 23 c 128,-1,43
 347 -8 347 -8 259 -8 c 0,44,45
 143 -8 143 -8 87.5 45 c 128,-1,46
 32 98 32 98 32 178 c 0,47,48
 32 229 32 229 51 261.5 c 128,-1,49
 70 294 70 294 100.5 313.5 c 128,-1,50
 131 333 131 333 166 345.5 c 128,-1,51
 201 358 201 358 234 369 c 2,52,-1
 254 376 l 2,53,54
 279 384 279 384 308.5 397 c 128,-1,55
 338 410 338 410 358.5 434.5 c 128,-1,56
 379 459 379 459 379 501 c 0,0,1
EndSplineSet
Ligature2: "'blws' Below Base Substitutions in Oriya2 lookup 13 subtable" uni0B25.base uni0B4D0B30
EndChar

StartChar: daraoriya
Encoding: 65559 -1 123
Width: 752
GlyphClass: 2
Flags: W
AnchorPoint: "+BBEENQQ3BEsEPARPBD0EPQQ+BDUA--1" 367 658 basechar 0
AnchorPoint: "+BBEENQQ3BEsEPARPBD0EPQQ+BDUA--0" 624 658 basechar 0
LayerCount: 2
Fore
SplineSet
323 64 m 0,0,1
 240 64 240 64 197.5 105 c 128,-1,2
 155 146 155 146 152 201 c 1,3,4
 91 241 91 241 61.5 295 c 128,-1,5
 32 349 32 349 32 411 c 0,6,7
 32 488 32 488 77 545.5 c 128,-1,8
 122 603 122 603 198 634.5 c 128,-1,9
 274 666 274 666 367 666 c 0,10,11
 434 666 434 666 497 649 c 128,-1,12
 560 632 560 632 610.5 598 c 128,-1,13
 661 564 661 564 690.5 513 c 128,-1,14
 720 462 720 462 720 395 c 0,15,16
 720 350 720 350 705.5 310.5 c 128,-1,17
 691 271 691 271 664 237 c 1,18,-1
 596 273 l 1,19,20
 617 298 617 298 628.5 329 c 128,-1,21
 640 360 640 360 640 395 c 0,22,23
 640 445 640 445 617 482 c 128,-1,24
 594 519 594 519 555 543.5 c 128,-1,25
 516 568 516 568 467 580.5 c 128,-1,26
 418 593 418 593 367 593 c 0,27,28
 294 593 294 593 235.5 570 c 128,-1,29
 177 547 177 547 142.5 504 c 128,-1,30
 108 461 108 461 108 403 c 0,31,32
 108 367 108 367 122.5 332.5 c 128,-1,33
 137 298 137 298 164 272 c 1,34,35
 177 305 177 305 206 335 c 128,-1,36
 235 365 235 365 280 385 c 1,37,-1
 312 341 l 1,38,39
 273 319 273 319 252 284.5 c 128,-1,40
 231 250 231 250 231 217 c 0,41,42
 231 180 231 180 257 153 c 128,-1,43
 283 126 283 126 336 126 c 0,44,45
 366 126 366 126 393.5 135.5 c 128,-1,46
 421 145 421 145 440 166 c 1,47,-1
 440 320 l 1,48,-1
 518 320 l 1,49,-1
 518 0 l 1,50,-1
 440 0 l 1,51,-1
 445 98 l 1,52,53
 420 81 420 81 389 72.5 c 128,-1,54
 358 64 358 64 323 64 c 0,0,1
151 -162 m 1,55,-1
 151 -96 l 1,56,-1
 560 -96 l 1,57,-1
 560 14 l 1,58,-1
 638 14 l 1,59,-1
 638 -162 l 1,60,-1
 151 -162 l 1,55,-1
EndSplineSet
Ligature2: "'blws' Below Base Substitutions in Oriya2 lookup 13 subtable" uni0B26.base uni0B4D0B30
EndChar

StartChar: dharaoriya
Encoding: 65560 -1 124
Width: 690
GlyphClass: 2
Flags: W
AnchorPoint: "+BBEENQQ3BEsEPARPBD0EPQQ+BDUA--1" 338 658 basechar 0
AnchorPoint: "+BBEENQQ3BEsEPARPBD0EPQQ+BDUA--0" 590 658 basechar 0
LayerCount: 2
Fore
SplineSet
32 221 m 0,0,1
 32 294 32 294 79.5 356 c 128,-1,2
 127 418 127 418 218 452 c 1,3,-1
 77 613 l 1,4,-1
 130 665 l 1,5,-1
 447 304 l 1,6,-1
 395 253 l 1,7,-1
 267 398 l 1,8,9
 190 373 190 373 151 325.5 c 128,-1,10
 112 278 112 278 112 222 c 0,11,12
 112 179 112 179 132.5 143.5 c 128,-1,13
 153 108 153 108 193 86.5 c 128,-1,14
 233 65 233 65 291 65 c 0,15,16
 357 65 357 65 425 96.5 c 128,-1,17
 493 128 493 128 550 196 c 1,18,-1
 551 658 l 1,19,-1
 629 658 l 1,20,-1
 629 -162 l 1,21,-1
 75 -162 l 1,22,-1
 75 -96 l 1,23,-1
 551 -96 l 1,24,-1
 554 100 l 1,25,26
 499 46 499 46 431 19 c 128,-1,27
 363 -8 363 -8 290 -8 c 0,28,29
 210 -8 210 -8 152.5 21 c 128,-1,30
 95 50 95 50 63.5 101.5 c 128,-1,31
 32 153 32 153 32 221 c 0,0,1
EndSplineSet
Ligature2: "'blws' Below Base Substitutions in Oriya2 lookup 13 subtable" uni0B27.base uni0B4D0B30
EndChar

StartChar: naraoriya
Encoding: 65561 -1 125
Width: 712
GlyphClass: 2
Flags: W
AnchorPoint: "+BBEENQQ3BEsEPARPBD0EPQQ+BDUA--1" 348 658 basechar 0
AnchorPoint: "+BBEENQQ3BEsEPARPBD0EPQQ+BDUA--0" 584 658 basechar 0
LayerCount: 2
Fore
SplineSet
93 -162 m 1,0,-1
 93 -96 l 1,1,-1
 418 -96 l 1,2,-1
 418 288 l 1,3,4
 414 288 414 288 409 288 c 0,5,6
 351 288 351 288 305 264.5 c 128,-1,7
 259 241 259 241 229.5 203.5 c 128,-1,8
 200 166 200 166 190 124 c 1,9,-1
 191 124 l 2,10,11
 223 124 223 124 242 103.5 c 128,-1,12
 261 83 261 83 261 57 c 0,13,14
 261 29 261 29 241.5 10.5 c 128,-1,15
 222 -8 222 -8 192 -8 c 0,16,17
 158 -8 158 -8 135.5 18.5 c 128,-1,18
 113 45 113 45 113 92 c 0,19,20
 113 145 113 145 141 198 c 1,21,22
 88 235 88 235 60 290 c 128,-1,23
 32 345 32 345 32 409 c 0,24,25
 32 472 32 472 58 520.5 c 128,-1,26
 84 569 84 569 128.5 601 c 128,-1,27
 173 633 173 633 230.5 649.5 c 128,-1,28
 288 666 288 666 350 666 c 0,29,30
 415 666 415 666 474.5 649 c 128,-1,31
 534 632 534 632 580 598.5 c 128,-1,32
 626 565 626 565 652.5 515.5 c 128,-1,33
 679 466 679 466 679 401 c 0,34,35
 679 355 679 355 666.5 315 c 128,-1,36
 654 275 654 275 632 241 c 1,37,-1
 563 276 l 1,38,39
 580 302 580 302 590 333 c 128,-1,40
 600 364 600 364 600 399 c 0,41,42
 600 463 600 463 564 506.5 c 128,-1,43
 528 550 528 550 471 571.5 c 128,-1,44
 414 593 414 593 349 593 c 0,45,46
 285 593 285 593 231 571.5 c 128,-1,47
 177 550 177 550 144.5 507.5 c 128,-1,48
 112 465 112 465 112 404 c 0,49,50
 112 362 112 362 129.5 322.5 c 128,-1,51
 147 283 147 283 181 257 c 1,52,53
 219 299 219 299 276 326.5 c 128,-1,54
 333 354 333 354 406 354 c 0,55,56
 427 354 427 354 452 351.5 c 128,-1,57
 477 349 477 349 496 346 c 1,58,-1
 496 -162 l 1,59,-1
 93 -162 l 1,0,-1
EndSplineSet
Ligature2: "'blws' Below Base Substitutions in Oriya2 lookup 13 subtable" uni0B28.base uni0B4D0B30
EndChar

StartChar: paraoriya
Encoding: 65562 -1 126
Width: 741
GlyphClass: 2
Flags: W
AnchorPoint: "+BBEENQQ3BEsEPARPBD0EPQQ+BDUA--1" 329 658 basechar 0
AnchorPoint: "+BBEENQQ3BEsEPARPBD0EPQQ+BDUA--0" 640 658 basechar 0
LayerCount: 2
Fore
SplineSet
373 -7 m 0,0,1
 316 -7 316 -7 269 15 c 128,-1,2
 222 37 222 37 193.5 79 c 128,-1,3
 165 121 165 121 165 178 c 0,4,5
 165 185 165 185 165 192 c 1,6,7
 99 230 99 230 65.5 288 c 128,-1,8
 32 346 32 346 32 416 c 0,9,10
 32 476 32 476 56.5 522.5 c 128,-1,11
 81 569 81 569 123 601 c 128,-1,12
 165 633 165 633 218 649.5 c 128,-1,13
 271 666 271 666 329 666 c 0,14,15
 408 666 408 666 481.5 637 c 128,-1,16
 555 608 555 608 604 549 c 1,17,-1
 601 658 l 1,18,-1
 679 658 l 1,19,-1
 679 -162 l 1,20,-1
 125 -162 l 1,21,-1
 125 -96 l 1,22,-1
 601 -96 l 1,23,-1
 605 100 l 1,24,25
 560 45 560 45 497.5 19 c 128,-1,26
 435 -7 435 -7 373 -7 c 0,0,1
244 187 m 0,27,28
 244 148 244 148 264.5 121 c 128,-1,29
 285 94 285 94 316 80 c 128,-1,30
 347 66 347 66 381 66 c 0,31,32
 421 66 421 66 463 81 c 128,-1,33
 505 96 505 96 541.5 126 c 128,-1,34
 578 156 578 156 601 201 c 1,35,-1
 601 418 l 1,36,37
 585 475 585 475 545.5 514 c 128,-1,38
 506 553 506 553 452 573 c 128,-1,39
 398 593 398 593 337 593 c 0,40,41
 277 593 277 593 225.5 571 c 128,-1,42
 174 549 174 549 143 506.5 c 128,-1,43
 112 464 112 464 112 402 c 0,44,45
 112 363 112 363 129.5 325.5 c 128,-1,46
 147 288 147 288 182 260 c 1,47,48
 203 306 203 306 245 341 c 128,-1,49
 287 376 287 376 345 395 c 1,50,-1
 372 333 l 1,51,52
 316 314 316 314 280 275.5 c 128,-1,53
 244 237 244 237 244 187 c 0,27,28
EndSplineSet
Ligature2: "'blws' Below Base Substitutions in Oriya2 lookup 13 subtable" uni0B2A.base uni0B4D0B30
EndChar

StartChar: pharaoriya
Encoding: 65563 -1 127
Width: 899
GlyphClass: 2
Flags: W
AnchorPoint: "+BBEENQQ3BEsEPARPBD0EPQQ+BDUA--1" 329 658 basechar 0
AnchorPoint: "+BBEENQQ3BEsEPARPBD0EPQQ+BDUA--0" 758 658 basechar 0
LayerCount: 2
Fore
SplineSet
373 -7 m 0,0,1
 316 -7 316 -7 269 15 c 128,-1,2
 222 37 222 37 193.5 79 c 128,-1,3
 165 121 165 121 165 178 c 0,4,5
 165 185 165 185 165 192 c 1,6,7
 99 230 99 230 65.5 288 c 128,-1,8
 32 346 32 346 32 416 c 0,9,10
 32 476 32 476 56.5 522.5 c 128,-1,11
 81 569 81 569 123 601 c 128,-1,12
 165 633 165 633 218 649.5 c 128,-1,13
 271 666 271 666 329 666 c 0,14,15
 408 666 408 666 481.5 637 c 128,-1,16
 555 608 555 608 604 549 c 1,17,-1
 601 658 l 1,18,-1
 679 658 l 1,19,-1
 679 577 l 1,20,21
 714 606 714 606 762 606 c 0,22,23
 819 606 819 606 854 567 c 128,-1,24
 889 528 889 528 889 469 c 0,25,26
 889 411 889 411 854.5 372 c 128,-1,27
 820 333 820 333 763 333 c 0,28,29
 714 333 714 333 679 361 c 1,30,-1
 679 -162 l 1,31,-1
 125 -162 l 1,32,-1
 125 -96 l 1,33,-1
 601 -96 l 1,34,-1
 605 100 l 1,35,36
 560 45 560 45 497.5 19 c 128,-1,37
 435 -7 435 -7 373 -7 c 0,0,1
244 187 m 0,38,39
 244 148 244 148 264.5 121 c 128,-1,40
 285 94 285 94 316 80 c 128,-1,41
 347 66 347 66 381 66 c 0,42,43
 421 66 421 66 463 81 c 128,-1,44
 505 96 505 96 541.5 126 c 128,-1,45
 578 156 578 156 601 201 c 1,46,-1
 601 418 l 1,47,48
 585 475 585 475 545.5 514 c 128,-1,49
 506 553 506 553 452 573 c 128,-1,50
 398 593 398 593 337 593 c 0,51,52
 277 593 277 593 225.5 571 c 128,-1,53
 174 549 174 549 143 506.5 c 128,-1,54
 112 464 112 464 112 402 c 0,55,56
 112 363 112 363 129.5 325.5 c 128,-1,57
 147 288 147 288 182 260 c 1,58,59
 203 306 203 306 245 341 c 128,-1,60
 287 376 287 376 345 395 c 1,61,-1
 372 333 l 1,62,63
 316 314 316 314 280 275.5 c 128,-1,64
 244 237 244 237 244 187 c 0,38,39
753 551 m 0,65,66
 723 551 723 551 701 529.5 c 128,-1,67
 679 508 679 508 679 468 c 256,68,69
 679 428 679 428 701 408 c 128,-1,70
 723 388 723 388 753 388 c 0,71,72
 788 388 788 388 806.5 412.5 c 128,-1,73
 825 437 825 437 825 469 c 256,74,75
 825 501 825 501 806.5 526 c 128,-1,76
 788 551 788 551 753 551 c 0,65,66
EndSplineSet
Ligature2: "'blws' Below Base Substitutions in Oriya2 lookup 13 subtable" uni0B2B.base uni0B4D0B30
EndChar

StartChar: baraoriya
Encoding: 65564 -1 128
Width: 721
GlyphClass: 2
Flags: W
AnchorPoint: "+BBEENQQ3BEsEPARPBD0EPQQ+BDUA--1" 353 658 basechar 0
AnchorPoint: "+BBEENQQ3BEsEPARPBD0EPQQ+BDUA--0" 590 658 basechar 0
LayerCount: 2
Fore
SplineSet
328 49 m 0,0,1
 253 49 253 49 204 92 c 128,-1,2
 155 135 155 135 149 205 c 1,3,4
 91 239 91 239 61.5 294.5 c 128,-1,5
 32 350 32 350 32 412 c 0,6,7
 32 483 32 483 70.5 540.5 c 128,-1,8
 109 598 109 598 181 632 c 128,-1,9
 253 666 253 666 353 666 c 0,10,11
 415 666 415 666 474 649 c 128,-1,12
 533 632 533 632 581 598.5 c 128,-1,13
 629 565 629 565 657.5 514 c 128,-1,14
 686 463 686 463 686 396 c 0,15,16
 686 351 686 351 672.5 313.5 c 128,-1,17
 659 276 659 276 636 247 c 1,18,-1
 565 278 l 1,19,20
 585 303 585 303 595.5 332 c 128,-1,21
 606 361 606 361 606 396 c 0,22,23
 606 462 606 462 569.5 506 c 128,-1,24
 533 550 533 550 475 571.5 c 128,-1,25
 417 593 417 593 354 593 c 0,26,27
 275 593 275 593 220 566.5 c 128,-1,28
 165 540 165 540 136.5 496.5 c 128,-1,29
 108 453 108 453 108 402 c 0,30,31
 108 367 108 367 121 334.5 c 128,-1,32
 134 302 134 302 158 278 c 1,33,34
 175 330 175 330 220 360.5 c 128,-1,35
 265 391 265 391 330 391 c 0,36,37
 410 391 410 391 459 344 c 128,-1,38
 508 297 508 297 508 222 c 2,39,-1
 508 0 l 1,40,-1
 430 0 l 1,41,-1
 432 76 l 1,42,43
 387 49 387 49 328 49 c 0,0,1
329 110 m 0,44,45
 377 110 377 110 407 140.5 c 128,-1,46
 437 171 437 171 437 221 c 0,47,48
 437 269 437 269 407 299 c 128,-1,49
 377 329 377 329 329 329 c 0,50,51
 282 329 282 329 251 299 c 128,-1,52
 220 269 220 269 220 221 c 0,53,54
 220 171 220 171 251 140.5 c 128,-1,55
 282 110 282 110 329 110 c 0,44,45
141 -162 m 1,56,-1
 141 -96 l 1,57,-1
 550 -96 l 1,58,-1
 550 14 l 1,59,-1
 628 14 l 1,60,-1
 628 -162 l 1,61,-1
 141 -162 l 1,56,-1
EndSplineSet
Ligature2: "'blws' Below Base Substitutions in Oriya2 lookup 13 subtable" uni0B2C.base uni0B4D0B30
EndChar

StartChar: bharaoriya
Encoding: 65565 -1 129
Width: 833
GlyphClass: 2
Flags: W
AnchorPoint: "+BBEENQQ3BEsEPARPBD0EPQQ+BDUA--1" 398 658 basechar 0
AnchorPoint: "+BBEENQQ3BEsEPARPBD0EPQQ+BDUA--0" 691 658 basechar 0
LayerCount: 2
Fore
SplineSet
365 -8 m 0,0,1
 254 -8 254 -8 193.5 45.5 c 128,-1,2
 133 99 133 99 133 190 c 0,3,4
 133 201 133 201 134 212 c 1,5,6
 79 256 79 256 55.5 306 c 128,-1,7
 32 356 32 356 32 408 c 0,8,9
 32 485 32 485 77 543.5 c 128,-1,10
 122 602 122 602 204 634 c 128,-1,11
 286 666 286 666 400 666 c 0,12,13
 523 666 523 666 611 628.5 c 128,-1,14
 699 591 699 591 746 522.5 c 128,-1,15
 793 454 793 454 793 363 c 0,16,17
 793 309 793 309 775.5 258 c 128,-1,18
 758 207 758 207 719 160 c 1,19,-1
 815 39 l 1,20,-1
 751 -9 l 1,21,-1
 631 154 l 1,22,23
 676 197 676 197 695 244.5 c 128,-1,24
 714 292 714 292 714 344 c 0,25,26
 714 426 714 426 674 481 c 128,-1,27
 634 536 634 536 562.5 564.5 c 128,-1,28
 491 593 491 593 396 593 c 0,29,30
 308 593 308 593 243.5 568.5 c 128,-1,31
 179 544 179 544 143.5 500.5 c 128,-1,32
 108 457 108 457 108 400 c 0,33,34
 108 372 108 372 118 342.5 c 128,-1,35
 128 313 128 313 151 285 c 1,36,37
 164 318 164 318 185.5 350 c 128,-1,38
 207 382 207 382 239 412 c 1,39,-1
 284 371 l 1,40,41
 244 324 244 324 226.5 278.5 c 128,-1,42
 209 233 209 233 209 193 c 0,43,44
 209 131 209 131 250 91.5 c 128,-1,45
 291 52 291 52 367 52 c 0,46,47
 427 52 427 52 462 75.5 c 128,-1,48
 497 99 497 99 508 143 c 1,49,50
 476 131 476 131 440 131 c 0,51,52
 386 131 386 131 354.5 158.5 c 128,-1,53
 323 186 323 186 323 233 c 0,54,55
 323 295 323 295 379 359 c 1,56,-1
 421 321 l 1,57,58
 395 278 395 278 395 240 c 0,59,60
 395 215 395 215 410 198.5 c 128,-1,61
 425 182 425 182 458 182 c 0,62,63
 488 182 488 182 513 195 c 1,64,-1
 513 320 l 1,65,-1
 591 320 l 1,66,-1
 591 193 l 2,67,68
 591 90 591 90 529 41 c 128,-1,69
 467 -8 467 -8 365 -8 c 0,0,1
142 -162 m 1,70,-1
 142 -96 l 1,71,-1
 589 -96 l 1,72,-1
 589 14 l 1,73,-1
 667 14 l 1,74,-1
 667 -162 l 1,75,-1
 142 -162 l 1,70,-1
EndSplineSet
Ligature2: "'blws' Below Base Substitutions in Oriya2 lookup 13 subtable" uni0B2D.base uni0B4D0B30
EndChar

StartChar: maraoriya
Encoding: 65566 -1 130
Width: 741
GlyphClass: 2
Flags: W
AnchorPoint: "+BBEENQQ3BEsEPARPBD0EPQQ+BDUA--1" 331 658 basechar 0
AnchorPoint: "+BBEENQQ3BEsEPARPBD0EPQQ+BDUA--0" 640 658 basechar 0
LayerCount: 2
Fore
SplineSet
192 -8 m 0,0,1
 158 -8 158 -8 135.5 18.5 c 128,-1,2
 113 45 113 45 113 91 c 0,3,4
 113 148 113 148 143 201 c 1,5,6
 89 237 89 237 60.5 292 c 128,-1,7
 32 347 32 347 32 412 c 0,8,9
 32 482 32 482 67.5 539.5 c 128,-1,10
 103 597 103 597 170 631.5 c 128,-1,11
 237 666 237 666 331 666 c 0,12,13
 408 666 408 666 481 637 c 128,-1,14
 554 608 554 608 604 549 c 1,15,-1
 601 658 l 1,16,-1
 679 658 l 1,17,-1
 679 -162 l 1,18,-1
 125 -162 l 1,19,-1
 125 -96 l 1,20,-1
 601 -96 l 1,21,-1
 601 419 l 1,22,23
 585 475 585 475 546.5 514 c 128,-1,24
 508 553 508 553 454.5 573 c 128,-1,25
 401 593 401 593 340 593 c 0,26,27
 263 593 263 593 212.5 566.5 c 128,-1,28
 162 540 162 540 137 497 c 128,-1,29
 112 454 112 454 112 404 c 0,30,31
 112 361 112 361 130.5 321 c 128,-1,32
 149 281 149 281 184 254 c 1,33,34
 227 299 227 299 290 329 c 128,-1,35
 353 359 353 359 426 369 c 1,36,-1
 437 301 l 1,37,38
 324 284 324 284 263.5 234.5 c 128,-1,39
 203 185 203 185 189 124 c 1,40,-1
 191 124 l 2,41,42
 223 124 223 124 242 103 c 128,-1,43
 261 82 261 82 261 57 c 0,44,45
 261 29 261 29 241.5 10.5 c 128,-1,46
 222 -8 222 -8 192 -8 c 0,0,1
EndSplineSet
Ligature2: "'blws' Below Base Substitutions in Oriya2 lookup 13 subtable" uni0B2E.base uni0B4D0B30
EndChar

StartChar: yaraoriya
Encoding: 65567 -1 131
Width: 784
GlyphClass: 2
Flags: W
AnchorPoint: "+BBEENQQ3BEsEPARPBD0EPQQ+BDUA--1" 375 658 basechar 0
AnchorPoint: "+BBEENQQ3BEsEPARPBD0EPQQ+BDUA--0" 684 658 basechar 0
LayerCount: 2
Fore
SplineSet
421 -8 m 256,0,1
 363 -8 363 -8 317.5 14 c 128,-1,2
 272 36 272 36 245 78 c 128,-1,3
 218 120 218 120 218 180 c 0,4,5
 218 194 218 194 220 209.5 c 128,-1,6
 222 225 222 225 227 242 c 1,7,8
 190 216 190 216 158.5 189 c 128,-1,9
 127 162 127 162 107 137 c 1,10,11
 126 128 126 128 134.5 113.5 c 128,-1,12
 143 99 143 99 143 83 c 0,13,14
 143 58 143 58 126 43.5 c 128,-1,15
 109 29 109 29 86 29 c 0,16,17
 61 29 61 29 42.5 45.5 c 128,-1,18
 24 62 24 62 24 91 c 0,19,20
 24 123 24 123 56.5 170 c 128,-1,21
 89 217 89 217 151 266 c 1,22,23
 114 298 114 298 95 340 c 128,-1,24
 76 382 76 382 76 427 c 0,25,26
 76 486 76 486 100 530.5 c 128,-1,27
 124 575 124 575 165.5 605 c 128,-1,28
 207 635 207 635 259 650.5 c 128,-1,29
 311 666 311 666 367 666 c 0,30,31
 447 666 447 666 522 636.5 c 128,-1,32
 597 607 597 607 648 547 c 1,33,-1
 645 658 l 1,34,-1
 723 658 l 1,35,-1
 723 -162 l 1,36,-1
 168 -162 l 1,37,-1
 168 -96 l 1,38,-1
 645 -96 l 1,39,-1
 648 100 l 1,40,41
 604 45 604 45 541.5 18.5 c 128,-1,42
 479 -8 479 -8 421 -8 c 256,0,1
294 180 m 0,43,44
 294 124 294 124 334 94.5 c 128,-1,45
 374 65 374 65 428 65 c 0,46,47
 463 65 463 65 504.5 80 c 128,-1,48
 546 95 546 95 583.5 125 c 128,-1,49
 621 155 621 155 645 201 c 1,50,-1
 645 417 l 1,51,52
 627 477 627 477 585 516 c 128,-1,53
 543 555 543 555 488.5 574 c 128,-1,54
 434 593 434 593 379 593 c 0,55,56
 321 593 321 593 270 572 c 128,-1,57
 219 551 219 551 187 511.5 c 128,-1,58
 155 472 155 472 155 414 c 0,59,60
 155 350 155 350 202 303 c 1,61,62
 241 328 241 328 288.5 352 c 128,-1,63
 336 376 336 376 392 397 c 1,64,-1
 420 333 l 1,65,66
 354 308 354 308 324 265.5 c 128,-1,67
 294 223 294 223 294 180 c 0,43,44
EndSplineSet
Ligature2: "'blws' Below Base Substitutions in Oriya2 lookup 13 subtable" uni0B2F.base uni0B4D0B30
EndChar

